<?xml version="1.0" encoding="utf-8"?>
<!-- Generator: Adobe Illustrator 22.1.0, SVG Export Plug-In . SVG Version: 6.00 Build 0)  -->
<svg version="1.1" id="Layer_1" xmlns="http://www.w3.org/2000/svg" xmlns:xlink="http://www.w3.org/1999/xlink" x="0px" y="0px"
	 viewBox="0 0 677.1 136.2" style="enable-background:new 0 0 677.1 136.2;" xml:space="preserve">
<style type="text/css">
	.st0{fill:#F7F7F7;}
	.st1{fill:#22B573;}
	.st2{fill:#4AB0FF;}
	.st3{fill:#FFB04A;}
	.st4{fill:#FFFFFF;}
	.st5{fill:#FFFDFD;}
</style>
<title>education</title>
<rect x="12" y="87.4" class="st0" width="645" height="5"/>
<circle class="st1" cx="92" cy="89.9" r="16"/>
<path class="st1" d="M92,107.9c-9.9,0-18-8.1-18-18s8.1-18,18-18s18,8.1,18,18l0,0C110,99.8,101.9,107.9,92,107.9z M92,75.9
	c-7.7,0-14,6.3-14,14s6.3,14,14,14c7.7,0,14-6.3,14-14S99.7,75.9,92,75.9z"/>
<circle class="st2" cx="329" cy="89.9" r="16"/>
<path class="st2" d="M329,107.9c-9.9,0-18-8.1-18-18s8.1-18,18-18c9.9,0,18,8.1,18,18l0,0C347,99.8,338.9,107.9,329,107.9z
	 M329,75.9c-7.7,0-14,6.3-14,14s6.3,14,14,14s14-6.3,14-14S336.7,75.9,329,75.9z"/>
<circle class="st3" cx="569.5" cy="89.9" r="16"/>
<path class="st3" d="M569.5,107.9c-9.9,0-18-8.1-18-18s8.1-18,18-18s18,8.1,18,18l0,0C587.5,99.8,579.4,107.9,569.5,107.9z
	 M569.5,75.9c-7.7,0-14,6.3-14,14s6.3,14,14,14s14-6.3,14-14S577.2,75.9,569.5,75.9z"/>
<path class="st4" d="M13.1,12.6c-0.1,1.6-0.8,3.1-2,4.2c-1.3,1-2.8,1.6-4.5,1.5c-1.9,0.1-3.7-0.7-4.9-2.2c-1.3-1.7-1.9-3.7-1.8-5.8
	V8.6c0-1.4,0.3-2.9,0.9-4.2c0.5-1.1,1.4-2.1,2.4-2.8c1.1-0.7,2.3-1,3.6-1c1.6-0.1,3.2,0.5,4.4,1.5c1.1,1.1,1.8,2.6,1.9,4.2h-2.3
	c-0.1-1.1-0.5-2.2-1.3-3c-0.8-0.6-1.7-1-2.7-0.9C5.5,2.4,4.3,3,3.5,4.1C2.6,5.4,2.2,7,2.3,8.6v1.7c-0.1,1.6,0.3,3.1,1.2,4.4
	c0.7,1.1,2,1.7,3.2,1.6c1,0.1,2.1-0.2,2.9-0.8c0.8-0.8,1.3-1.9,1.3-3L13.1,12.6z"/>
<path class="st4" d="M15.3,11.5c0-1.2,0.2-2.3,0.7-3.3c0.4-0.9,1.1-1.7,2-2.3c0.9-0.5,1.9-0.8,3-0.8c1.6-0.1,3.1,0.6,4.2,1.8
	c1.1,1.3,1.7,3,1.6,4.8v0.2c0,1.1-0.2,2.3-0.7,3.3c-0.4,0.9-1.1,1.7-2,2.3c-0.9,0.6-1.9,0.8-3,0.8c-1.6,0.1-3.1-0.6-4.2-1.8
	c-1.1-1.3-1.7-3-1.6-4.7L15.3,11.5z M17.5,11.8c-0.1,1.2,0.3,2.4,1,3.4c1.1,1.4,3.2,1.7,4.7,0.6c0.2-0.2,0.4-0.4,0.6-0.6
	c0.7-1.1,1.1-2.3,1-3.6c0.1-1.2-0.3-2.4-1-3.4c-0.6-0.8-1.6-1.3-2.6-1.3c-1,0-2,0.4-2.6,1.3C17.8,9.2,17.4,10.5,17.5,11.8L17.5,11.8
	z"/>
<path class="st4" d="M31.9,18h-2.2V0h2.2V18z"/>
<path class="st4" d="M40.6,18.2c-1.6,0.1-3.1-0.6-4.2-1.7c-1.1-1.2-1.7-2.9-1.6-4.5v-0.4c0-1.2,0.2-2.3,0.7-3.4
	c0.4-0.9,1.1-1.7,2-2.3c0.8-0.5,1.8-0.8,2.8-0.8c1.5-0.1,2.9,0.5,3.9,1.6c1,1.3,1.5,3,1.4,4.7v0.9H37c0,1.1,0.4,2.2,1.1,3
	c0.7,0.8,1.7,1.2,2.7,1.2c0.7,0,1.3-0.1,1.9-0.5c0.5-0.3,1-0.7,1.4-1.2l1.3,1C44.4,17.4,42.6,18.3,40.6,18.2z M40.4,6.9
	c-0.8,0-1.6,0.3-2.2,0.9c-0.6,0.8-1,1.7-1.1,2.7h6.4v-0.2c0-0.9-0.3-1.8-0.9-2.6C42,7.2,41.2,6.8,40.4,6.9L40.4,6.9z M41.5,0h2.6
	l-3.1,3.4h-1.7L41.5,0z"/>
<path class="st4" d="M47.6,11.6c-0.1-1.7,0.4-3.3,1.4-4.7c0.9-1.1,2.2-1.8,3.6-1.8C54,5,55.3,5.6,56.2,6.7l0.1-1.4h2v12.4
	c0.1,1.4-0.5,2.8-1.5,3.9c-1.1,1-2.5,1.5-3.9,1.4c-0.9,0-1.8-0.2-2.7-0.6c-0.8-0.3-1.5-0.9-2-1.6l1.1-1.3c0.8,1.1,2.1,1.7,3.4,1.7
	c0.9,0.1,1.8-0.3,2.5-0.9c0.6-0.7,0.9-1.6,0.9-2.5v-1.1c-0.9,1-2.2,1.6-3.6,1.5c-1.4,0-2.8-0.6-3.6-1.8C48,15,47.5,13.3,47.6,11.6z
	 M49.8,11.8c-0.1,1.2,0.2,2.4,0.9,3.4c0.6,0.8,1.5,1.3,2.5,1.2c1.3,0,2.5-0.7,3-1.9V8.7c-0.6-1.1-1.7-1.9-3-1.8
	c-1,0-1.9,0.4-2.5,1.2C50,9.3,49.7,10.5,49.8,11.8L49.8,11.8z"/>
<path class="st4" d="M61.6,2c0-0.3,0.1-0.6,0.3-0.9c0.5-0.5,1.4-0.5,1.9,0C64,1.4,64.1,1.7,64.1,2c0,0.3-0.1,0.6-0.3,0.9
	c-0.6,0.5-1.4,0.5-1.9,0C61.7,2.6,61.6,2.3,61.6,2z M63.9,18h-2.2V5.3h2.2V18z"/>
<path class="st4" d="M66.8,11.5c0-1.2,0.2-2.3,0.7-3.3c0.4-0.9,1.1-1.7,2-2.3c0.9-0.5,1.9-0.8,3-0.8c1.6-0.1,3.1,0.6,4.2,1.8
	c1.1,1.3,1.7,3,1.6,4.8v0.2c0,1.1-0.2,2.3-0.7,3.3c-0.4,0.9-1.1,1.7-2,2.3c-0.9,0.6-1.9,0.8-3,0.8c-1.6,0.1-3.1-0.6-4.2-1.8
	c-1.1-1.3-1.7-3-1.6-4.7L66.8,11.5z M69,11.8c-0.1,1.2,0.3,2.4,1,3.4c1.1,1.4,3.2,1.7,4.7,0.6c0.2-0.2,0.4-0.4,0.6-0.6
	c0.7-1.1,1.1-2.3,1-3.6c0.1-1.2-0.3-2.4-1-3.4c-1.1-1.4-3.2-1.7-4.6-0.6C70.4,7.8,70.2,8,70,8.2C69.3,9.2,68.9,10.5,69,11.8z"/>
<path class="st4" d="M92.4,10.4c-1.5-0.3-3-1-4.2-2c-0.9-0.8-1.3-1.9-1.3-3c0-1.3,0.6-2.6,1.6-3.4c1.2-0.9,2.7-1.4,4.2-1.3
	c1.1,0,2.2,0.2,3.1,0.7c0.9,0.4,1.6,1.1,2.1,1.9c0.5,0.8,0.8,1.7,0.8,2.6h-2.2c0-0.9-0.3-1.8-1-2.4c-0.8-0.6-1.8-1-2.8-0.9
	c-0.9-0.1-1.8,0.2-2.6,0.7c-0.6,0.5-1,1.2-0.9,2C89.2,6,89.5,6.6,90,7c0.9,0.6,1.9,1.1,3,1.3c1.2,0.3,2.3,0.7,3.3,1.3
	c0.7,0.4,1.3,1,1.8,1.7c0.4,0.7,0.6,1.5,0.6,2.3c0,1.3-0.6,2.6-1.6,3.3c-1.3,0.9-2.8,1.3-4.3,1.2c-1.1,0-2.2-0.2-3.3-0.7
	c-0.9-0.4-1.8-1-2.4-1.8c-0.6-0.8-0.8-1.7-0.8-2.7h2.3c0,1,0.4,1.9,1.1,2.4c0.9,0.6,2,0.9,3.1,0.9c1,0.1,1.9-0.2,2.7-0.7
	c0.6-0.5,1-1.2,1-2c0-0.8-0.3-1.5-0.9-1.9C94.6,11.1,93.5,10.6,92.4,10.4z"/>
<path class="st4" d="M109.1,18c-0.2-0.4-0.3-0.9-0.3-1.3c-0.9,1-2.2,1.6-3.6,1.6c-1.1,0-2.2-0.3-3.1-1.1c-0.8-0.7-1.2-1.7-1.2-2.7
	c-0.1-1.2,0.5-2.4,1.5-3.1c1.3-0.8,2.7-1.2,4.2-1.1h2.1v-1c0-0.7-0.2-1.3-0.7-1.8c-0.5-0.5-1.3-0.7-2-0.7c-0.7,0-1.4,0.2-2,0.6
	c-0.5,0.3-0.8,0.8-0.8,1.4h-2.2c0-0.7,0.2-1.3,0.7-1.8c0.5-0.6,1.1-1.1,1.8-1.4c0.8-0.3,1.7-0.5,2.5-0.5c1.2-0.1,2.5,0.3,3.4,1.1
	c0.8,0.8,1.3,1.9,1.3,3V15c0,0.9,0.1,1.9,0.4,2.8V18H109.1z M110.6,0.4c0,0.8-0.2,1.5-0.7,2.1c-0.5,0.5-1.1,0.8-1.8,0.8
	c-0.3,0-0.6,0-0.8-0.1c-0.3-0.1-0.6-0.3-0.9-0.5c-0.3-0.2-0.5-0.3-0.8-0.4c-0.2-0.1-0.4-0.1-0.6-0.1c-0.3,0-0.6,0.1-0.8,0.4
	c-0.2,0.3-0.4,0.6-0.3,0.9l-1.5-0.1c0-0.8,0.2-1.5,0.7-2.1c0.4-0.5,1.1-0.8,1.8-0.8c0.3,0,0.5,0,0.7,0.1c0.3,0.1,0.6,0.3,0.9,0.5
	c0.3,0.2,0.6,0.3,0.9,0.4c0.2,0.1,0.4,0.1,0.7,0.1c0.3,0,0.6-0.1,0.8-0.4c0.2-0.3,0.3-0.6,0.3-0.9L110.6,0.4z M105.5,16.4
	c0.7,0,1.4-0.2,1.9-0.5c0.6-0.3,1-0.8,1.3-1.4v-2.6H107c-2.7,0-4,0.8-4,2.3c0,0.6,0.2,1.2,0.7,1.6C104.2,16.2,104.8,16.4,105.5,16.4
	L105.5,16.4z"/>
<path class="st4" d="M113.7,11.5c0-1.2,0.2-2.3,0.7-3.3c0.4-0.9,1.1-1.7,2-2.3c0.9-0.5,1.9-0.8,3-0.8c1.6-0.1,3.1,0.6,4.2,1.8
	c1.1,1.3,1.7,3,1.6,4.8v0.2c0,1.1-0.2,2.3-0.7,3.3c-0.4,0.9-1.1,1.7-2,2.3c-0.9,0.6-1.9,0.8-3,0.8c-1.6,0.1-3.1-0.6-4.2-1.8
	c-1.1-1.3-1.7-3-1.6-4.7L113.7,11.5z M115.9,11.8c-0.1,1.2,0.3,2.4,1,3.4c0.6,0.8,1.6,1.3,2.6,1.3c1,0,2-0.4,2.6-1.3
	c0.7-1.1,1.1-2.3,1-3.6c0.1-1.2-0.3-2.4-1-3.4c-0.6-0.8-1.6-1.3-2.6-1.3c-1,0-2,0.4-2.6,1.3C116.2,9.2,115.8,10.5,115.9,11.8
	L115.9,11.8z"/>
<path class="st4" d="M141.5,0.9h2.3V13c0.1,1.4-0.5,2.8-1.5,3.8c-1.1,1-2.5,1.5-3.9,1.4c-1.5,0.1-2.9-0.4-4-1.3
	c-1-1-1.5-2.3-1.4-3.6h2.2c-0.2,1.5,1,2.9,2.5,3.1c0.2,0,0.4,0,0.6,0c0.8,0,1.7-0.3,2.3-0.9c0.6-0.7,0.9-1.6,0.9-2.5L141.5,0.9z"/>
<path class="st4" d="M146.6,11.5c0-1.2,0.2-2.3,0.7-3.3c0.4-0.9,1.1-1.7,2-2.3c0.9-0.5,1.9-0.8,3-0.8c1.6-0.1,3.1,0.6,4.2,1.8
	c1.1,1.3,1.7,3,1.6,4.8v0.2c0,1.1-0.2,2.3-0.7,3.3c-0.4,0.9-1.1,1.7-2,2.3c-0.9,0.6-1.9,0.8-3,0.8c-1.6,0.1-3.1-0.6-4.2-1.8
	c-1.1-1.3-1.7-3-1.6-4.7L146.6,11.5z M148.8,11.8c-0.1,1.2,0.3,2.4,1,3.4c0.6,0.8,1.6,1.3,2.6,1.3c1,0,2-0.4,2.6-1.3
	c0.7-1.1,1.1-2.3,1-3.6c0.1-1.2-0.3-2.4-1-3.4c-0.6-0.8-1.6-1.3-2.6-1.3c-1,0-2,0.4-2.6,1.3C149.1,9.2,148.7,10.5,148.8,11.8z"/>
<path class="st4" d="M168.3,14.6c0-0.5-0.2-1.1-0.7-1.4c-0.7-0.4-1.5-0.7-2.3-0.8c-0.9-0.2-1.8-0.4-2.6-0.8
	c-0.6-0.3-1.1-0.7-1.4-1.2c-0.3-0.5-0.5-1-0.5-1.6c0-1,0.5-2,1.3-2.6c1-0.7,2.2-1.1,3.4-1.1c1.3-0.1,2.5,0.3,3.5,1.1
	c0.9,0.7,1.4,1.7,1.3,2.8h-2.2c0-0.6-0.3-1.2-0.8-1.5c-0.5-0.4-1.2-0.7-1.9-0.6c-0.7,0-1.3,0.1-1.9,0.5c-0.4,0.3-0.7,0.8-0.7,1.3
	c0,0.5,0.2,0.9,0.6,1.2c0.7,0.4,1.5,0.6,2.2,0.8c0.9,0.2,1.8,0.5,2.6,0.9c0.6,0.3,1.1,0.7,1.5,1.2c0.3,0.5,0.5,1.1,0.5,1.7
	c0,1.1-0.5,2.1-1.4,2.7c-1,0.7-2.3,1.1-3.5,1c-0.9,0-1.8-0.2-2.7-0.5c-0.7-0.3-1.4-0.8-1.8-1.5c-0.4-0.6-0.7-1.3-0.7-2.1h2.1
	c0,0.7,0.3,1.3,0.9,1.7c0.6,0.4,1.4,0.7,2.1,0.6c0.7,0,1.4-0.1,2-0.5C168,15.7,168.2,15.2,168.3,14.6z"/>
<path class="st4" d="M178.5,18.2c-1.6,0.1-3.1-0.6-4.2-1.7c-1.1-1.2-1.7-2.9-1.6-4.5v-0.4c0-1.2,0.2-2.3,0.7-3.4
	c0.4-0.9,1.1-1.7,2-2.3c0.8-0.5,1.8-0.8,2.8-0.8c1.5-0.1,2.9,0.5,3.9,1.6c1,1.3,1.5,3,1.4,4.7v0.9h-8.5c0,1.1,0.4,2.2,1.1,3
	c0.7,0.8,1.7,1.2,2.7,1.2c0.7,0,1.3-0.1,1.9-0.5c0.5-0.3,1-0.7,1.4-1.2l1.3,1C182.3,17.4,180.4,18.3,178.5,18.2z M178.2,6.9
	c-0.8,0-1.6,0.3-2.2,0.9c-0.6,0.8-1,1.7-1.1,2.7h6.4v-0.2c0-0.9-0.3-1.8-0.9-2.6C179.8,7.2,179,6.8,178.2,6.9L178.2,6.9z M179.3,0
	h2.6l-3.1,3.4H177L179.3,0z"/>
<path class="st4" d="M52.5,42h-1.8v-6.2h-6.8V42h-1.8V28.5h1.8v5.8h6.8v-5.8h1.8V42z"/>
<path class="st4" d="M55.3,29.3c0-0.3,0.1-0.5,0.2-0.7c0.4-0.4,1.1-0.4,1.5,0c0.2,0.2,0.3,0.4,0.3,0.7c0,0.6-0.4,1-1,1
	S55.4,29.9,55.3,29.3L55.3,29.3z M57.2,42h-1.7V32h1.7L57.2,42z"/>
<path class="st4" d="M59.5,36.9c-0.1-1.3,0.3-2.7,1.1-3.7c1.3-1.6,3.7-1.8,5.3-0.5c0.2,0.1,0.3,0.3,0.5,0.5l0.1-1.1H68v9.8
	c0.1,1.1-0.4,2.3-1.1,3.1c-0.8,0.8-2,1.2-3.1,1.1c-0.7,0-1.5-0.2-2.1-0.5c-0.6-0.3-1.2-0.7-1.6-1.3l0.9-1c0.6,0.9,1.6,1.4,2.7,1.4
	c0.7,0.1,1.5-0.2,2-0.7c0.5-0.5,0.7-1.3,0.7-2V41c-0.7,0.8-1.7,1.2-2.8,1.2c-1.1,0-2.2-0.5-2.9-1.4C59.9,39.6,59.5,38.3,59.5,36.9z
	 M61.3,37.1C61.2,38,61.4,39,62,39.8c0.4,0.6,1.2,1,1.9,1c1,0,2-0.5,2.4-1.5v-4.6c-0.4-0.9-1.4-1.5-2.4-1.4c-0.8,0-1.6,0.3-2,1
	C61.4,35.1,61.2,36.1,61.3,37.1z"/>
<path class="st4" d="M72.3,33.2c0.7-0.9,1.8-1.4,3-1.4c2.1,0,3.2,1.2,3.2,3.6V42h-1.7v-6.6c0-0.6-0.1-1.2-0.5-1.6
	c-0.4-0.4-1-0.6-1.5-0.5c-0.5,0-1,0.1-1.5,0.4c-0.4,0.3-0.8,0.7-1,1.2V42h-1.7V27.8h1.7L72.3,33.2z"/>
<path class="st4" d="M90,36c-1.2-0.3-2.4-0.8-3.3-1.6c-0.7-0.6-1-1.5-1-2.4c0-1,0.5-2,1.3-2.6c1-0.7,2.1-1.1,3.3-1
	c0.9,0,1.7,0.2,2.5,0.5c0.7,0.3,1.3,0.8,1.7,1.5c0.4,0.6,0.6,1.3,0.6,2.1h-1.8c0-0.7-0.2-1.4-0.8-1.9c-0.6-0.5-1.4-0.8-2.2-0.7
	c-0.7,0-1.5,0.2-2.1,0.6c-0.5,0.4-0.8,1-0.8,1.6c0,0.6,0.3,1.1,0.7,1.4c0.7,0.5,1.5,0.8,2.4,1c0.9,0.2,1.8,0.6,2.6,1
	c0.6,0.3,1.1,0.8,1.4,1.3c0.3,0.5,0.5,1.2,0.5,1.8c0,1-0.5,2-1.3,2.6c-1,0.7-2.2,1.1-3.4,1c-0.9,0-1.8-0.2-2.6-0.5
	c-0.7-0.3-1.4-0.8-1.9-1.5c-0.4-0.6-0.7-1.4-0.7-2.1H87c0,0.8,0.3,1.5,0.9,1.9c0.7,0.5,1.5,0.8,2.4,0.7c0.8,0.1,1.5-0.2,2.2-0.6
	c0.9-0.7,1-1.9,0.3-2.8c-0.1-0.1-0.2-0.2-0.3-0.3C91.8,36.5,90.9,36.2,90,36z"/>
<path class="st4" d="M101.1,40.8c0.6,0,1.1-0.2,1.6-0.6c0.4-0.3,0.7-0.8,0.8-1.4h1.6c0,0.6-0.3,1.2-0.6,1.6c-0.4,0.5-0.9,1-1.5,1.2
	c-0.6,0.3-1.3,0.5-1.9,0.5c-1.2,0.1-2.4-0.4-3.3-1.4c-0.9-1.1-1.3-2.4-1.2-3.8v-0.3c0-0.9,0.2-1.8,0.5-2.6c0.3-0.7,0.9-1.3,1.5-1.8
	c0.7-0.4,1.5-0.7,2.4-0.6c1,0,2,0.3,2.8,1c0.7,0.7,1.2,1.6,1.2,2.6h-1.6c0-0.6-0.3-1.2-0.7-1.6c-0.4-0.4-1-0.6-1.6-0.6
	c-0.8,0-1.5,0.3-2,0.9c-0.5,0.8-0.8,1.8-0.7,2.7v0.3c-0.1,0.9,0.2,1.9,0.7,2.7C99.6,40.5,100.3,40.8,101.1,40.8z"/>
<path class="st4" d="M108.7,33.2c0.7-0.9,1.8-1.4,3-1.4c2.1,0,3.2,1.2,3.2,3.6V42h-1.7v-6.6c0-0.6-0.1-1.2-0.5-1.6
	c-0.4-0.4-1-0.6-1.5-0.5c-0.5,0-1,0.1-1.5,0.4c-0.4,0.3-0.8,0.7-1,1.2V42H107V27.8h1.7L108.7,33.2z"/>
<path class="st4" d="M117,36.9c0-0.9,0.2-1.8,0.6-2.7c0.3-0.7,0.9-1.4,1.6-1.8c0.7-0.4,1.5-0.7,2.4-0.6c1.3,0,2.5,0.5,3.3,1.4
	c0.9,1.1,1.3,2.4,1.3,3.8v0.1c0,0.9-0.2,1.8-0.6,2.6c-0.3,0.7-0.9,1.4-1.6,1.8c-0.7,0.4-1.6,0.7-2.4,0.6c-1.3,0-2.5-0.5-3.3-1.4
	c-0.9-1.1-1.3-2.4-1.3-3.8L117,36.9z M118.7,37.1c0,1,0.2,1.9,0.8,2.7c0.5,0.7,1.3,1,2.1,1c0.8,0,1.6-0.3,2.1-1
	c0.6-0.8,0.8-1.9,0.8-2.9c0-1-0.2-1.9-0.8-2.7c-0.5-0.7-1.3-1-2.1-1c-0.8,0-1.5,0.4-2,1C119,35.1,118.7,36.1,118.7,37.1z"/>
<path class="st4" d="M127.8,36.9c0-0.9,0.2-1.8,0.6-2.7c0.7-1.5,2.3-2.5,4-2.4c1.3,0,2.5,0.5,3.3,1.4c0.9,1,1.3,2.4,1.3,3.8v0.1
	c0,0.9-0.2,1.8-0.6,2.6c-0.4,0.7-0.9,1.4-1.6,1.8c-0.7,0.4-1.5,0.7-2.4,0.6c-1.3,0-2.5-0.5-3.3-1.4c-0.9-1-1.3-2.4-1.3-3.8
	L127.8,36.9z M129.6,37.1c0,1,0.2,1.9,0.8,2.7c0.9,1.1,2.5,1.4,3.7,0.5c0.2-0.1,0.4-0.3,0.5-0.5c0.6-0.8,0.8-1.9,0.8-2.9
	c0-1-0.2-1.9-0.8-2.7c-0.5-0.7-1.3-1-2.1-1c-0.8,0-1.6,0.3-2,1C129.8,35.1,129.5,36.1,129.6,37.1z"/>
<path class="st4" d="M141,42h-1.7V27.8h1.7V42z"/>
<path class="st4" d="M308.2,0.9v11.6c0,1.5-0.5,2.9-1.5,3.9c-1.1,1.1-2.6,1.7-4.1,1.7H302c-1.6,0.1-3.2-0.5-4.5-1.5
	c-1.1-1.1-1.8-2.6-1.7-4.2V0.9h2.2v11.6c-0.2,1.9,1.2,3.7,3.1,3.9c0.3,0,0.5,0,0.8,0c1.1,0.1,2.1-0.3,2.9-1c0.7-0.8,1.1-1.8,1-2.9
	V0.9H308.2z"/>
<path class="st4" d="M321.2,10.5H314V18h-2.2V0.9h10.6v1.8H314v5.8h7.2V10.5z"/>
<path class="st4" d="M327.3,11.3V18H325V0.9h6.3c1.6-0.1,3.2,0.4,4.4,1.4c2.1,2.1,2.1,5.5,0,7.6c0,0,0,0,0,0c-1.3,1-2.8,1.4-4.4,1.3
	H327.3z M327.3,9.5h4c1,0.1,2-0.2,2.8-0.8c0.7-0.6,1-1.5,1-2.5c0-0.9-0.3-1.8-1-2.4c-0.7-0.7-1.7-1-2.6-1h-4.1V9.5z"/>
<path class="st4" d="M349.8,10.1h-7.4v6h8.6V18h-10.8V0.9h10.7v1.8h-8.5v5.5h7.4L349.8,10.1z"/>
<path class="st4" d="M356.1,16.2h8.1V18h-10.4V0.9h2.3V16.2z"/>
<path class="st4" d="M257.6,36c-1.2-0.3-2.4-0.8-3.3-1.6c-0.7-0.6-1-1.5-1-2.4c0-1,0.5-2,1.3-2.6c1-0.7,2.1-1.1,3.3-1
	c0.9,0,1.7,0.2,2.5,0.5c0.7,0.3,1.3,0.8,1.7,1.5c0.4,0.6,0.6,1.3,0.6,2.1h-1.8c0-0.7-0.2-1.4-0.8-1.9c-0.6-0.5-1.4-0.8-2.2-0.7
	c-0.7,0-1.5,0.2-2.1,0.6c-0.5,0.4-0.8,1-0.7,1.6c0,0.6,0.3,1.1,0.7,1.4c0.7,0.5,1.5,0.8,2.4,1c0.9,0.2,1.8,0.6,2.6,1
	c0.6,0.3,1.1,0.8,1.4,1.3c0.3,0.5,0.5,1.2,0.5,1.8c0,1-0.5,2-1.3,2.6c-1,0.7-2.2,1.1-3.4,1c-0.9,0-1.8-0.2-2.6-0.5
	c-0.7-0.3-1.4-0.8-1.9-1.5c-0.4-0.6-0.7-1.4-0.6-2.1h1.8c0,0.8,0.3,1.5,0.9,1.9c0.7,0.5,1.5,0.8,2.4,0.7c0.8,0.1,1.5-0.2,2.2-0.6
	c0.9-0.7,1-1.9,0.3-2.8c-0.1-0.1-0.2-0.2-0.3-0.3C259.4,36.5,258.5,36.2,257.6,36z"/>
<path class="st4" d="M268.7,40.8c0.6,0,1.1-0.2,1.6-0.6c0.4-0.3,0.7-0.8,0.8-1.4h1.6c0,0.6-0.2,1.2-0.6,1.6c-0.4,0.5-0.9,1-1.5,1.2
	c-1.7,0.9-3.9,0.5-5.2-0.9c-0.9-1.1-1.3-2.4-1.2-3.8v-0.3c0-0.9,0.2-1.8,0.5-2.6c0.3-0.7,0.9-1.3,1.5-1.8c0.7-0.4,1.5-0.7,2.4-0.6
	c1,0,2,0.3,2.8,1c0.7,0.7,1.2,1.6,1.2,2.6H271c0-0.6-0.3-1.2-0.7-1.6c-0.4-0.4-1-0.6-1.6-0.6c-0.8,0-1.5,0.3-2,0.9
	c-0.5,0.8-0.8,1.8-0.7,2.7v0.3c-0.1,0.9,0.2,1.9,0.7,2.7C267.1,40.5,267.9,40.8,268.7,40.8z"/>
<path class="st4" d="M274.6,29.3c0-0.3,0.1-0.5,0.3-0.7c0.2-0.2,0.5-0.3,0.8-0.3c0.3,0,0.6,0.1,0.8,0.3c0.2,0.2,0.3,0.4,0.3,0.7
	c0,0.3-0.1,0.5-0.3,0.7c-0.2,0.2-0.5,0.3-0.8,0.3c-0.3,0-0.6-0.1-0.8-0.3C274.7,29.8,274.6,29.6,274.6,29.3z M276.5,42h-1.7V32h1.7
	V42z"/>
<path class="st4" d="M283.4,42.2c-1.2,0-2.5-0.4-3.3-1.4c-0.9-1-1.3-2.3-1.3-3.6v-0.3c0-0.9,0.2-1.8,0.6-2.7
	c0.3-0.8,0.9-1.4,1.6-1.8c0.7-0.4,1.4-0.7,2.2-0.7c1.1-0.1,2.2,0.4,3,1.3c0.8,1.1,1.2,2.4,1.1,3.7v0.7h-6.8c0,0.9,0.3,1.7,0.9,2.4
	c0.5,0.6,1.3,0.9,2.1,0.9c0.5,0,1.1-0.1,1.5-0.4c0.4-0.3,0.8-0.6,1.1-1l1,0.8C286.3,41.5,284.9,42.3,283.4,42.2z M283.2,33.2
	c-0.7,0-1.3,0.3-1.8,0.8c-0.5,0.6-0.8,1.3-0.9,2.1h5v-0.1c0-0.7-0.3-1.4-0.7-2C284.4,33.4,283.8,33.2,283.2,33.2z"/>
<path class="st4" d="M290.9,32l0.1,1.3c0.7-0.9,1.8-1.5,3-1.4c2.1,0,3.2,1.2,3.2,3.6V42h-1.7v-6.6c0-0.6-0.1-1.2-0.5-1.6
	c-0.4-0.4-1-0.6-1.5-0.5c-0.5,0-1,0.1-1.5,0.4c-0.4,0.3-0.8,0.7-1,1.2V42h-1.7V32H290.9z"/>
<path class="st4" d="M303.8,40.8c0.6,0,1.2-0.2,1.6-0.6c0.4-0.3,0.7-0.8,0.8-1.4h1.6c0,0.6-0.2,1.2-0.6,1.6c-0.4,0.5-0.9,1-1.5,1.2
	c-0.6,0.3-1.3,0.5-1.9,0.5c-1.2,0.1-2.4-0.4-3.3-1.4c-0.9-1.1-1.3-2.4-1.2-3.8v-0.3c0-0.9,0.2-1.8,0.5-2.6c0.3-0.7,0.9-1.3,1.5-1.8
	c0.7-0.4,1.5-0.7,2.4-0.6c1,0,2,0.3,2.8,1c0.7,0.7,1.2,1.6,1.2,2.6h-1.6c0-0.6-0.3-1.2-0.7-1.6c-0.4-0.4-1-0.6-1.6-0.6
	c-0.8,0-1.5,0.3-2,0.9c-0.5,0.8-0.8,1.8-0.7,2.7v0.3c-0.1,0.9,0.2,1.9,0.7,2.7C302.2,40.5,303,40.8,303.8,40.8z"/>
<path class="st4" d="M313.9,42.2c-1.3,0-2.5-0.4-3.3-1.4c-0.9-1-1.3-2.3-1.3-3.6v-0.3c0-0.9,0.2-1.8,0.6-2.7
	c0.4-0.8,0.9-1.4,1.6-1.8c0.7-0.4,1.4-0.7,2.2-0.7c1.2-0.1,2.3,0.4,3,1.3c0.8,1.1,1.2,2.4,1.1,3.7v0.7H311c0,0.9,0.3,1.7,0.9,2.4
	c0.5,0.6,1.3,0.9,2.1,0.9c0.5,0,1.1-0.1,1.5-0.4c0.4-0.3,0.8-0.6,1.1-1l1,0.8C316.8,41.5,315.4,42.3,313.9,42.2z M313.6,33.2
	c-0.7,0-1.3,0.3-1.7,0.8c-0.5,0.6-0.8,1.3-0.9,2.1h5v-0.1c0-0.7-0.2-1.4-0.7-2C314.9,33.4,314.3,33.2,313.6,33.2z"/>
<path class="st4" d="M334.7,37.7c-0.1,1.3-0.6,2.5-1.6,3.3c-1,0.8-2.3,1.2-3.5,1.2c-1.5,0-2.9-0.6-3.8-1.7c-1-1.3-1.5-2.9-1.5-4.6
	v-1.3c0-1.1,0.2-2.3,0.7-3.3c0.4-0.9,1.1-1.7,1.9-2.2c0.9-0.5,1.9-0.8,2.9-0.8c1.3-0.1,2.5,0.4,3.5,1.2c0.9,0.9,1.4,2.1,1.5,3.3
	h-1.8c-0.1-0.9-0.4-1.7-1-2.3c-0.6-0.5-1.4-0.8-2.2-0.7c-1,0-2.1,0.4-2.7,1.3c-0.7,1.1-1.1,2.3-1,3.6v1.3c-0.1,1.2,0.3,2.5,0.9,3.5
	c0.6,0.8,1.5,1.3,2.6,1.3c0.8,0.1,1.6-0.2,2.3-0.7c0.6-0.6,1-1.5,1-2.4L334.7,37.7z"/>
<path class="st4" d="M336.4,36.9c0-0.9,0.2-1.8,0.6-2.7c0.7-1.5,2.3-2.5,4-2.4c1.3,0,2.5,0.5,3.3,1.4c0.9,1,1.3,2.4,1.3,3.8v0.1
	c0,0.9-0.2,1.8-0.6,2.6c-0.4,0.7-0.9,1.4-1.6,1.8c-0.7,0.4-1.5,0.7-2.4,0.6c-1.3,0-2.5-0.5-3.3-1.4c-0.9-1-1.3-2.4-1.3-3.8
	L336.4,36.9z M338.1,37.1c0,1,0.2,1.9,0.8,2.7c0.9,1.1,2.5,1.4,3.7,0.5c0.2-0.1,0.4-0.3,0.5-0.5c0.6-0.8,0.8-1.9,0.8-2.9
	c0-1-0.2-1.9-0.8-2.7c-0.5-0.7-1.3-1-2.1-1c-0.8,0-1.6,0.3-2,1C338.3,35.1,338,36.1,338.1,37.1z"/>
<path class="st4" d="M349.3,32v1.1c0.7-0.9,1.9-1.4,3-1.3c1.2-0.1,2.3,0.5,2.9,1.6c0.7-1.1,1.9-1.7,3.2-1.6c2.2,0,3.3,1.2,3.4,3.5
	V42H360v-6.6c0-0.6-0.1-1.2-0.5-1.6c-0.4-0.4-1-0.6-1.7-0.5c-0.6,0-1.2,0.2-1.6,0.6c-0.4,0.4-0.7,1-0.7,1.5V42h-1.7v-6.6
	c0.2-1-0.5-2-1.6-2.2c-0.2,0-0.4,0-0.6,0c-1-0.1-1.9,0.5-2.3,1.4V42h-1.7V32H349.3z"/>
<path class="st4" d="M372.8,37.1c0.1,1.3-0.3,2.6-1,3.7c-0.7,0.9-1.7,1.4-2.8,1.4c-1.1,0.1-2.1-0.4-2.9-1.2v4.8h-1.7V32h1.6l0.1,1.1
	c0.7-0.9,1.8-1.4,2.9-1.3c1.1,0,2.2,0.5,2.9,1.4c0.8,1.1,1.1,2.4,1,3.8L372.8,37.1z M371.1,36.9c0.1-0.9-0.2-1.9-0.7-2.7
	c-0.5-0.7-1.2-1-2-1c-1,0-1.9,0.5-2.3,1.4v4.8c0.4,0.9,1.4,1.4,2.4,1.4c0.8,0,1.5-0.3,2-1C370.9,38.9,371.2,37.9,371.1,36.9z"/>
<path class="st4" d="M381.2,41c-0.8,0.8-1.8,1.3-2.9,1.2c-0.9,0.1-1.8-0.3-2.4-0.9c-0.6-0.8-0.9-1.8-0.8-2.8V32h1.7v6.5
	c0,1.5,0.6,2.3,1.9,2.3c1.1,0.1,2.2-0.5,2.6-1.5V32h1.7v10h-1.6L381.2,41z"/>
<path class="st4" d="M387.8,29.5V32h1.9v1.3h-1.9v6.2c0,0.3,0.1,0.6,0.2,0.9c0.2,0.2,0.5,0.3,0.8,0.3c0.3,0,0.6,0,0.8-0.1V42
	c-0.4,0.1-0.9,0.2-1.3,0.2c-0.7,0-1.3-0.2-1.7-0.7c-0.4-0.6-0.6-1.3-0.6-2v-6.2h-1.8V32h1.8v-2.4L387.8,29.5z"/>
<path class="st4" d="M395.8,42.2c-1.2,0-2.5-0.4-3.3-1.4c-0.9-1-1.3-2.3-1.3-3.6v-0.3c0-0.9,0.2-1.8,0.6-2.7
	c0.3-0.8,0.9-1.4,1.6-1.8c0.7-0.4,1.4-0.7,2.2-0.7c1.1-0.1,2.2,0.4,3,1.3c0.8,1.1,1.2,2.4,1.1,3.7v0.7h-6.8c0,0.9,0.3,1.7,0.9,2.4
	c0.5,0.6,1.3,0.9,2.1,0.9c0.5,0,1.1-0.1,1.5-0.4c0.4-0.3,0.8-0.6,1.1-1l1,0.8C398.7,41.5,397.3,42.2,395.8,42.2z M395.6,33.2
	c-0.7,0-1.3,0.3-1.8,0.8c-0.5,0.6-0.8,1.3-0.9,2.1h5v-0.1c0-0.7-0.3-1.4-0.7-2C396.9,33.4,396.2,33.2,395.6,33.2L395.6,33.2z"/>
<path class="st4" d="M406.6,33.5c-0.3,0-0.6-0.1-0.8-0.1c-1-0.1-1.9,0.5-2.3,1.4V42h-1.7V32h1.7v1.2c0.5-0.9,1.4-1.4,2.4-1.3
	c0.3,0,0.5,0,0.8,0.1L406.6,33.5z"/>
<path class="st4" d="M534.1,0.9v11.6c0,1.5-0.5,2.9-1.5,3.9c-1.1,1.1-2.6,1.7-4.1,1.7h-0.6c-1.6,0.1-3.2-0.5-4.5-1.5
	c-1.1-1.1-1.7-2.6-1.7-4.2V0.9h2.2v11.6c-0.1,1.1,0.3,2.1,1,2.9c1.7,1.4,4.1,1.4,5.8,0c0.7-0.8,1.1-1.8,1-2.9V0.9H534.1z"/>
<path class="st4" d="M550.8,18h-2.3l-8.6-13.2V18h-2.3V0.9h2.3l8.6,13.2V0.9h2.2L550.8,18z"/>
<path class="st4" d="M557.2,18h-2.2V0.9h2.2V18z"/>
<path class="st4" d="M574.4,18h-2.3l-8.6-13.2V18h-2.3V0.9h2.3l8.6,13.2V0.9h2.2L574.4,18z"/>
<path class="st4" d="M589.8,2.8h-5.5V18h-2.2V2.8h-5.5V0.9h13.2L589.8,2.8z"/>
<path class="st4" d="M602,10.1h-7.4v6h8.6V18h-10.8V0.9h10.7v1.8h-8.5v5.5h7.4V10.1z"/>
<path class="st4" d="M612.3,11.1h-4V18H606V0.9h5.7c1.6-0.1,3.2,0.4,4.4,1.3c1.1,1,1.6,2.4,1.5,3.8c0,1-0.3,2-0.9,2.8
	c-0.6,0.8-1.4,1.4-2.4,1.8l4,7.2V18H616L612.3,11.1z M608.3,9.3h3.5c1,0.1,1.9-0.3,2.7-0.9c0.7-0.6,1-1.4,1-2.3
	c0.1-0.9-0.3-1.8-0.9-2.4c-0.8-0.6-1.7-0.9-2.7-0.8h-3.4L608.3,9.3z"/>
<path class="st4" d="M465.5,38.5h-5.7l-1.2,3.5h-1.8l5.2-13.5h1.6l5.2,13.5h-1.8L465.5,38.5z M460.4,37h4.6l-2.3-6.3L460.4,37z"/>
<path class="st4" d="M471.8,32l0.1,1.3c0.7-0.9,1.8-1.5,3-1.4c2.1,0,3.2,1.2,3.2,3.6V42h-1.7v-6.6c0-0.6-0.1-1.2-0.5-1.6
	c-0.4-0.4-1-0.6-1.5-0.5c-0.5,0-1,0.1-1.5,0.4c-0.4,0.3-0.8,0.7-1,1.2V42h-1.7V32H471.8z"/>
<path class="st4" d="M486.8,42c-0.1-0.3-0.2-0.7-0.2-1.1c-0.7,0.8-1.8,1.3-2.9,1.2c-0.9,0-1.8-0.3-2.4-0.8c-0.6-0.5-1-1.3-1-2.1
	c0-1,0.4-1.9,1.2-2.4c1-0.6,2.2-0.9,3.3-0.9h1.7v-0.8c0-0.5-0.2-1-0.5-1.4c-0.4-0.4-1-0.6-1.6-0.5c-0.6,0-1.1,0.1-1.5,0.5
	c-0.4,0.2-0.6,0.7-0.6,1.1h-1.7c0-0.5,0.2-1,0.5-1.5c0.4-0.5,0.9-0.9,1.5-1.1c0.6-0.3,1.3-0.4,2-0.4c1-0.1,1.9,0.2,2.7,0.9
	c0.7,0.6,1,1.5,1,2.4v4.6c0,0.7,0.1,1.5,0.3,2.2V42H486.8z M484,40.7c0.5,0,1.1-0.1,1.5-0.4c0.5-0.2,0.8-0.6,1-1.1v-2.1h-1.3
	c-2.1,0-3.2,0.6-3.2,1.9c0,0.5,0.2,0.9,0.5,1.3C483,40.6,483.5,40.7,484,40.7z"/>
<path class="st4" d="M492.8,42h-1.7V27.8h1.7V42z"/>
<path class="st4" d="M498.9,39.5l2.3-7.5h1.8l-4,11.6c-0.6,1.7-1.6,2.5-3,2.5h-0.3l-0.6-0.1v-1.4h0.5c0.5,0,1-0.1,1.4-0.4
	c0.4-0.3,0.7-0.8,0.8-1.3l0.4-1l-3.6-9.9h1.9L498.9,39.5z"/>
<path class="st4" d="M510.5,39.3c0-0.4-0.2-0.8-0.5-1.1c-0.6-0.3-1.2-0.6-1.8-0.7c-0.7-0.1-1.4-0.4-2.1-0.7
	c-0.4-0.2-0.8-0.5-1.1-0.9c-0.2-0.4-0.4-0.8-0.4-1.3c0-0.8,0.4-1.6,1-2.1c0.8-0.6,1.7-0.9,2.7-0.9c1,0,2,0.3,2.8,0.9
	c0.7,0.5,1.1,1.4,1.1,2.2h-1.7c0-0.5-0.2-0.9-0.6-1.2c-0.4-0.3-1-0.5-1.5-0.5c-0.5,0-1,0.1-1.5,0.4c-0.3,0.3-0.5,0.6-0.5,1.1
	c0,0.4,0.2,0.7,0.5,0.9c0.6,0.3,1.2,0.5,1.8,0.6c0.7,0.1,1.4,0.4,2.1,0.7c0.5,0.2,0.9,0.6,1.2,1c0.3,0.4,0.4,0.9,0.4,1.4
	c0,0.9-0.4,1.7-1.1,2.1c-0.8,0.6-1.8,0.9-2.8,0.8c-0.7,0-1.5-0.1-2.1-0.4c-0.6-0.3-1.1-0.7-1.5-1.2c-0.3-0.5-0.5-1.1-0.5-1.7h1.7
	c0,0.5,0.3,1,0.7,1.4c0.5,0.4,1.1,0.5,1.7,0.5c0.6,0,1.1-0.1,1.6-0.4C510.3,40.2,510.5,39.8,510.5,39.3z"/>
<path class="st4" d="M514.4,29.3c0-0.3,0.1-0.5,0.2-0.7c0.2-0.2,0.5-0.3,0.8-0.3c0.3,0,0.6,0.1,0.8,0.3c0.2,0.2,0.3,0.4,0.3,0.7
	c0,0.3-0.1,0.5-0.3,0.7c-0.2,0.2-0.5,0.3-0.8,0.3c-0.3,0-0.6-0.1-0.8-0.3C514.5,29.8,514.4,29.6,514.4,29.3z M516.2,42h-1.7V32h1.7
	V42z"/>
<path class="st4" d="M524.8,39.3c0-0.4-0.2-0.8-0.5-1.1c-0.6-0.3-1.2-0.6-1.8-0.7c-0.7-0.1-1.4-0.4-2.1-0.7
	c-0.4-0.2-0.8-0.5-1.1-0.9c-0.3-0.4-0.4-0.8-0.4-1.3c0-0.8,0.4-1.6,1-2.1c0.8-0.6,1.7-0.9,2.7-0.9c1,0,2,0.3,2.8,0.9
	c0.7,0.5,1.1,1.4,1.1,2.2h-1.7c0-0.5-0.2-0.9-0.6-1.2c-0.4-0.3-1-0.5-1.5-0.5c-0.5,0-1,0.1-1.5,0.4c-0.3,0.3-0.5,0.6-0.5,1.1
	c0,0.4,0.2,0.7,0.5,0.9c0.6,0.3,1.2,0.5,1.8,0.6c0.7,0.1,1.4,0.4,2.1,0.7c0.5,0.2,0.9,0.6,1.2,1c0.3,0.4,0.4,0.9,0.4,1.4
	c0,0.9-0.4,1.7-1.1,2.1c-0.8,0.6-1.8,0.9-2.8,0.8c-0.7,0-1.5-0.1-2.1-0.4c-0.6-0.3-1.1-0.7-1.5-1.2c-0.3-0.5-0.5-1.1-0.5-1.7h1.7
	c0,0.5,0.3,1,0.7,1.4c0.5,0.4,1.1,0.5,1.7,0.5c0.5,0,1.1-0.1,1.6-0.4C524.6,40.2,524.8,39.8,524.8,39.3z"/>
<path class="st4" d="M539.7,42c-0.1-0.3-0.2-0.7-0.2-1.1c-0.7,0.8-1.8,1.3-2.8,1.2c-0.9,0-1.8-0.3-2.4-0.8c-0.6-0.5-1-1.3-1-2.1
	c0-1,0.4-1.9,1.2-2.4c1-0.6,2.2-0.9,3.4-0.9h1.8v-0.8c0-0.5-0.2-1-0.5-1.4c-0.4-0.4-1-0.6-1.6-0.5c-0.5,0-1.1,0.1-1.5,0.5
	c-0.4,0.3-0.6,0.7-0.6,1.1h-1.7c0-0.5,0.2-1,0.5-1.5c0.4-0.5,0.9-0.9,1.4-1.1c0.6-0.3,1.3-0.4,2-0.4c1-0.1,1.9,0.2,2.7,0.9
	c0.7,0.6,1,1.5,1,2.4v4.6c0,0.7,0.1,1.5,0.3,2.2V42H539.7z M536.8,40.7c0.5,0,1.1-0.1,1.5-0.4c0.5-0.2,0.8-0.6,1-1.1v-2.1h-1.3
	c-2.1,0-3.2,0.6-3.2,1.9c0,0.5,0.2,0.9,0.5,1.3C535.8,40.6,536.3,40.7,536.8,40.7L536.8,40.7z"/>
<path class="st4" d="M545.5,32v1.3c0.7-0.9,1.8-1.5,3-1.4c2.1,0,3.2,1.2,3.2,3.6V42H550v-6.6c0-0.6-0.1-1.2-0.5-1.6
	c-0.4-0.4-1-0.6-1.5-0.5c-0.5,0-1,0.1-1.5,0.4c-0.4,0.3-0.8,0.7-1,1.2V42h-1.7V32H545.5z"/>
<path class="st4" d="M553.9,36.9c-0.1-1.3,0.3-2.6,1.1-3.7c1.3-1.6,3.6-1.9,5.3-0.6c0.1,0.1,0.3,0.2,0.4,0.4v-5.2h1.7V42h-1.6
	l-0.1-1.1c-0.7,0.9-1.8,1.3-2.9,1.3c-1.1,0-2.2-0.5-2.8-1.4c-0.8-1.1-1.2-2.4-1.1-3.7L553.9,36.9z M555.6,37.1
	c-0.1,0.9,0.2,1.9,0.7,2.7c0.4,0.6,1.2,1,2,1c1,0,2-0.5,2.4-1.5v-4.6c-0.4-0.9-1.4-1.5-2.4-1.4c-0.8,0-1.6,0.3-2,1
	C555.8,35.1,555.5,36.1,555.6,37.1z"/>
<path class="st4" d="M569.3,36.9c-0.1-1.3,0.3-2.6,1.1-3.7c1.3-1.6,3.6-1.9,5.3-0.6c0.1,0.1,0.3,0.2,0.4,0.4v-5.2h1.7V42h-1.6
	l-0.1-1.1c-0.7,0.8-1.8,1.3-2.9,1.3c-1.1,0-2.2-0.5-2.8-1.4c-0.8-1.1-1.2-2.4-1.1-3.7L569.3,36.9z M571,37.1
	c-0.1,0.9,0.2,1.9,0.7,2.7c0.4,0.7,1.2,1,2,1c1,0,2-0.5,2.4-1.5v-4.6c-0.4-0.9-1.4-1.5-2.4-1.4c-0.8,0-1.6,0.3-2,1
	C571.2,35.1,571,36.1,571,37.1z"/>
<path class="st4" d="M584.6,42.2c-1.3,0-2.5-0.4-3.3-1.4c-0.9-1-1.3-2.3-1.3-3.6v-0.3c0-0.9,0.2-1.8,0.6-2.7
	c0.3-0.8,0.9-1.4,1.6-1.8c0.7-0.4,1.4-0.7,2.2-0.7c1.1-0.1,2.3,0.4,3,1.3c0.8,1.1,1.2,2.4,1.1,3.7v0.7h-6.8c0,0.9,0.3,1.7,0.9,2.4
	c0.5,0.6,1.3,0.9,2.1,0.9c0.5,0,1.1-0.1,1.5-0.4c0.4-0.3,0.8-0.6,1.1-1l1,0.8C587.5,41.5,586.1,42.2,584.6,42.2z M584.4,33.2
	c-0.7,0-1.3,0.3-1.7,0.8c-0.5,0.6-0.8,1.3-0.9,2.1h5v-0.1c0-0.7-0.2-1.4-0.7-2C585.7,33.4,585,33.2,584.4,33.2L584.4,33.2z"/>
<path class="st4" d="M593.7,39.7l2.5-7.7h1.8l-3.6,10H593l-3.6-10h1.8L593.7,39.7z"/>
<path class="st4" d="M603.6,42.2c-1.2,0-2.5-0.4-3.3-1.4c-0.9-1-1.3-2.3-1.3-3.6v-0.3c0-0.9,0.2-1.8,0.6-2.7
	c0.3-0.8,0.9-1.4,1.6-1.8c0.7-0.4,1.4-0.7,2.2-0.7c1.1-0.1,2.2,0.4,3,1.3c0.8,1.1,1.2,2.4,1.1,3.7v0.7h-6.8c0,0.9,0.3,1.7,0.9,2.4
	c0.5,0.6,1.3,0.9,2.1,0.9c0.5,0,1.1-0.1,1.5-0.4c0.4-0.3,0.8-0.6,1.1-1l1,0.8C606.6,41.5,605.1,42.3,603.6,42.2z M603.4,33.2
	c-0.7,0-1.3,0.3-1.7,0.8c-0.5,0.6-0.8,1.3-0.9,2.1h5v-0.1c0-0.7-0.2-1.4-0.7-2C604.7,33.5,604.1,33.2,603.4,33.2L603.4,33.2z"/>
<path class="st4" d="M611.4,42h-1.7V27.8h1.7V42z"/>
<path class="st4" d="M613.7,36.9c0-0.9,0.2-1.8,0.6-2.7c0.4-0.7,0.9-1.4,1.6-1.8c0.7-0.4,1.5-0.7,2.4-0.6c1.3,0,2.5,0.5,3.3,1.4
	c0.9,1,1.3,2.4,1.3,3.8v0.1c0,0.9-0.2,1.8-0.6,2.6c-0.4,0.7-0.9,1.4-1.6,1.8c-0.7,0.4-1.6,0.7-2.4,0.6c-1.3,0-2.5-0.5-3.3-1.4
	c-0.9-1-1.3-2.4-1.3-3.8V36.9z M615.4,37.1c-0.1,1,0.2,1.9,0.8,2.7c0.9,1.1,2.5,1.4,3.7,0.5c0.2-0.1,0.4-0.3,0.5-0.5
	c0.6-0.8,0.8-1.9,0.8-2.9c0-1-0.2-1.9-0.8-2.7c-0.5-0.7-1.3-1-2.1-1c-0.8,0-1.6,0.3-2.1,1C615.6,35.1,615.4,36.1,615.4,37.1
	L615.4,37.1z"/>
<path class="st4" d="M633.5,37.1c0.1,1.3-0.3,2.6-1,3.7c-0.7,0.9-1.7,1.4-2.8,1.4c-1.1,0.1-2.1-0.4-2.9-1.2v4.8H625V32h1.6l0.1,1.1
	c0.7-0.9,1.8-1.4,2.9-1.3c1.1,0,2.2,0.5,2.9,1.4c0.7,1.1,1.1,2.5,1,3.8V37.1z M631.7,36.9c0.1-0.9-0.2-1.9-0.7-2.7
	c-0.5-0.7-1.2-1-2-1c-1,0-1.9,0.5-2.3,1.4v4.8c0.4,0.9,1.4,1.4,2.3,1.4c0.8,0,1.5-0.3,2-1C631.6,38.9,631.8,37.9,631.7,36.9z"/>
<path class="st4" d="M637.2,32l0,1.1c0.7-0.9,1.9-1.4,3-1.3c1.2-0.1,2.3,0.5,2.9,1.6c0.3-0.5,0.8-0.9,1.3-1.2
	c0.6-0.3,1.2-0.5,1.9-0.4c2.2,0,3.3,1.2,3.3,3.5V42H648v-6.6c0-0.6-0.1-1.2-0.5-1.6c-0.5-0.4-1.1-0.6-1.7-0.5
	c-0.6,0-1.1,0.2-1.6,0.6c-0.4,0.4-0.7,1-0.7,1.5V42h-1.7v-6.6c0.2-1-0.5-2-1.6-2.2c-0.2,0-0.4,0-0.6,0c-1-0.1-1.9,0.5-2.3,1.4V42
	h-1.7V32H637.2z"/>
<path class="st4" d="M656.5,42.2c-1.2,0-2.5-0.4-3.3-1.4c-0.9-1-1.4-2.3-1.3-3.6v-0.3c0-0.9,0.2-1.8,0.6-2.7
	c0.3-0.8,0.9-1.4,1.6-1.8c0.7-0.4,1.4-0.7,2.2-0.7c1.1,0,2.2,0.4,3,1.3c0.8,1.1,1.2,2.4,1.1,3.7v0.7h-6.8c0,0.9,0.3,1.7,0.9,2.4
	c0.5,0.6,1.3,0.9,2.1,0.9c0.5,0,1.1-0.1,1.5-0.4c0.4-0.3,0.8-0.6,1.1-1l1,0.8C659.4,41.5,658,42.2,656.5,42.2z M656.2,33.2
	c-0.7,0-1.3,0.3-1.8,0.8c-0.5,0.6-0.8,1.3-0.9,2.1h5v-0.1c0-0.7-0.3-1.4-0.7-2C657.5,33.4,656.9,33.2,656.2,33.2z"/>
<path class="st4" d="M664,32l0.1,1.3c0.7-0.9,1.8-1.5,3-1.4c2.1,0,3.2,1.2,3.2,3.6V42h-1.7v-6.6c0-0.6-0.1-1.2-0.5-1.6
	c-0.4-0.4-1-0.6-1.5-0.5c-0.5,0-1,0.1-1.5,0.4c-0.4,0.3-0.8,0.7-1,1.2V42h-1.7V32H664z"/>
<path class="st4" d="M675.2,29.5V32h1.9v1.3h-1.9v6.2c0,0.3,0.1,0.6,0.2,0.9c0.2,0.2,0.5,0.3,0.8,0.3c0.3,0,0.6,0,0.8-0.1V42
	c-0.4,0.1-0.9,0.2-1.3,0.2c-0.7,0-1.3-0.2-1.7-0.7c-0.4-0.6-0.6-1.3-0.6-2v-6.2h-1.8V32h1.8v-2.4L675.2,29.5z"/>
<path class="st4" d="M523.6,55.9c0-0.9,0.2-1.8,0.6-2.7c0.7-1.5,2.3-2.5,4-2.4c1.3,0,2.5,0.5,3.3,1.4c0.9,1.1,1.3,2.4,1.3,3.8v0.1
	c0,0.9-0.2,1.8-0.6,2.6c-0.3,0.7-0.9,1.4-1.6,1.8c-0.7,0.4-1.6,0.7-2.4,0.6c-1.3,0-2.5-0.5-3.3-1.4c-0.9-1.1-1.3-2.4-1.3-3.8V55.9z
	 M525.3,56.1c0,1,0.2,1.9,0.8,2.7c0.9,1.1,2.5,1.4,3.7,0.5c0.2-0.1,0.3-0.3,0.5-0.5c0.6-0.8,0.8-1.9,0.8-2.9c0-1-0.2-1.9-0.8-2.7
	c-0.5-0.7-1.3-1-2.1-1c-0.8,0-1.5,0.4-2,1C525.6,54.1,525.3,55.1,525.3,56.1z"/>
<path class="st4" d="M535.7,61v-8.7h-1.6V51h1.6v-1c-0.1-0.9,0.3-1.8,0.9-2.5c0.7-0.6,1.5-0.9,2.4-0.9c0.4,0,0.8,0.1,1.2,0.2
	l-0.1,1.4c-0.3-0.1-0.6-0.1-0.9-0.1c-0.5,0-1,0.1-1.3,0.5c-0.3,0.4-0.5,0.9-0.5,1.4v1h2.2v1.3h-2.1V61H535.7z"/>
<path class="st4" d="M552,58.3c0-0.4-0.2-0.8-0.5-1.1c-0.6-0.3-1.2-0.6-1.8-0.7c-0.7-0.1-1.4-0.4-2.1-0.7c-0.5-0.2-0.8-0.5-1.1-0.9
	c-0.3-0.4-0.4-0.8-0.4-1.3c0-0.8,0.4-1.6,1-2.1c0.8-0.6,1.7-0.9,2.7-0.9c1,0,2,0.3,2.8,0.9c0.7,0.5,1.1,1.4,1.1,2.2h-1.7
	c0-0.5-0.2-0.9-0.6-1.2c-0.4-0.3-1-0.5-1.5-0.5c-0.5,0-1,0.1-1.5,0.4c-0.3,0.3-0.5,0.7-0.5,1.1c0,0.4,0.2,0.7,0.5,0.9
	c0.6,0.3,1.2,0.5,1.8,0.6c0.7,0.1,1.4,0.4,2.1,0.7c0.5,0.2,0.9,0.6,1.2,1c0.3,0.4,0.4,0.9,0.4,1.4c0,0.9-0.4,1.7-1.1,2.1
	c-0.8,0.6-1.8,0.9-2.8,0.8c-0.7,0-1.5-0.1-2.1-0.4c-0.6-0.3-1.1-0.7-1.5-1.2c-0.3-0.5-0.5-1.1-0.5-1.7h1.7c0,0.5,0.3,1,0.7,1.4
	c0.5,0.4,1.1,0.5,1.7,0.5c0.5,0,1.1-0.1,1.6-0.4C551.8,59.2,552,58.8,552,58.3z"/>
<path class="st4" d="M559.2,58.5l2.3-7.5h1.9l-4,11.6c-0.6,1.7-1.6,2.5-3,2.5h-0.3l-0.6-0.1v-1.4h0.5c0.5,0,0.9-0.1,1.3-0.4
	c0.4-0.3,0.7-0.8,0.8-1.3l0.4-1l-3.6-9.9h1.9L559.2,58.5z"/>
<path class="st4" d="M570.8,58.3c0-0.4-0.2-0.8-0.5-1.1c-0.6-0.3-1.2-0.6-1.8-0.7c-0.7-0.1-1.4-0.4-2.1-0.7
	c-0.4-0.2-0.8-0.5-1.1-0.9c-0.2-0.4-0.4-0.8-0.4-1.3c0-0.8,0.4-1.6,1-2.1c0.8-0.6,1.7-0.9,2.7-0.9c1,0,2,0.3,2.8,0.9
	c0.7,0.5,1.1,1.4,1.1,2.2h-1.7c0-0.5-0.2-0.9-0.6-1.2c-0.4-0.3-1-0.5-1.5-0.5c-0.5,0-1,0.1-1.5,0.4c-0.3,0.3-0.5,0.6-0.5,1.1
	c0,0.4,0.2,0.7,0.5,0.9c0.6,0.3,1.2,0.5,1.8,0.6c0.7,0.1,1.4,0.4,2.1,0.7c0.5,0.2,0.9,0.6,1.2,1c0.3,0.4,0.4,0.9,0.4,1.4
	c0,0.8-0.4,1.7-1.1,2.1c-0.8,0.6-1.8,0.9-2.8,0.8c-0.7,0-1.5-0.1-2.1-0.4c-0.6-0.3-1.1-0.7-1.5-1.2c-0.3-0.5-0.5-1.1-0.5-1.7h1.7
	c0,0.5,0.3,1,0.7,1.4c0.5,0.4,1.1,0.5,1.7,0.5c0.6,0,1.1-0.1,1.6-0.4C570.6,59.2,570.8,58.8,570.8,58.3z"/>
<path class="st4" d="M577.1,48.5V51h1.9v1.3h-1.9v6.2c0,0.3,0.1,0.6,0.2,0.9c0.2,0.2,0.5,0.3,0.8,0.3c0.3,0,0.6,0,0.8-0.1V61
	c-0.4,0.1-0.9,0.2-1.3,0.2c-0.7,0-1.3-0.2-1.7-0.7c-0.4-0.6-0.6-1.3-0.6-2v-6.2h-1.8V51h1.8v-2.4L577.1,48.5z"/>
<path class="st4" d="M585.1,61.2c-1.2,0-2.5-0.4-3.3-1.4c-0.9-1-1.4-2.3-1.3-3.6v-0.3c0-0.9,0.2-1.8,0.6-2.7
	c0.3-0.8,0.9-1.4,1.6-1.8c0.7-0.4,1.4-0.7,2.2-0.7c1.1-0.1,2.2,0.4,3,1.3c0.8,1.1,1.2,2.4,1.1,3.7v0.7h-6.8c0,0.9,0.3,1.7,0.9,2.4
	c0.5,0.6,1.3,0.9,2.1,0.9c0.5,0,1.1-0.1,1.5-0.4c0.4-0.3,0.8-0.6,1.1-1l1,0.8C588.1,60.5,586.6,61.3,585.1,61.2z M584.9,52.2
	c-0.7,0-1.3,0.3-1.8,0.8c-0.5,0.6-0.8,1.3-0.9,2.1h5v-0.1c0-0.7-0.3-1.4-0.7-2C586.2,52.4,585.6,52.2,584.9,52.2L584.9,52.2z"/>
<path class="st4" d="M592.6,51l0,1.1c0.7-0.9,1.9-1.4,3-1.3c1.2-0.1,2.3,0.5,2.9,1.6c0.3-0.5,0.8-0.9,1.3-1.2
	c0.6-0.3,1.2-0.5,1.9-0.4c2.2,0,3.3,1.2,3.3,3.5V61h-1.7v-6.6c0-0.6-0.1-1.2-0.5-1.6c-0.4-0.4-1-0.6-1.7-0.5
	c-1.2-0.1-2.3,0.9-2.3,2.1V61h-1.7v-6.6c0.2-1-0.5-2-1.6-2.2c-0.2,0-0.4,0-0.6,0c-1-0.1-1.9,0.5-2.3,1.4V61H591V51H592.6z"/>
<path class="st4" d="M613.5,58.3c0-0.4-0.2-0.8-0.5-1.1c-0.6-0.3-1.2-0.6-1.8-0.7c-0.7-0.1-1.4-0.4-2.1-0.7
	c-0.5-0.2-0.8-0.5-1.1-0.9c-0.2-0.4-0.4-0.8-0.4-1.3c0-0.8,0.4-1.6,1-2.1c0.8-0.6,1.7-0.9,2.7-0.9c1,0,2,0.3,2.8,0.9
	c0.7,0.5,1.1,1.4,1.1,2.2h-1.6c0-0.5-0.2-0.9-0.6-1.2c-0.4-0.3-1-0.5-1.5-0.5c-0.5,0-1,0.1-1.5,0.4c-0.3,0.3-0.5,0.7-0.5,1.1
	c0,0.4,0.2,0.7,0.5,0.9c0.6,0.3,1.2,0.5,1.8,0.6c0.7,0.1,1.4,0.4,2.1,0.7c0.5,0.2,0.9,0.6,1.2,1c0.3,0.4,0.4,0.9,0.4,1.4
	c0,0.8-0.4,1.7-1.1,2.1c-0.8,0.6-1.8,0.9-2.8,0.8c-0.7,0-1.5-0.1-2.1-0.4c-0.6-0.3-1.1-0.7-1.5-1.2c-0.3-0.5-0.5-1.1-0.5-1.7h1.7
	c0,0.5,0.3,1,0.7,1.4c0.5,0.4,1.1,0.5,1.7,0.5c0.5,0,1.1-0.1,1.6-0.4C613.3,59.2,613.6,58.8,613.5,58.3z"/>
<path class="st5" d="M80.1,136h-8.9v-1.2l4.7-5.2c0.5-0.6,1-1.2,1.4-1.9c0.3-0.5,0.4-1,0.4-1.5c0-0.6-0.2-1.3-0.6-1.7
	c-0.4-0.5-1.1-0.7-1.7-0.7c-0.7,0-1.5,0.2-2,0.7c-0.5,0.5-0.7,1.3-0.7,2H71c0-1.1,0.4-2.2,1.2-3c0.9-0.8,2-1.2,3.2-1.1
	c1.1-0.1,2.2,0.3,3,1c0.7,0.7,1.1,1.6,1.1,2.6c0,1.3-0.8,2.9-2.5,4.8l-3.6,3.9h6.8L80.1,136z"/>
<path class="st5" d="M90.4,130.2c0.1,1.6-0.2,3.1-1,4.5c-0.7,1-2,1.6-3.2,1.5c-1.2,0.1-2.4-0.5-3.2-1.4c-0.8-1.3-1.2-2.8-1.1-4.3
	v-2.3c-0.1-1.5,0.2-3.1,1-4.4c0.8-1,2-1.5,3.2-1.4c1.2-0.1,2.4,0.4,3.2,1.4c0.8,1.3,1.1,2.8,1,4.3L90.4,130.2z M88.7,127.9
	c0.1-1.1-0.1-2.2-0.6-3.2c-0.4-0.7-1.2-1.1-1.9-1c-0.8-0.1-1.5,0.3-1.9,1c-0.5,0.9-0.7,2-0.6,3v2.8c-0.1,1.1,0.1,2.2,0.6,3.2
	c0.7,1.1,2.1,1.4,3.2,0.7c0.3-0.2,0.5-0.4,0.6-0.6c0.5-1,0.7-2,0.6-3.1L88.7,127.9z"/>
<path class="st5" d="M98.2,136h-1.8v-11.4l-3.5,1.3v-1.6l4.9-1.8h0.3L98.2,136z"/>
<path class="st5" d="M111.7,130.2c0.1,1.6-0.2,3.1-1,4.5c-1.6,1.8-4.3,1.9-6,0.4c-0.1-0.1-0.3-0.3-0.4-0.4c-0.8-1.3-1.2-2.8-1.1-4.3
	v-2.3c-0.1-1.5,0.2-3.1,1-4.4c1.6-1.8,4.4-1.9,6.2-0.3c0.1,0.1,0.2,0.2,0.3,0.3c0.8,1.3,1.2,2.8,1.1,4.3L111.7,130.2z M110,127.9
	c0.1-1.1-0.1-2.2-0.6-3.2c-0.8-1.1-2.3-1.3-3.3-0.5c-0.2,0.1-0.4,0.3-0.5,0.5c-0.5,0.9-0.7,2-0.6,3v2.8c-0.1,1.1,0.1,2.2,0.6,3.2
	c0.7,1.1,2.1,1.4,3.2,0.7c0.3-0.2,0.5-0.4,0.6-0.6c0.5-1,0.7-2,0.6-3.1L110,127.9z"/>
<path class="st5" d="M318.1,136h-8.9v-1.2l4.7-5.2c0.5-0.6,1-1.2,1.4-1.9c0.3-0.5,0.4-1,0.4-1.5c0-0.6-0.2-1.3-0.6-1.7
	c-0.4-0.5-1.1-0.7-1.7-0.7c-0.7,0-1.5,0.2-2,0.7c-0.5,0.5-0.7,1.3-0.7,2H309c0-1.1,0.4-2.2,1.2-3c0.9-0.8,2-1.2,3.2-1.1
	c1.1-0.1,2.2,0.3,3,1c0.7,0.7,1.1,1.6,1.1,2.6c0,1.3-0.8,2.9-2.5,4.8l-3.6,3.9h6.8L318.1,136z"/>
<path class="st5" d="M328.4,130.2c0.1,1.6-0.2,3.1-1,4.5c-0.7,1-2,1.6-3.2,1.5c-1.2,0.1-2.4-0.5-3.2-1.4c-0.8-1.3-1.2-2.8-1.1-4.3
	v-2.3c-0.1-1.5,0.2-3.1,1-4.4c0.8-1,2-1.5,3.2-1.4c1.2-0.1,2.4,0.4,3.2,1.4c0.8,1.3,1.1,2.8,1,4.3V130.2z M326.7,127.9
	c0.1-1.1-0.1-2.2-0.6-3.2c-0.4-0.7-1.2-1.1-1.9-1c-0.8-0.1-1.5,0.3-1.9,1c-0.5,0.9-0.7,2-0.6,3v2.8c-0.1,1.1,0.1,2.2,0.6,3.2
	c0.7,1.1,2.1,1.4,3.2,0.7c0.3-0.2,0.5-0.4,0.6-0.6c0.5-1,0.7-2,0.7-3.1V127.9z"/>
<path class="st5" d="M336.2,136h-1.8v-11.4l-3.5,1.3v-1.6l4.9-1.8h0.3L336.2,136z"/>
<path class="st5" d="M343.8,128.4h1.3c0.7,0,1.4-0.2,1.9-0.6c0.5-0.4,0.7-1,0.7-1.7c0.2-1.1-0.6-2.2-1.8-2.4c-0.2,0-0.4,0-0.6,0
	c-0.7,0-1.3,0.2-1.8,0.6c-0.4,0.4-0.7,1.1-0.7,1.7h-1.7c0-1,0.4-2,1.2-2.7c0.8-0.7,1.9-1.1,3-1.1c1.1-0.1,2.2,0.3,3,1
	c0.8,0.7,1.2,1.8,1.1,2.8c0,0.6-0.2,1.2-0.6,1.7c-0.4,0.6-0.9,1-1.5,1.2c1.4,0.4,2.4,1.7,2.3,3.2c0.1,1.1-0.4,2.1-1.2,2.9
	c-0.9,0.7-2,1.1-3.1,1.1c-1.1,0.1-2.2-0.3-3.1-1c-0.8-0.7-1.2-1.7-1.2-2.7h1.7c0,0.6,0.2,1.3,0.7,1.7c0.5,0.4,1.2,0.7,1.9,0.6
	c0.7,0,1.4-0.2,1.9-0.7c0.5-0.5,0.7-1.2,0.7-1.9c0-0.7-0.2-1.3-0.7-1.8c-0.6-0.5-1.3-0.7-2.1-0.6h-1.3L343.8,128.4z"/>
<path class="st5" d="M558.1,136h-8.8v-1.2l4.7-5.2c0.5-0.6,1-1.2,1.4-1.9c0.3-0.5,0.4-1,0.4-1.5c0-0.6-0.2-1.3-0.6-1.7
	c-0.4-0.5-1.1-0.7-1.7-0.7c-0.7,0-1.5,0.2-2,0.7c-0.5,0.5-0.7,1.3-0.7,2H549c0-1.1,0.4-2.2,1.2-3c0.9-0.8,2-1.2,3.2-1.1
	c1.1-0.1,2.2,0.3,3,1c0.7,0.7,1.1,1.6,1.1,2.6c0,1.3-0.8,2.9-2.5,4.8l-3.6,3.9h6.8L558.1,136z"/>
<path class="st5" d="M568.4,130.2c0.1,1.6-0.2,3.1-1,4.5c-0.7,1-2,1.6-3.2,1.5c-1.2,0.1-2.4-0.5-3.2-1.4c-0.8-1.3-1.2-2.8-1.1-4.3
	v-2.3c-0.1-1.5,0.2-3.1,1-4.4c0.8-1,2-1.5,3.2-1.4c1.2-0.1,2.4,0.4,3.2,1.4c0.8,1.3,1.1,2.8,1,4.3L568.4,130.2z M566.7,127.9
	c0.1-1.1-0.1-2.2-0.6-3.2c-0.4-0.7-1.2-1.1-1.9-1c-0.8-0.1-1.5,0.3-1.9,1c-0.5,0.9-0.7,2-0.6,3v2.8c-0.1,1.1,0.1,2.2,0.6,3.2
	c0.7,1.1,2.1,1.4,3.2,0.7c0.3-0.2,0.5-0.4,0.6-0.6c0.5-1,0.7-2,0.7-3.1L566.7,127.9z"/>
<path class="st5" d="M576.2,136h-1.8v-11.4l-3.5,1.3v-1.6l4.9-1.8h0.3L576.2,136z"/>
<path class="st5" d="M589.5,126c0,0.6-0.2,1.3-0.5,1.8c-0.4,0.5-0.9,0.9-1.4,1.2c0.7,0.3,1.2,0.7,1.7,1.3c0.4,0.6,0.6,1.3,0.6,2
	c0,1.1-0.4,2.1-1.2,2.8c-0.9,0.7-2,1.1-3.1,1c-1.1,0.1-2.2-0.3-3.1-1.1c-0.8-0.7-1.2-1.7-1.2-2.8c0-0.7,0.2-1.4,0.6-2
	c0.4-0.6,1-1.1,1.7-1.3c-0.6-0.3-1.1-0.7-1.4-1.2c-0.4-0.5-0.6-1.1-0.6-1.8c0-1,0.4-2,1.1-2.7c1.7-1.3,4.1-1.3,5.8,0
	C589.1,124,589.5,125,589.5,126z M588.1,132.3c0-0.7-0.2-1.4-0.7-1.9c-1.1-0.9-2.7-0.9-3.7,0c-0.5,0.5-0.7,1.2-0.7,1.9
	c0,0.7,0.2,1.3,0.7,1.8c0.5,0.5,1.2,0.7,1.9,0.7c0.7,0,1.4-0.2,1.9-0.7C587.8,133.6,588.1,133,588.1,132.3L588.1,132.3z
	 M585.5,123.7c-0.6,0-1.2,0.2-1.6,0.6c-0.8,1-0.8,2.4,0,3.4c0.9,0.9,2.4,0.9,3.3,0c0.8-1,0.8-2.4,0-3.3
	C586.7,123.9,586.1,123.7,585.5,123.7L585.5,123.7z"/>
</svg>
