<?xml version="1.0" encoding="utf-8"?>
<!-- Generator: Adobe Illustrator 19.0.1, SVG Export Plug-In . SVG Version: 6.00 Build 0)  -->
<svg version="1.1" id="Layer_1" xmlns="http://www.w3.org/2000/svg" xmlns:xlink="http://www.w3.org/1999/xlink" x="0px" y="0px"
	 viewBox="0 0 960 560" style="enable-background:new 0 0 960 560;" xml:space="preserve">
<style type="text/css">
	.st0{fill:none;stroke:#000000;stroke-miterlimit:10;}
	.st1{fill:#FFFFFF;}
</style>
<g>
	<path class="st0" d="M803,408c0,4.3,0,8.7,0,13c-1.1,0.7-2.5,1.2-3.3,2.2c-2.7,3.2-7.7,4.2-8.6,9c-0.7,1.1-2.6,0.6-3,2.2
		c-0.3,0.2-0.7,0.4-1,0.6c-0.4,0.3-0.8,0.6-1.2,0.8c-1.6,0.4-3.3,0.6-4.8,1.1c-29.9,9.5-59.8,18.9-89.6,28.5
		c-7.5,2.4-15.4,4.1-22.5,7.7c-0.6,0.1-1.2,0.2-1.8,0.4c-1.5,0.2-3,0.1-4,1.6c-0.1,0.2-0.2,0.5-0.3,0.7c-2.3-0.1-3.8,1.2-5,3
		c-1.1,0.1-2.2,0.5-2.9-0.8c1.7-1.7,0.1-2.3-1-3c0-1-0.1-1.9-0.1-2.9c-1-2.8-1.9-5.6-2.9-8.4c-6.2-17.3-12.4-34.6-18.6-51.9
		c-3.7-10.4-7.4-20.7-11.4-32.1c3.2,1.9,5.6,3.3,7.9,4.7c20.8,13,41.3,26.5,62.8,38.2c2.8,1.5,3.4,0.5,4.3-1.5
		c10.6-0.7,21.2-0.9,31.7-2.3c6.4-0.9,13,0.2,19.2-1.7c0,0.9-0.4,1.5-1.2,2c-22.3,14.6-44.6,29.2-66.7,44c-2.3,1.5-5,2.7-5.9,6.2
		C716.4,448.9,759.7,428.4,803,408z M670.4,469.6c-0.3-0.1-0.6-0.3-0.8-0.2c-0.2,0.1-0.3,0.5-0.4,0.7c0.2,0.1,0.5,0.3,0.7,0.2
		C670.2,470.1,670.3,469.8,670.4,469.6z"/>
	<path class="st0" d="M652,566c-11.7,0-23.3,0-35,0c0.4-2.6-1.6-4.3-2.8-6.2c-8.7-13.3-17.4-26.6-26.3-39.9
		c-1.7-2.6-2.8-4.1,1.2-5.8c7.8-3.5,15.3-7.7,22.9-11.6c6.9-3.5,14-6.8,20.8-10.7c6.4-3.7,13.7-5.8,19.3-10.9c1.7-0.3,3.3-0.6,5-0.9
		c-0.8,2.6-1,5.1-1,7.8c-0.1,6.1-0.4,12.2-0.7,18.3C654.4,526.1,653.1,546.1,652,566z"/>
	<path class="st0" d="M685,390c0.8-1.1,2-1.4,3.2-1.9c1-0.1,2.2,0.1,2.8-1.1c0,0,0,0,0,0c2.1-0.1,4.2,0,6.4-0.5
		c18.7-4.3,37.5-8.3,56.1-12.9c5.5-1.3,11.6-1.2,16.6-4.6c1.7,0.1,2.7-0.4,3-2.4c1.2-10.1,2.6-20.3,4-30.4
		c1.9-13.9,4.1-27.7,5.8-41.6c1-8.6,3.3-17.2,2.9-26c0-0.3,0.1-0.5,0.2-0.7c1.4-0.7,1.1-1.9,1-3.1c0.1-1,0.2-1.9,0.2-2.9
		c0.3-0.3,0.7-0.7,1-1c4.4,4,7.6,9,11.1,13.7c1,1.4,1.5,3.4,3.9,3.3c0,26.7,0,53.3,0,80c-3.6,0.1-6.7,1.8-9.7,3.2
		c-5.8,2.6-12.4,3.3-17.4,7.7c-1.2,0.2-2,0.8-1.9,2.1c-0.1,0.3-0.1,0.6-0.1,0.9c-1.2,1.1-1.2,2.1,0.1,3.1
		c-0.1,6.2,0.7,12.2,2.2,18.2c-0.6,0.4-1.3,0.7-1.9,1.1c-1.8-1.5-4-1.3-6.2-1.3c-6.3,0-12.7,0.3-19-0.1c-21.4-1.5-42.7-2.2-64.1-2.8
		L685,390z"/>
	<path class="st0" d="M667.2,473.5c0.6-0.1,1.2-0.2,1.8-0.4c4.2,2.3,8.4,0.2,12.6-0.2c11.1-0.9,22.1-1.9,33.1-3.1
		c13.8-1.5,27.6-3.2,41.4-4.8c15.6-1.7,31.2-3.4,46.9-5c0,5.3,0,10.7,0,16c-5.6,5.1-12.9,7.8-19,13.6c7-0.3,12.9-2.2,19-1.6
		c0,6,0,12,0,18c-8.3,8.1-16.6,16.3-24.9,24.4c-9.4,9.2-18.7,18.4-28.1,27.6c0.1-0.8,0-1.7,0.4-2.4c9.2-18.5,18.4-37,27.6-55.5
		c5.6-11.3,5.4-11.2-7.5-12.1c-12.8-1-25.6-2.6-38.4-4.1c-16.2-1.9-32.5-3.7-48.7-5.9c-5.8-0.8-11.8-0.7-17.4-2.9
		C666.4,474.5,666.8,474,667.2,473.5z"/>
	<path class="st0" d="M652,481c-5.6,5.1-12.9,7.2-19.3,10.9c-6.7,3.9-13.8,7.1-20.8,10.7c-7.6,3.9-15.1,8.1-22.9,11.6
		c-4,1.8-2.9,3.3-1.2,5.8c8.8,13.2,17.6,26.5,26.3,39.9c1.2,1.9,3.2,3.5,2.8,6.2c-7.3,0-14.7,0-22,0c-0.4-0.5-0.7-1.2-1.1-1.6
		c-11.1-10-22-20.2-33.4-29.9c-3.8-3.2-6.6-7.6-11.5-9.5c-3.6-5.2-9.2-8.2-13.5-12.6c-0.9-0.9-1.9-1.5-0.3-2.5
		c16.3,2,32.6,4.1,50.2,6.3c-9.6-8.6-18.1-16.2-26.6-23.9c0.4-0.3,0.7-0.8,1.1-0.9c11.1-1.4,22.2-2.9,33.4-4.2
		c16.2-2,32.4-4,48.6-5.7C645.3,481,648.6,479.7,652,481z"/>
	<path class="st0" d="M803,121c0,13.3,0,26.7,0,40c-6.5,1.4-12.9,2.8-19.4,4.2c-8.4,1.9-16.8,3.9-25.2,5.6c-3,0.6-5.5,0.2-5.9-3.8
		c-0.5-4.1-1.7-8.1-2.4-12.2c-3.2-18.4-6.9-36.7-11.1-55c0-0.7,0.1-1.3,0.1-2C760.4,105.7,781.7,113.3,803,121z"/>
	<path class="st0" d="M739,100c4.2,18.2,7.8,36.6,11.1,55c0.7,4.1,1.9,8.1,2.4,12.2c0.5,4,3,4.4,5.9,3.8c8.4-1.8,16.8-3.8,25.2-5.6
		c6.5-1.4,12.9-2.8,19.4-4.2c0,6.7,0,13.3,0,20c-0.8,0.2-1.6,0.3-2.4,0.7c-21.9,10.9-43.8,21.9-65.7,32.9c-0.7,0.4-1.3,1-1.9,1.5
		c-0.4,0-0.7,0-1.1,0c-0.1-0.5-0.1-0.9-0.2-1.4c7.1-13.9,14.3-27.8,22-42.8c-11.5,5.9-21.6,11-31.7,16.1c-2.7-3.5,0.4-6.6,1-9.8
		c3.6-18.9,7.2-37.9,11.1-56.7C735.7,114.3,735.7,106.8,739,100z"/>
	<path class="st0" d="M803,60c0,14,0,28,0,42c-3-0.9-5.8-2.4-8.3-4.2c-9.6-7-20.2-12.5-30.2-18.9c-13.7-8.7-27.6-17.1-41.5-25.4
		c-6.6-4-12.6-9.1-20.1-11.4c-0.3-0.3-0.6-0.7-1-1c0.3-0.3,0.6-0.5,0.9-0.8c3.1,0.4,6.1,0.8,9.2,1.2c2.2,0.5,4.5,1.3,6.7,1.4
		c4.5,0.2,9.5,1.7,12.3-3.8c1.4,0,2.5-0.4,3.7-1.1c6.9-4.5,14-8.8,20.9-13.3c2.5-1.7,3.1-1.4,3.5,1.7c0.7,6.5,1.8,13,2.7,19.5
		c0.2,1.7,0.6,3,2.9,3.2c5.7,0.5,11.5,1.1,17.2,2C789.6,52.3,798.3,51.5,803,60z"/>
	<path class="st0" d="M568-4c21,0,42,0,63,0c6,7.5,12.1,14.8,17.8,22.4c4.3,5.8,9.2,11.2,13.7,16.8c1,1.2,1.3,1.3,1.5-0.3
		c0.4,0.4,0.7,0.8,1.1,1.1c-0.1,0.6-0.2,1.3-0.3,1.9c-2.3,0.4-4.7-0.6-6.8,0.7c-1,0-1.9,0-2.9,0c-3.1-3.2-7.3-2.3-11-3
		c-20.1-3.7-40.3-7.1-60.5-10.6c-10.9-1.9-21.7-4-32.6-6c-0.3-1-0.7-2-1-3C556,9.3,562,2.7,568-4z"/>
	<path class="st0" d="M652,566c1.1-19.9,2.4-39.9,3.3-59.8c0.3-6.1,0.6-12.2,0.7-18.3c0.1-2.7,0.3-5.3,1-7.8
		c0.3-0.4,0.6-0.8,0.9-1.2c1.2-1.8,2.7-3.1,5-3c0,2.1,1.6,3.2,2.9,4.5c13,12.7,26,25.3,39,38c1.8,1.7,3.5,3.6,5.3,5.2
		c13.4,11.5,24.9,24.9,38,36.6c0,1.6-0.1,3.3-0.1,4.9c0,0.3,0,0.7,0,1c-12.7,0-25.3,0-38,0c-0.1-1.1,0.1-2.5-0.4-3.4
		c-6.2-11.1-12.4-22.1-18.6-33.1c-5.8-10.2-11.2-20.6-17.3-30.7c-3.7-6.3-6.2-13.4-11.7-19.6c-0.4,16.5,1.6,32,2.3,47.5
		c0.3,6.3-0.3,12.7,0.8,18.8c1.2,7,1.2,13.8-1.2,20.5C660,566,656,566,652,566z"/>
	<path class="st0" d="M470,71.5c-20.6,4.4-41.2,8.8-61.8,13.2c-1.3,0.3-2.6,0.2-3.9,0.3c0.3-0.6,0.6-1.2,0.9-1.8
		c0.3-0.3,0.7-0.7,1-1c0.7-0.5,1.1-1.1,1.1-2c0,0,0.1,0,0.1,0c0.6-0.5,1.4-0.9,1.9-1.5c16.1-19.9,32.2-39.8,48.2-59.8
		c6-7.5,12.5-14.6,17.6-22.8c8,0,16,0,24,0c-3.2,4.3-7.5,7.4-11.4,11c-14.3,13.4-28.2,27.2-42.7,40.4c-7.2,6.6-13.8,13.8-21.6,19.9
		c-3.5,2.7-6.4,6.2-9.7,9.6c1.8,1,2.3,0.5,2.8,0.2c12.2-8.5,24.5-17,36.6-25.6c11.6-8.2,23.2-16.5,34.8-24.7
		c0.8-0.6,1.5-0.6,2.1,0.3C483.3,41.8,476.7,56.6,470,71.5z"/>
	<path class="st0" d="M702.8,42c7.5,2.4,13.5,7.5,20.1,11.4c13.9,8.3,27.8,16.7,41.5,25.4c10,6.4,20.6,11.9,30.2,18.9
		c2.5,1.8,5.3,3.3,8.3,4.2c0,6.3,0,12.7,0,19c-21.3-7.7-42.6-15.3-63.9-23c-0.2,0-0.5,0-0.7,0c-0.7-1.3-1.2-2.7-2-4
		c-7.1-10.9-14.2-21.7-21.3-32.6C710.9,55,706.9,48.5,702.8,42z"/>
	<path class="st0" d="M803,460c-15.6,1.7-31.2,3.3-46.9,5c-13.8,1.5-27.6,3.3-41.4,4.8c-11,1.2-22.1,2.2-33.1,3.1
		c-4.2,0.3-8.4,2.5-12.6,0.2c7.1-3.6,15-5.2,22.5-7.7c29.8-9.7,59.7-19.1,89.6-28.5c1.6-0.5,3.2-0.7,4.8-1.1
		c0.4-0.3,0.8-0.6,1.2-0.8c0.3-0.2,0.7-0.4,1-0.6c0.1,0.3,0.3,0.5,0.6,0.6c0.1,1.4,0.3,2.6,1.9,3.2c4.2,1.6,7.8,4.5,12.4,4.8
		C803,448.7,803,454.3,803,460z"/>
	<path class="st0" d="M664,566c2.4-6.7,2.4-13.5,1.2-20.5c-1.1-6.2-0.5-12.6-0.8-18.8c-0.7-15.5-2.7-31-2.3-47.5
		c5.5,6.2,7.9,13.3,11.7,19.6c6,10.1,11.5,20.5,17.3,30.7c6.2,11,12.5,22.1,18.6,33.1c0.5,0.9,0.3,2.3,0.4,3.4
		C694.7,566,679.3,566,664,566z"/>
	<path class="st0" d="M803,60c-4.7-8.5-13.4-7.7-21.2-8.9c-5.7-0.9-11.4-1.5-17.2-2c-2.3-0.2-2.6-1.5-2.9-3.2
		c-0.9-6.5-2-13-2.7-19.5c-0.3-3.1-0.9-3.3-3.5-1.7c-6.9,4.5-14,8.8-20.9,13.3c-1.2,0.8-2.3,1.2-3.7,1.1c0-14.3,0-28.7,0-43
		c1,0,2,0,3,0c5.8,6.2,11.4,12.5,17.4,18.5c2.6,2.6,4.5,6.3,8.5,7.3c3,0,5.9,0.2,8.9,0c11.4-0.9,22.8-1.9,34.3-2.8
		C803,32.7,803,46.3,803,60z"/>
	<path class="st0" d="M484,566c-8.7,0-17.3,0-26,0c-3.1-3.9-6.2-7.7-9.7-11.3c-7.3-7.5-14.5-15.1-21.7-22.7c-0.8-0.9-1.6-1.7-1.6-3
		c0.5,0.1,1.1,0,1.5,0.3c15.3,9.2,30.6,18.4,45.9,27.6c1.6,1,3,2.7,5.7,1.3c-2.9-4.5-6-8.8-8.6-13.3c-3.4-6-8.2-11.1-10.4-17.8
		c18.5,7.2,37.1,14.3,55.5,21.8c8.9,3.6,18.1,6.3,26.6,11c-0.5,3.1-3,2.1-4.8,2.1c-16.3,0.1-32.6,0.1-48.9,0
		C484.2,561.9,482.5,562.4,484,566z"/>
	<path class="st0" d="M750,558c9.4-9.2,18.7-18.4,28.1-27.6c8.3-8.1,16.6-16.3,24.9-24.4c0,17.3,0,34.7,0,52c-17,0.7-34,1.5-51,2.2
		c-1-0.1-2-0.2-3.1-0.3C749.3,559.2,749.6,558.6,750,558z"/>
	<path class="st0" d="M245.2,528c12.6,1.5,24.7,5,37.1,7.4c9.6,1.9,19.1,4.1,28.7,6.2c3.7,8.2,7.3,16.3,11,24.5c-7.3,0-14.7,0-22,0
		c-14.7-10.3-29.3-20.7-44.5-31.3c-0.3,2.4,0.6,3,1.3,3.7c8.1,7.6,16.2,15.2,24.2,22.9c1.5,1.4,3.9,2.2,3.9,4.8c-3,0-6,0-9,0
		c-3.4-4.1-6.6-8.4-10.1-12.4c-6-6.8-10.8-14.7-17.6-20.8c0,0-0.1,0-0.1,0c-0.4-0.7-0.7-1.3-1.1-2c-0.3-0.3-0.7-0.7-1-1
		C245.8,529.2,245.5,528.6,245.2,528z"/>
	<path class="st0" d="M733,216.1c0.6-0.5,1.2-1.2,1.9-1.5c21.9-11,43.8-22,65.7-32.9c0.7-0.4,1.6-0.5,2.4-0.7c0,8.7,0,17.3,0,26
		c-5.3,4.4-10.6,8.9-15.9,13.3c-1.7-0.1-3.4-0.1-5.1-0.2c-0.7,0-1.3,0-2-0.1c-0.7,0-1.3,0-2-0.1c-9.1-0.9-18.2-1.6-27.3-2.2
		C744.8,217.4,738.8,217.8,733,216.1z"/>
	<path class="st0" d="M803,408c-43.3,20.4-86.6,40.9-129.9,61.3c0.9-3.5,3.6-4.7,5.9-6.2c22.2-14.8,44.5-29.4,66.7-44
		c0.8-0.5,1.2-1.1,1.2-2c0,0,0.1-0.2,0.1-0.2c0.7,0,1.3,0,2,0c11.7-3.5,23.4-7.3,35.3-10.4c6.2-1.6,12.1-4.9,18.7-4.6
		C803,404,803,406,803,408z"/>
	<path class="st0" d="M475-4c-5.1,8.2-11.7,15.3-17.6,22.8c-15.9,20.1-32.1,39.9-48.2,59.8c-0.5,0.6-1.2,1-1.9,1.5
		c-0.5-1.4,0.4-2.6,0.9-3.7c4.5-9.4,9.1-18.7,13.6-28.1C430.2,30.9,438.6,13.5,447-4C456.3-4,465.7-4,475-4z"/>
	<path class="st0" d="M154,566c-2-4.1-0.1-5.7,3.8-7.1c27.1-9.7,54.2-19.6,81.3-29.3c0.9-0.3,1.9-0.4,2.9-0.5c0,0.3,0,0.7,0,1l0,0
		c-5.4,3.8-9.5,9.1-14.5,13.5c-8.2,7.1-15.7,15-23.5,22.6C187.3,566,170.7,566,154,566z"/>
	<path class="st0" d="M541,559.9c-8.4-4.7-17.7-7.4-26.6-11c-18.4-7.5-37-14.6-55.5-21.8c0,0,0,0,0,0c5.8-4,12.8-3.8,19.1-6.1
		c3.3-1.2,7.2-0.9,9.8-3.8c1,0,2.1,0,3.1,0c0,1.6,1.4,2.1,2.4,2.9c13.4,10.6,26.7,21.3,40.2,31.7c3.2,2.4,5.8,6.1,10.4,6.4
		c1.4-1,1.1-2.1,0-3.2c0,0,0,0,0,0c-0.8-7.2-3.6-14-5.2-21.1c-1.8-8.3-5-16.3-5.8-24.9c0.6-0.1,1.3-0.1,1.9-0.2
		c0.1,0.3,0.1,0.6,0.2,0.9c-1.5,1.1-0.6,1.6,0.3,2.6c4.3,4.4,9.9,7.5,13.5,12.6c-3.5,1-6.2,0.6-6.8-3.6c-3.6,2.1-4.6,5.4-2.7,8
		c2.2,3,2.6,5.9,2.5,9.2c0,1.9,0.8,3.6,2.1,4.9c1.6,1.5,1.8,3.3,1.9,5.4c0.3,9.4,4.5,13.8,14.1,15.5c0.4,0.1,0.6,1,0.9,1.6
		c-2.3,0-4.7,0-7,0C550.2,562.8,545.7,561.3,541,559.9z"/>
	<path class="st0" d="M490,27c-0.6-0.9-1.3-0.9-2.1-0.3c-11.6,8.2-23.2,16.5-34.8,24.7C440.9,60,428.7,68.5,416.4,77
		c-0.5,0.4-1,0.8-2.8-0.2c3.3-3.3,6.2-6.8,9.7-9.6c7.7-6.1,14.3-13.4,21.6-19.9c14.5-13.2,28.4-27,42.7-40.4
		c3.9-3.6,8.2-6.7,11.4-11c4.3,0,8.7,0,13,0c0,2-1.5,3.3-2.5,4.7c-5.8,7.8-11.7,15.6-17.5,23.3c-1.1,0.7-1,1.9-1.2,2.9
		C490.5,27,490.3,27,490,27z"/>
	<path class="st0" d="M561,566c-0.3-0.6-0.5-1.5-0.9-1.6c-9.6-1.7-13.8-6.1-14.1-15.5c-0.1-2.1-0.3-3.9-1.9-5.4
		c-1.3-1.3-2.1-3-2.1-4.9c0.1-3.3-0.3-6.2-2.5-9.2c-2-2.7-0.9-5.9,2.7-8c0.6,4.3,3.4,4.6,6.8,3.6c4.8,1.9,7.7,6.3,11.5,9.5
		c11.4,9.7,22.3,19.9,33.4,29.9c0.5,0.4,0.8,1.1,1.1,1.6C583.7,566,572.3,566,561,566z"/>
	<path class="st0" d="M759.8,21.9c-4-1-5.9-4.7-8.5-7.3C745.4,8.5,739.8,2.2,734-4c22,0,44,0,66-0.1c2.5,0,3.5,0.6,3,3.1
		c-2.7-0.1-4.9-3.4-7.9-1.4C783.3,5.7,771.6,13.8,759.8,21.9z"/>
	<path class="st0" d="M787.1,220.3c5.3-4.4,10.6-8.9,15.9-13.3c0,9,0,18,0,27c-8.1,10.2-16.2,20.3-24.2,30.5
		c-2.3,2.9-5.6,5.3-5.8,9.5c0,0,0,0,0,0c-0.8,0-1.6,0.2-2,1c-0.1,0.6-0.1,1.1-0.2,1.7c-0.3,0.1-0.7,0.1-1,0.2c-0.3,0-0.5,0-0.8,0
		c0-0.5-0.1-1,0-1.5c4.7-14.3,9.4-28.6,14.2-42.9c0.7-2.2,2.1-4.2,1.7-6.6l0,0c1.2-0.7,1-1.9,1-3
		C786.4,222.1,786.7,221.2,787.1,220.3z"/>
	<path class="st0" d="M322,566c-3.7-8.2-7.3-16.3-11-24.5c8-5.9,15.9-11.8,23.9-17.6c1.3-0.9,2.5-2.2,4.3-2.2
		c-0.4,3.9-0.7,7.9-1.2,11.8c-1.3,10.8-2.7,21.6-4,32.4C330,566,326,566,322,566z"/>
	<path class="st0" d="M664.1,34.9c-0.2,1.6-0.5,1.6-1.5,0.3c-4.5-5.6-9.4-11-13.7-16.8C643.1,10.8,637,3.5,631-4c10.3,0,20.7,0,31,0
		c0,9.8,1,19.6,2.3,29.3C664.2,28.5,664.1,31.7,664.1,34.9z"/>
	<path class="st0" d="M245.2,528c0.3,0.6,0.6,1.2,0.9,1.8c0,2.3,0.2,4.5,0.6,6.8c1.7,9.8,4.9,19.4,5.4,29.4c-9.7,0-19.3,0-29,0
		c2.3-6.7,7-12.3,10-18.6c2.8-5.9,7.4-10.9,9-17.4c0,0,0,0,0,0c0.3-0.4,0.7-0.7,1-1.1C243.7,528.6,244.5,528.3,245.2,528z"/>
	<path class="st0" d="M731-4c0,14.3,0,28.7,0,43c-2.8,5.5-7.8,4-12.3,3.8c-2.3-0.1-4.5-0.9-6.7-1.4c1.3-4,3.1-7.9,3.3-12.2
		c2.4-6.3,4.5-12.6,5.7-19.2c0.3-3.1,3.4-5.4,2.7-8.9c0-0.3,0.1-0.6,0.1-0.8c1.3-1.1,1.7-2.7,2.2-4.3C727.7-4,729.3-4,731-4z"/>
	<path class="st0" d="M759.8,21.9c11.7-8.1,23.5-16.2,35.2-24.2c3-2.1,5.2,1.2,7.9,1.4c0,6.7,0,13.3,0,20c-11.4,1-22.8,1.9-34.3,2.8
		C765.8,22,762.8,21.9,759.8,21.9z"/>
	<path class="st0" d="M803,402c-6.7-0.3-12.5,2.9-18.7,4.6c-11.9,3.1-23.5,6.9-35.3,10.4c5-5,10.5-9.5,16-14
		c3.3-2.7,6.7-5.3,9.3-8.7c0.6-0.4,1.3-0.7,1.9-1.1c8.9-0.4,17.9,0.1,26.8-1.3C803,395.3,803,398.7,803,402z"/>
	<path class="st0" d="M425,529c0,1.3,0.8,2.1,1.6,3c7.2,7.6,14.4,15.2,21.7,22.7c3.5,3.6,6.7,7.4,9.7,11.3c-9,0-18,0-27,0
		c-0.8-8.1-3.3-15.8-5.3-23.7c-0.5-3.9-1.4-7.7-2.9-11.4c0-0.7,0-1.3,0-2C423.5,529,424.2,529,425,529C425,529,425,529,425,529z"/>
	<path class="st0" d="M803,392c-8.9,1.4-17.9,0.9-26.8,1.3c-1.5-6-2.3-12.1-2.2-18.2c0-1,0-2.1-0.1-3.1c0-0.3,0-0.6,0.1-0.9
		c1.5-0.2,2.9,0.1,4.4,0.5c8.2,2.5,16.4,5,24.6,7.5C803,383.3,803,387.7,803,392z"/>
	<path class="st0" d="M334,566c1.3-10.8,2.7-21.6,4-32.4c0.5-3.9,0.8-7.9,1.2-11.8c0.3,0,0.6,0,0.9,0.2c1.7,6.1,3.5,12.1,5.1,18.2
		c2.2,8.7,6.3,16.8,6.9,25.9C346,566,340,566,334,566z"/>
	<path class="st0" d="M447-4c-8.4,17.5-16.8,34.9-25.2,52.4c-4.5,9.4-9.1,18.7-13.6,28.1c-0.6,1.2-1.4,2.3-0.9,3.7c0,0-0.1,0-0.1,0
		c-1.1,0.3-1.2,1.1-1.1,2c-0.3,0.3-0.7,0.7-1,1c-0.5-5.2,2.3-10,1.9-15.2c0,0,0,0,0,0c0.8-0.4,1-1.1,1-1.9
		c2.5-7.1,6.4-13.5,9.7-20.2C426.1,29.2,434.6,12.6,443-4C444.3-4,445.7-4,447-4z"/>
	<path class="st0" d="M691-4c6.3,0,12.7,0,19,0c2.1,1.6,5.1,1,7.1,2.9c0.1,3.5-2.5,6.6-2.1,10.2c-0.2,0.3-0.5,0.7-0.7,1
		c-0.4,0-0.8,0.1-1.2,0.1c-10-0.5-20.1-0.9-30.1-1.4C683.9,3.5,688.8,0.6,691-4z"/>
	<path class="st0" d="M352,566c-0.5-9.1-4.7-17.2-6.9-25.9c-1.5-6.1-3.4-12.1-5.1-18.2c1,1,2,1.9,2.9,2.9c0.4,0.4,0.8,0.7,1.1,1.1
		c0.3,0.3,0.6,0.6,0.9,0.8c0,1.2,0,2.3,0.7,3.3c4.9,7.2,9.8,14.4,14.5,21.7c3,4.6,5.8,9.4,8.8,14.2C363.3,566,357.7,566,352,566z"/>
	<path class="st0" d="M369,566c-2.9-4.7-5.7-9.5-8.8-14.2c-4.8-7.3-9.7-14.5-14.5-21.7c-0.7-1-0.7-2.2-0.7-3.3
		c0.6,0.3,1.3,0.4,1.8,0.8c13.4,12.8,26.8,25.6,40.2,38.3C381,566,375,566,369,566z"/>
	<path class="st0" d="M492,24.1c5.9-7.8,11.8-15.5,17.5-23.3c1-1.4,2.5-2.7,2.5-4.7c5.3,0,10.7,0,16,0c-1.4,3.9-2.8,7.9-4.2,11.8
		c-0.4,0.3-0.7,0.6-1.1,0.9c-1.5,0.2-2.7,1.1-4,1.7C509.7,14.8,501.4,20.6,492,24.1z"/>
	<path class="st0" d="M523.8,7.8c1.4-3.9,2.8-7.9,4.2-11.8c6.3,0,12.7,0,19,0c0,7.3,0.1,14.6,0.1,21.9
		C539,15.4,531.6,11.1,523.8,7.8z"/>
	<path class="st0" d="M242,530c-1.6,6.5-6.2,11.5-9,17.4c-3,6.3-7.7,11.9-10,18.6c-6.3,0-12.7,0-19,0c7.8-7.6,15.3-15.5,23.5-22.6
		C232.5,539.1,236.6,533.8,242,530z"/>
	<path class="st0" d="M664.3,25.3C663,15.6,662,5.8,662-4c3.7,0,7.3,0,11,0c1.3,5,6.3,8,7.1,13.3C675.7,15.5,670.3,20.6,664.3,25.3z
		"/>
	<path class="st0" d="M425.7,542.3c2.1,7.8,4.6,15.6,5.3,23.7c-2.7,0-5.3,0-8,0c-3.7-5-7.9-9.6-12.4-13.9c-1.1-1-3-1.9-1.6-4
		C414.6,546.2,420.1,544.2,425.7,542.3z"/>
	<path class="st0" d="M541,559.9c4.6,1.4,9.2,2.9,13,6.1c-23.3,0-46.7,0-70,0c-1.5-3.6,0.2-4.1,3.4-4.1c16.3,0.1,32.6,0.1,48.9,0
		C538,561.9,540.5,562.9,541,559.9z"/>
	<path class="st0" d="M773,274c0.2-4.2,3.5-6.6,5.8-9.5c8-10.3,16.1-20.4,24.2-30.5c0,5.3,0,10.7,0,16c-4.7,2.7-8.9,5.8-12.2,10.2
		c-1,0-2.1-0.5-2.8,0.8c-0.3,0.3-0.7,0.7-1,1C782.4,266,777.7,270,773,274z"/>
	<path class="st0" d="M752,560.2c17-0.7,34-1.5,51-2.2c0,2.3,0,4.7,0,7c-10,0-20,0-30-0.1C766.1,563.2,758.7,562.9,752,560.2z"/>
	<path class="st0" d="M285,566c-0.1-2.6-2.5-3.4-3.9-4.8c-8-7.7-16.2-15.2-24.2-22.9c-0.7-0.7-1.6-1.3-1.3-3.7
		c15.1,10.7,29.8,21,44.5,31.3C295,566,290,566,285,566z"/>
	<path class="st0" d="M248.4,532.8c6.8,6.1,11.6,14,17.6,20.8c3.5,4,6.7,8.2,10.1,12.4c-4.3,0-8.7,0-13,0
		c-3.8-9.9-8.6-19.3-13.4-28.7C248.8,535.9,247.6,534.6,248.4,532.8z"/>
	<path class="st0" d="M775.9,368.9c5-4.3,11.6-5,17.4-7.7c3-1.4,6.2-3.2,9.7-3.2c0,4.7,0,9.3,0,14c-2.6-0.3-5.3-0.4-7.9-1
		C788.8,369.4,782.2,371.1,775.9,368.9z"/>
	<path class="st0" d="M248.4,532.8c-0.7,1.8,0.5,3.1,1.2,4.5c4.8,9.4,9.6,18.8,13.4,28.7c-3.7,0-7.3,0-11,0
		c-0.4-10-3.7-19.6-5.4-29.4c-0.4-2.3-0.6-4.5-0.6-6.8c0.3,0.3,0.7,0.7,1,1c-0.1,0.9,0,1.7,1.1,2L248.4,532.8z"/>
	<path class="st0" d="M568-4c-6,6.7-12,13.3-18,20c-0.4,0-0.8-0.1-1.2-0.1c1.4-6.6,2.8-13.2,4.2-19.9C558-4,563-4,568-4z"/>
	<path class="st0" d="M680.1,9.3C679.3,4,674.3,1,673-4c6,0,12,0,18,0c-2.2,4.6-7.1,7.5-8.1,12.8C682,9,681,9.1,680.1,9.3z"/>
	<path class="st0" d="M775.9,368.9c6.2,2.2,12.9,0.5,19.2,2.1c2.5,0.7,5.2,0.7,7.9,1c0,2.3,0,4.7,0,7c-8.2-2.5-16.4-4.9-24.6-7.5
		c-1.5-0.5-2.9-0.7-4.4-0.5C773.9,369.6,774.7,369,775.9,368.9z"/>
	<path class="st0" d="M803,488c-6.1-0.7-12,1.3-19,1.6c6.1-5.7,13.5-8.4,19-13.6C803,480,803,484,803,488z"/>
	<path class="st0" d="M409,548.1c-1.4,2.1,0.5,2.9,1.6,4c4.5,4.3,8.7,8.9,12.4,13.9c-3.3,0-13-7.8-15.3-11.3c-1.2-1.9-4-4-0.9-6.6
		C407.6,548.1,408.3,548.1,409,548.1z"/>
	<path class="st0" d="M788,260.9c0.6-1.3,1.8-0.8,2.8-0.8c3.8,2.2,7.6,4,12.2,3.8c0,4.7,0,9.3,0,14c-2.3,0.1-2.8-2-3.9-3.3
		C795.6,269.9,792.4,265,788,260.9z"/>
	<path class="st0" d="M803,264c-4.5,0.2-8.4-1.6-12.2-3.8c3.2-4.4,7.5-7.5,12.2-10.2C803,254.7,803,259.3,803,264z"/>
	<path class="st0" d="M553-4c-1.4,6.6-2.8,13.2-4.2,19.9c-0.6,0.7-1.1,1.4-1.7,2.1c0-7.3-0.1-14.6-0.1-21.9C549-4,551-4,553-4z"/>
	<path class="st0" d="M791.1,432.2c0.9-4.8,5.9-5.8,8.6-9c0.8-1,2.2-1.5,3.3-2.2c0,2.3,0,4.7,0,7
		C799.2,429.8,795.5,431.9,791.1,432.2z"/>
	<path class="st0" d="M803,433c0,2,0,4,0,6c-4.3-0.4-8.9,0.1-12.1-3.9C794.8,433.7,798.9,433.1,803,433z"/>
	<path class="st0" d="M803,433c-4.1,0.1-8.2,0.7-12.1,2.1c-0.7,0-1.5-0.1-2.2-0.1c-0.3-0.1-0.5-0.3-0.6-0.6c0.4-1.6,2.3-1,3-2.2
		c4.3-0.3,8.1-2.4,11.9-4.2C803,429.7,803,431.3,803,433z"/>
	<path class="st0" d="M788.7,435c0.7,0,1.5,0.1,2.2,0.1c3.1,4,7.8,3.5,12.1,3.9c0,1.3,0,2.7,0,4c-4.6-0.3-8.3-3.3-12.4-4.8
		C789.1,437.6,788.8,436.4,788.7,435z"/>
	<path class="st0" d="M717.1-1.1c-2-1.9-5-1.3-7.1-2.9c5.3,0,10.7,0,16,0c-0.5,1.6-0.8,3.2-2.2,4.3C721.6-0.2,719.5-1.5,717.1-1.1z"
		/>
	<path class="st0" d="M773,564.9c10,0,20,0,30,0.1c-0.1,2.2-1.8,0.9-2.5,0.9c-12.2,0.1-24.3,0.1-36.5,0.1c0-0.3,0-0.6,0-1
		C767,565,770,565,773,564.9z"/>
	<path class="st0" d="M764,565c0,0.3,0,0.6,0,1c-5.3,0-10.7,0-16,0c0-0.3,0-0.7,0-1C753.4,565,758.7,565,764,565z"/>
	<path class="st0" d="M657.9,478.8c-0.3,0.4-0.6,0.8-0.9,1.2c-1.7,0.3-3.3,0.6-5,0.9c-3.4-1.2-6.8,0-10,0.4
		c-16.2,1.7-32.4,3.8-48.6,5.7c-11.1,1.4-22.2,2.8-33.4,4.2c-0.4,0.1-0.8,0.6-1.1,0.9c-1.4-3.2-1.4-6.7-1.9-10c-1-7.4-2-14.7-3-22.1
		c0-0.7-0.1-1.4-0.1-2c-0.4-4.2-0.4-8.4-1.3-12.4c-0.8-3.5,0.4-7.3-1.6-10.5c0-1.8,0.1-3.7-0.1-5.5c-2.5-16.5-3.9-33.2-6-49.8
		c-0.8-6-0.8-12.2-2.9-18c0.2-1,0.4-1.9,0.6-2.9c19.4,20.5,39,40.8,58.2,61.5c6.6,7.1,13.4,13.8,19.9,20.9
		c10.9,11.9,21.6,23.9,33.4,34.9c0.4,0.6,0.7,1.2,1.1,1.7C655.7,479.4,656.8,479,657.9,478.8z"/>
	<path class="st0" d="M738.4,98c0.2,0,0.5,0,0.7,0c0,0.7-0.1,1.3-0.1,2c-3.2,6.8-3.3,14.4-4.8,21.6c-4,18.9-7.6,37.8-11.1,56.7
		c-0.6,3.2-3.7,6.2-1,9.8c-0.4,0.3-0.7,0.6-1.1,1c-0.3,0-0.6-0.1-0.9,0c-0.4-0.2-0.7-0.5-1.1-0.7c-1-0.1-2-0.1-2.9-0.2
		c-5.2-1.9-10.6-2.5-16.1-3.1c-0.3-0.1-0.6-0.1-1-0.1c-0.5-0.7-1.3-0.7-2.1-0.6c-2.9-0.7-5.8-1.4-8.7-2
		c-27.7-5.3-55.5-10.8-83.3-15.8c-6.2-1.1-12.3-3.4-18.8-2.6c-1.3-0.2-2.4-0.6-3.2-1.7c3.3-2.6,7.4-3.6,11.2-5.1
		c32.9-13.4,65.8-26.6,98.7-40c14.4-5.9,29-11.3,43.1-17.9C736.8,98.6,737.6,98.3,738.4,98z"/>
	<path class="st0" d="M702.8,40.3c-0.3,0.3-0.6,0.5-0.9,0.8c-0.3,0.1-0.8,0.1-0.9,0.3c-11.6,13-26.5,21.9-39.9,32.7
		c-10.5,8.5-22.1,15.5-33.3,25.1c2.7,0,4.3,0,5.9,0c30.3,0.5,60.5-0.6,90.7-1c1.9,0,4-0.8,5.7,1c-1.9,1.4-4.3,1.6-6.5,1.9
		c-16.6,2.6-33.3,5.1-49.9,7.7c-13.2,2.1-26.4,4.3-39.6,6.3c-16.6,2.6-33.3,5-49.9,7.5c-11.9,1.7-23.7,4.3-35.7,5.3
		c6.7-3.6,14.1-5.1,21-8c1.5-0.6,3-1.2,4.5-1.8c7.9-2,15.3-5.4,23-7.9c2.2-0.7,2.4-1.8,0.9-3.1c-6-5.7-8.7-15.3-19.8-14.9
		c1.8-2,4.7-2.2,3.7-5c3-1.9,6.6-0.4,9.6-2c10.8-5.8,22.8-8.8,33.5-14.9c6.8-3.9,8.4-11.5,12.8-17.2c-9.2,4.7-17.8,10-26.5,15.1
		c-9.1,5.4-18.3,10.6-27.4,15.9c0-1.5,1-2.4,1.9-3.3c7.9-8.3,16.1-16.3,23.7-24.9c4.2-4.8,9.4-8.9,12.5-14.6c2.3,0,4.6-0.1,6.9-0.1
		c2.3-0.3,4.8,0.8,6.9-0.8c0.7,0,1.3,0,2,0c1.8,3-0.8,7.4,3.1,9.8c0.3-0.3,0.7-0.6,1-0.9c0,0,0.5,0,0.5,0l0.5,0
		c0.2,1.4,1.1,1.8,2.4,1.9c17.5,1.2,34.4-0.4,49.5-10.7C697.1,38.9,700.2,37.7,702.8,40.3z M625.7,99.7c-14.3-3.7-15.7-3.1-16.9,6.3
		C614.5,103.9,620.1,101.8,625.7,99.7z"/>
	<path class="st0" d="M653.9,476.3c-11.7-11.1-22.5-23-33.4-34.9c-6.5-7.1-13.4-13.9-19.9-20.9c-19.2-20.7-38.8-41.1-58.2-61.5
		c5.9-14.5,13.3-28.4,20.2-42.4c0.5-1,1-2.4,2.4-0.7c0.3,0.4,0.7,0.8,1,1.2c0,0-0.1-0.1-0.1-0.1c0.3,0.4,0.7,0.7,1,1.1
		c0,0,0-0.1,0-0.1c0,1.5,0.5,2.7,2.2,2.9c0,0,0-0.1,0-0.1c-0.3,1.2-0.2,2.2,0.4,3.3c5.7,10.1,11.3,20.2,17,30.3
		c19.6,35.1,39,70.2,58.7,105.2c2.4,4.3,3.7,9.7,8.5,12.5c0,1,0.1,1.9,0.1,2.9C654,475.4,654,475.8,653.9,476.3z"/>
	<path class="st0" d="M422.8,529c0,0.7,0,1.3,0,2c-2.4,0.4-3.3,2.4-4.8,3.9c-3.8,3.9-6.3,9-11,12.1c2.1-14.1,4.1-28.2,6.3-42.3
		c1.8-11.6,4-23.2,5.5-34.8c0.5-4,2.1-6.4,5.5-8.1c20.3-9.9,40.6-19.8,60.8-29.7c11.9-5.8,23.5-12.3,35.8-17.1c0,0.8-0.2,1.6-1,2
		c-0.3,0.3-0.7,0.7-1,1l0,0c-4.8,3.5-7.9,8.5-11.1,13.3c-0.6-0.1-1.2-0.2-1.8-0.4l0,0c-0.4-1-1.1-1.6-2.1-1.9l0,0
		c-0.3-0.2-0.6-0.5-0.9-0.7c-1-0.5-1.5-1.8-3.2-1.4c0.6,3.7,1.3,7.4,1.9,11.1c-3.1,1.2-3.8,4.4-5.7,6.6
		c-12.4,13.9-24.9,27.8-36.9,42.1c-3.6,4.3-8.2,8.2-10.2,13.7c-1-0.1-2-0.3-2.9-0.4c-1.6-1.6-2.3,0-3.1,0.9
		c-1.6,1.9-3.2,3.8-4.7,5.7c-5,6.5-11,12.3-15.2,19.4c-0.3,0.7-0.6,1.3-0.9,2c0,0.3,0.1,0.6,0.3,0.9L422.8,529z"/>
	<path class="st0" d="M548.4,127.7c12-1,23.8-3.5,35.7-5.3c16.6-2.4,33.3-4.9,49.9-7.5c13.2-2,26.4-4.3,39.6-6.3
		c16.6-2.6,33.3-5.1,49.9-7.7c2.2-0.4,4.6-0.5,6.5-1.9c2,0,4,0,6-0.1c-14.1,6.6-28.7,12.1-43.1,17.9c-32.9,13.4-65.8,26.7-98.7,40
		c-3.8,1.5-7.9,2.5-11.2,5.1c-3.3-0.4-4.8-3.3-7-5.2c-9.8-8.1-19.5-16.5-29.2-24.8c-0.9-0.8-2.3-1.4-2.4-3
		C545.5,127.8,547,128,548.4,127.7z"/>
	<path class="st0" d="M729.9,338.1c-7.4-2-13.9-6.2-20.9-9.3c-18.1-8-35.9-16.6-53.9-24.7c-3.2-1.5-4.7-3.6-5.3-7.1
		c-4.3-24.4-9-48.8-13.3-73.2c-1.6-8.9-4.1-17.7-4.5-26.9c0,0,0.4,0,0.4,0s0.4,0,0.4,0c0.4,0.7,0.7,1.4,1.1,2.1
		c-0.1,1.6,0.5,2.8,1.5,4.1c3,3.7,5.8,7.6,8.8,11.4c-1.4,1.2-2.9,2.4-4.3,3.6c-0.7,0.4-1.8,0.8-1.9,1.3c-0.3,1.2,1,0.7,1.6,1
		c3,1.2,6.5,0,9.4,1.6c1,1.3,2,2.7,2.9,4c12,17.1,24,34.1,36.1,51.2c2.7,3.8,5.7,7.3,7,11.9c-0.1,0.3-0.2,0.7-0.3,1
		c-1,0.8-0.7,1.7,0,2.6c6.4,8.1,11.8,17,18.8,24.7c0.4,0.7,0.6,1.6,1.6,1.7c0.3,0.2,0.6,0.3,0.9,0.5
		C722.3,324.4,726.3,331.1,729.9,338.1z"/>
	<path class="st0" d="M653.9,472.1c-4.8-2.8-6.1-8.1-8.5-12.5c-19.7-35-39.2-70.1-58.7-105.2c-5.6-10.1-11.3-20.2-17-30.3
		c-0.6-1.1-0.7-2.2-0.4-3.3c8.5,7.7,15.2,17,22.8,25.6c8.9,10.1,17.6,20.4,26.4,30.6c0.5,0.6,1.2,1.1,2.7,2.4
		c-2.9-16-5.6-30.9-8.5-46.6c5.2,3.6,8.5,7.7,12.2,11.4c21.1,21.5,42.1,43,63.1,64.6c0.5,0.6,1.3,0.9,2,1.3c0,0,0-0.1,0-0.1
		c-0.1,0.7,0.4,0.9,1,0.9c2.7,2.9,2.3,7.3,5.1,10.2c-0.9,2-1.5,3-4.3,1.5c-21.5-11.8-42-25.2-62.8-38.2c-2.3-1.5-4.7-2.8-7.9-4.7
		c4,11.4,7.7,21.8,11.4,32.1c6.2,17.3,12.4,34.6,18.6,51.9C652,466.5,653,469.3,653.9,472.1z"/>
	<path class="st0" d="M629,41c-2.3,0-4.6,0.1-6.9,0.1c-10.4,0.2-20.7,1-31.1,2.1c-2.4-0.1-4.8-0.4-7,0.8c-3.5,0.3-7.2-0.9-10.5,1
		c-7.1-0.5-14.2,0-21.2,0.4c-1.5,0.1-2.9,0.2-4.4,0.3c-1.7-5.8-0.4-11.8-0.8-17.7c0.9-0.7,0.9-1.4,0-2.1c0-1,0-1.9,0-2.9
		c0.6-0.4,0.6-0.8,0-1.1c0-0.6,0-1.3,0-1.9c1.2-0.8,2.5-1.1,3.9-1c10.9,2,21.7,4.1,32.6,6c20.2,3.6,40.3,7,60.5,10.6
		c3.7,0.7,8-0.2,11,3c-5.7,0.8-8.6,4.8-11.2,9.3l0,0c-0.9,0-1.5,0.3-1.9,1.1c-0.3,0.3-0.7,0.6-1,0.9c-0.2-1.5,0.1-2.9,0.8-4.3
		c3-5.9,2.9-5.9-3.9-5.5c-0.7,0-1.3,0-2,0C633.6,40.2,631.2,39.3,629,41z"/>
	<path class="st0" d="M769.8,276.9c0.3-0.1,0.7-0.1,1-0.2c5.5-1.7,11.1-3.2,14.8-8c0.4,8.8-1.8,17.3-2.9,26
		c-1.7,13.9-3.9,27.7-5.8,41.6c-1.4,10.1-2.7,20.2-4,30.4c-0.2,2-1.3,2.5-3,2.4c-8.1-2.7-16.3-5.5-24.4-8.2c2.8-7.5,5.7-15,8.5-22.5
		c2.2-2.7,3.3-5.9,4-9.2c1.5-1.7,2.3-3.9,2.9-6.1c4.9-8.6,7.5-18.2,11.8-27.1c1.9-4.2,4.3-8.2,5.2-12.9c1.2-1.4,2.5-3,1.6-4.8
		c-1-2.2-2.9-0.2-4.4-0.3C773.5,277.8,771.4,278.7,769.8,276.9z"/>
	<path class="st0" d="M586.2,163.7c6.5-0.8,12.6,1.5,18.8,2.6c27.8,5,55.5,10.5,83.3,15.8c2.9,0.6,5.8,1.3,8.7,2
		c0.6,2.6-1,4.7-2,6.8c-13.1,1.4-26.1,2.7-39.2,4.1c-3.6-1.3-7.2-2.7-10.8-4c-2.6-2.3-5.5-3.8-8.9-4.1c-15.1-7-30.3-14-45.4-21
		C589.1,165.2,587.7,164.5,586.2,163.7z"/>
	<path class="st0" d="M553.9,458c0,0.7,0.1,1.4,0.1,2c-1.9,4.2-1,8.5,0.2,13c-1.6,0-2.9,0-4.3,0c-0.7-0.7-1.7-1.3-1.9-2.1
		c-2-6-5.1-11.4-8-17c-3.1-6-4.6-12.7-9-18c-0.4-4,1.5-7.8,0.7-11.9c2-2.8,1.7-6.2,2.2-9.4c2.7-17.6,5.3-35.3,8-52.9
		c2.1,5.8,2.2,12,2.9,18c2.1,16.6,3.6,33.3,6,49.8c0.3,1.8,0.1,3.7,0.1,5.5c-2.5,0.3-2,2.3-1.9,3.8c0.2,1.9,0,3.9,0.2,5.7
		C549.7,449.3,550.7,454,553.9,458z"/>
	<path class="st0" d="M551,19c-1.4-0.1-2.7,0.2-3.9,1c-0.5,0.4-1.2,0.7-1.6,1.2c-13.6,20.5-27.2,41.1-40.8,61.7
		c-0.7,1.1-0.7,2.2-0.7,3.3c-0.3,0.3-0.6,0.6-0.9,0.8c-0.4,0.4-0.8,0.7-1.1,1.1c-1,1-2,2-2.9,2.9c4.5-15.4,9-30.8,13.5-46.1
		c3.5-12,6.8-24.1,10.2-36.2c0.4-0.3,0.7-0.6,1.1-0.9c7.8,3.3,15.1,7.6,23.3,10.1c0.6-0.7,1.1-1.4,1.7-2.1c0.4,0,0.8,0.1,1.2,0.1
		C550.3,17,550.7,18,551,19z"/>
	<path class="st0" d="M522.8,8.7c-3.4,12.1-6.8,24.1-10.2,36.2c-4.4,15.4-9,30.8-13.5,46.1c0,0-0.4,0.1-0.4,0.1s-0.4,0-0.4,0
		c-1.5-13.9-2.6-27.8-4.5-41.6c-1-7.5-0.8-15.3-2.9-22.7c0.2-1,0.1-2.2,1.2-2.9c9.5-3.4,17.7-9.3,26.8-13.6
		C520.1,9.8,521.3,8.9,522.8,8.7z"/>
	<path class="st0" d="M490.8,27c2.1,7.4,1.9,15.1,2.9,22.7c1.8,13.8,3,27.7,4.5,41.6c-6.9-3-12.1-8.4-18.3-12.4
		c-3.4-2.3-6.6-4.9-10-7.3c6.7-14.8,13.3-29.6,20-44.5C490.3,27,490.5,27,490.8,27z"/>
	<path class="st0" d="M696,421.1c-2.8-2.8-2.3-7.3-5.1-10.2c-0.1-0.5-0.1-1.2-1-0.9c0,0,0,0.1,0,0.1c0.2-5.3-3.2-9.5-4.5-14.3
		c-0.5-1.8-2.9-3.6-0.6-5.7c0,0,0,0.2,0,0.2c11.3,5.7,23.2,9.9,34.7,14.9c9.1,4,18.6,7.1,27.3,11.9c0,0-0.1,0.2-0.1,0.2
		c-6.3,1.9-12.8,0.8-19.2,1.7C717.2,420.2,706.6,420.4,696,421.1z"/>
	<path class="st0" d="M581.9,87c0.9,2.8-1.9,3-3.7,5c11-0.4,13.8,9.2,19.8,14.9c1.4,1.4,1.2,2.4-0.9,3.1c-7.7,2.5-15.1,5.9-23,7.9
		c-2.6-17.3-5.3-34.6-7.9-51.9c1.4,0,1.8,1.1,2.6,2c4.4,4.7,7.7,10.4,13.2,14.1c-0.2,0.8-0.4,1.6-0.5,2.3c-0.2,0.2-0.3,0.4-0.2,0.7
		C581.3,85.7,581.6,86.4,581.9,87z"/>
	<path class="st0" d="M504,86.2c0-1.2,0-2.3,0.7-3.3c13.6-20.6,27.2-41.1,40.8-61.7c0.3-0.5,1-0.8,1.6-1.2c0,0.6,0,1.3,0,1.9
		c0,0.4,0,0.8,0,1.1c0,1,0,1.9,0,2.9c0,0.7,0,1.4,0,2.1c0.4,5.9-0.9,11.9,0.8,17.7c-12.2,10.7-24,21.9-35.5,33.3
		C509.7,81.6,507.1,84.1,504,86.2z"/>
	<path class="st0" d="M745.7,360.8c8.1,2.7,16.3,5.5,24.4,8.2c-5,3.5-11,3.3-16.6,4.6c-18.6,4.5-37.4,8.5-56.1,12.9
		c-2.2,0.5-4.3,0.5-6.4,0.5c11.2-6.5,23.3-11.1,34.9-16.9C732.4,366.8,739,363.9,745.7,360.8z"/>
	<path class="st0" d="M520,417c0.8-0.4,1-1.2,1-2c0.4-0.8,1-1,1.8-0.9c0.4,0.9,0.8,1.8,1.3,2.7c0.6,8.7,3.5,16.8,6.3,24.9
		c0.7,2.1,0.1,4.1-0.6,6.1c-5.6-4.2-11.3-8.5-16.9-12.7c-0.2-2.1,1-3.8,1.8-5.6c1.7-3.7,3.8-7.3,4.3-11.5l0,0
		C519.3,417.7,519.7,417.3,520,417z"/>
	<path class="st0" d="M758.2,329.1c-0.7,3.3-1.8,6.5-4,9.2c-6,0.9-12,1-17.9,2.4c-1.5,0.4-3.7,1.1-4.6-1.4c0.1-0.4,0.3-0.8,0.4-1.2
		C741,335.7,749.1,330.9,758.2,329.1z"/>
	<path class="st0" d="M573.5,45.1c3.3-2,7-0.8,10.5-1c0,1.3-0.7,2.1-1.5,3c-4.3,4.6-8.6,9.2-12.8,13.8c-1,1.1-3,1.9-1.7,4
		c-0.7,0-1.4,0-2.1,0c-3-1.9-0.9-4,0.2-5.4C569.2,55,571.1,49.9,573.5,45.1z"/>
	<path class="st0" d="M732.1,338c-0.1,0.4-0.3,0.8-0.4,1.2c-0.6-0.4-1.2-0.7-1.7-1.1c-3.6-7-7.6-13.7-13.9-18.7
		c5.3,0,10.5,0.3,15.6,1.5c-0.1,0.2-0.1,0.5,0,0.7c-0.6,0.7-0.7,1.5-0.4,2.3c0,0.7,0.1,1.4,0.1,2.2c0.1,0.4,0.3,0.8,0.4,1.3
		C731.9,330.9,732,334.4,732.1,338z"/>
	<path class="st0" d="M407,547c4.7-3.1,7.2-8.2,11-12.1c1.5-1.5,2.4-3.5,4.8-3.9c1.4,3.7,2.4,7.5,2.9,11.4
		c-5.6,1.9-11.1,3.8-16.6,5.7c-0.7,0-1.4,0-2.2,0C406.9,547.7,407,547.4,407,547z"/>
	<path class="st0" d="M565.9,64.9c0.7,0,1.4,0,2.1,0c5.6,1.9,11,4.4,16.8,5.7c-1,3.8-2,7.6-3,11.5c-5.5-3.7-8.8-9.4-13.2-14.1
		c-0.8-0.8-1.2-2-2.6-2C566,65.6,565.9,65.3,565.9,64.9z"/>
	<path class="st0" d="M524.1,416.8c-0.4-0.9-0.8-1.8-1.3-2.7c3.7,0.2,7.3,0.4,11,0.6c-0.5,3.2-0.2,6.6-2.2,9.4
		C529.1,421.7,526.6,419.2,524.1,416.8z"/>
	<path class="st0" d="M636.1,187c3.4,0.4,6.4,1.9,8.9,4.1c-3.7,1.6-7.3,3.3-11,4.9c-0.3,0.3-0.7,0.6-1,0.9l0,0l-0.4,0
		c0,0-0.4,0-0.4,0C632.1,193.1,635,190.4,636.1,187z"/>
	<path class="st0" d="M407,68c0.4,5.2-2.5,10-1.9,15.2c-0.3,0.6-0.6,1.2-0.9,1.8c-4.2,0-6-1.4-3.4-5.7C403.1,75.7,404.3,71.4,407,68
		z"/>
	<path class="st0" d="M569.2,320.8c-1.7-0.3-2.2-1.4-2.2-2.9C568.6,318.3,569.2,319.3,569.2,320.8z"/>
	<path class="st0" d="M691,387c-0.6,1.2-1.8,1-2.8,1.1C688.8,386.9,690,387.1,691,387z"/>
	<path class="st0" d="M408,66.1c0,0.8-0.2,1.5-1,1.9C407,67.2,407.2,66.5,408,66.1z"/>
	<path class="st0" d="M566.1,317c-0.3-0.4-0.7-0.8-1-1.2C565.4,316.1,565.8,316.5,566.1,317z"/>
	<path class="st0" d="M567.1,318c-0.3-0.4-0.7-0.7-1-1.1C566.4,317.3,566.7,317.6,567.1,318z"/>
	<path class="st0" d="M344.2,526c-0.4-0.4-0.8-0.7-1.1-1.1C343.4,525.2,343.8,525.6,344.2,526z"/>
	<path class="st0" d="M243,528.9c-0.3,0.4-0.7,0.7-1,1.1c0-0.3,0-0.7,0-1C242.3,529,242.7,528.9,243,528.9z"/>
	<path class="st0" d="M502,88.1c0.4-0.4,0.8-0.7,1.1-1.1C502.8,87.4,502.4,87.8,502,88.1z"/>
	<path class="st0" d="M750,558c-0.4,0.6-0.7,1.2-1.1,1.9c-0.2,0.1-0.5,0.2-0.7,0.2c-13.2-11.7-24.6-25.2-38-36.6
		c-1.9-1.6-3.6-3.4-5.3-5.2c-13-12.7-26-25.3-39-38c-1.3-1.3-2.9-2.4-2.9-4.5c0-0.3,0.1-0.5,0.3-0.7c0.9,0,1.9,0,2.8-0.1
		c5.6,2.2,11.6,2.1,17.4,2.9c16.2,2.2,32.4,4,48.7,5.9c12.8,1.5,25.6,3.1,38.4,4.1c12.9,1,13.1,0.9,7.5,12.1
		c-9.2,18.5-18.4,37-27.6,55.5C750,556.3,750.1,557.2,750,558z"/>
	<path class="st0" d="M666,475c-0.9,0-1.9,0-2.8,0.1c1-1.5,2.6-1.4,4-1.6C666.8,474,666.4,474.5,666,475z"/>
	<path class="st0" d="M653.9,476.3c0-0.4,0.1-0.8,0.1-1.3c1.1,0.7,2.7,1.3,1,3C654.7,477.4,654.3,476.8,653.9,476.3z"/>
	<path class="st0" d="M670.4,469.6c-0.1,0.2-0.2,0.6-0.5,0.7c-0.1,0.1-0.5-0.1-0.7-0.2c0.1-0.2,0.2-0.6,0.4-0.7
		C669.8,469.3,670.2,469.5,670.4,469.6z"/>
	<path class="st0" d="M787.1,435c-0.4,0.3-0.8,0.6-1.2,0.8C786.3,435.5,786.7,435.3,787.1,435z"/>
	<path class="st0" d="M747,416.9c-8.8-4.8-18.2-7.9-27.3-11.9c-11.5-5.1-23.4-9.3-34.7-14.9c21.4,0.6,42.8,1.3,64.1,2.8
		c6.3,0.4,12.7,0.1,19,0.1c2.2,0,4.4-0.2,6.2,1.3c-2.7,3.3-6.1,6-9.3,8.7c-5.5,4.5-10.9,9-16,14C748.3,417,747.7,416.9,747,416.9z"
		/>
	<path class="st0" d="M785.7,268.7c-3.8,4.9-9.3,6.4-14.8,8c0.1-0.6,0.1-1.1,0.2-1.7c0.8,0,1.6-0.2,2-1c0,0,0,0,0,0
		c4.7-4,9.4-8,14.1-12c-0.1,1-0.2,1.9-0.2,2.9c-0.9,0.8-1,2-1,3.1C785.8,268.2,785.7,268.4,785.7,268.7z"/>
	<path class="st0" d="M785.8,267.9c0-1.1,0-2.3,1-3.1C787,266,787.2,267.2,785.8,267.9z"/>
	<path class="st0" d="M773.9,371.9c0,1,0,2.1,0.1,3.1C772.7,374,772.8,372.9,773.9,371.9z"/>
	<path class="st0" d="M550,473c1.3,0,2.6,0,4.3,0c-1.3-4.5-2.2-8.8-0.2-13c1,7.4,2,14.7,3,22.1c0.5,3.4,0.5,6.8,1.9,10
		c8.5,7.6,17,15.3,26.6,23.9c-17.6-2.2-33.9-4.2-50.2-6.3c-0.1-0.3-0.2-0.6-0.2-0.9c2.3-4.5,7.2-5.8,10.8-8.8
		c3.7-3.1,8.6-4.7,11.2-9.1c0.1-1.7-0.4-2.6-2.1-3.3c-2.3-1-4.1-2.8-3.9-5.7l0,0c3.9-0.1,1.9-2.6,1.1-3.6
		C550.9,476.7,549.9,475.1,550,473z"/>
	<path class="st0" d="M721,189c0.4-0.3,0.7-0.6,1.1-1c10.1-5.1,20.2-10.3,31.7-16.1c-7.7,15-14.9,28.9-22,42.8
		c-0.3,0.1-0.5,0.2-0.8,0.3c-0.3,0-0.6,0-0.9,0c-3-8.3-6-16.7-9-25C721,189.6,721,189.3,721,189z"/>
	<path class="st0" d="M730.1,215c0.3,0,0.6,0,0.9,0c0.3,0.4,0.7,0.8,1,1.1c0.4,0,0.7,0,1.1,0c5.8,1.7,11.8,1.3,17.7,1.7
		c9.1,0.6,18.2,1.2,27.3,2.2c-0.5,2.8-2.7,2-4.4,2c-7.1,0-14.1,1.2-21.1,1.6c-15.9,0.9-31.6,3.6-47.5,3.5c6.1-3.6,13-5.3,19.4-8
		C726.6,218.1,729.4,218,730.1,215z"/>
	<path class="st0" d="M731.9,216.1c-0.3-0.4-0.7-0.8-1-1.1c0.3-0.1,0.5-0.2,0.8-0.3C731.8,215.2,731.9,215.6,731.9,216.1z"/>
	<path class="st0" d="M736,98.9c-2,0-4,0-6,0.1c-1.7-1.7-3.8-1-5.7-1c-30.2,0.4-60.5,1.4-90.7,1c-1.6,0-3.2,0-5.9,0
		c11.2-9.6,22.8-16.6,33.3-25.1c13.4-10.8,28.3-19.6,39.9-32.7c0.2-0.2,0.6-0.2,0.9-0.3c0.3,0.3,0.6,0.7,1,1c4.1,6.5,8,13,12.2,19.4
		c7.1,10.9,14.2,21.7,21.3,32.6c0.8,1.2,1.4,2.6,2,4C737.6,98.3,736.8,98.6,736,98.9z"/>
	<path class="st0" d="M702.8,40.3c-2.6-2.5-5.7-1.4-7.8,0.1c-15.1,10.3-32,11.9-49.5,10.7c-1.3-0.1-2.2-0.5-2.4-1.9
		c0.3-0.1,0.6-0.1,1-0.1c1.6-0.2,3.4-0.1,4.9-0.5c20.8-6.5,41.6-13.1,62.4-19.7c1.5-0.5,2.8-1.2,4,0.5c-0.2,4.3-2,8.2-3.3,12.2
		C708.9,41,705.8,40.7,702.8,40.3z"/>
	<path class="st0" d="M715.3,29.2c-1.2-1.6-2.5-0.9-4-0.5c-20.8,6.6-41.6,13.2-62.4,19.7c-1.5,0.5-3.3,0.4-4.9,0.5
		c0-0.4,0-0.7-0.1-1.1c0,0,0,0,0,0c6-2.5,11.6-5.6,17.1-8.9c1.3-0.3,2.9,0.6,3.8-1.1c0.1-0.6,0.2-1.3,0.3-1.9c2.1,0.1,3.9-0.9,5.6-2
		c6.7-4,13.6-7.4,20.4-11.3c7.3-4.2,15.2-7.4,21.9-12.6c0.4,0,0.8-0.1,1.2-0.1c2.2,0,4.5,0,6.8,0C719.8,16.6,717.7,23,715.3,29.2z"
		/>
	<path class="st0" d="M713,10.2c-6.7,5.3-14.6,8.4-21.9,12.6c-6.7,3.9-13.7,7.3-20.4,11.3c-1.7,1-3.4,2.1-5.6,2
		c-0.4-0.4-0.7-0.8-1.1-1.1c0.1-3.2,0.2-6.4,0.3-9.6c6-4.7,11.4-9.8,15.7-16c1-0.1,1.9-0.3,2.9-0.5C692.9,9.3,703,9.7,713,10.2z"/>
	<path class="st0" d="M661,39c-5.5,3.3-11.1,6.4-17.1,8.9c2.5-4.5,5.5-8.6,11.2-9.3c1,0,1.9,0,2.9,0C659,38.8,660,38.9,661,39z"/>
	<path class="st0" d="M661,39c-1-0.1-2-0.3-3-0.4c2.2-1.3,4.6-0.3,6.8-0.7C664,39.6,662.3,38.7,661,39z"/>
	<path class="st0" d="M748.2,560.1c0.3,0,0.5-0.1,0.7-0.2c1,0.1,2,0.2,3.1,0.3c6.8,2.7,14.1,3,21.1,4.8c-3,0-6,0.1-9,0.1
		c-5.3,0-10.7,0-16-0.1C748.1,563.3,748.1,561.7,748.2,560.1z"/>
	<path class="st0" d="M406.1,82.2c-0.1-0.9,0-1.7,1.1-2C407.2,81.1,406.8,81.7,406.1,82.2z"/>
	<path class="st0" d="M422,528c0.3-0.7,0.6-1.3,0.9-2c1.6,1,3.4,1.1,5.3,1c9.6,0,19.2,0,28.8-0.1c0.6,0,1.3,0,1.9,0.1c0,0,0,0,0,0
		c2.2,6.7,7,11.8,10.4,17.8c2.6,4.5,5.7,8.8,8.6,13.3c-2.7,1.5-4.1-0.3-5.7-1.3c-15.3-9.2-30.6-18.4-45.9-27.6
		c-0.4-0.2-1-0.2-1.5-0.3c0,0,0,0,0,0c-0.5-0.9-1.4-1-2.3-0.8C422.5,528.1,422.2,528,422,528z"/>
	<path class="st0" d="M248.2,532.8c-1.1-0.2-1.2-1.1-1.1-2C247.5,531.5,247.8,532.1,248.2,532.8z"/>
	<path class="st0" d="M705,227c15.9,0.1,31.7-2.6,47.5-3.5c7.1-0.4,14-1.6,21.1-1.6c1.7,0,3.9,0.8,4.4-2c0.7,0,1.3,0,2,0.1
		c0.4,0.8,1.2,0.9,2,1c0,0.9,0,1.7,0,2.6c-13.1,7.7-26.2,15.5-39.4,23c-5.4,3-10.2,7.5-16.6,8.6c-7.7-9-15.9-17.6-23-27.1
		C703.6,227.7,704.3,227.4,705,227z"/>
	<path class="st0" d="M782,223.6c0-0.9,0-1.7,0-2.6c0-0.3,0-0.6,0-0.9c1.7,0.1,3.4,0.1,5.1,0.2c-0.4,0.9-0.7,1.8-1.1,2.6
		c-1.2,0.7-1,1.9-1,3c0,0,0,0,0,0c-0.7-0.1-1.4-0.1-2.1-0.2C783,224.9,782.9,224.1,782,223.6z"/>
	<path class="st0" d="M782,220.1c0,0.3,0,0.6,0,0.9c-0.8,0-1.6-0.2-2-1C780.7,220.1,781.3,220.1,782,220.1z"/>
	<path class="st0" d="M544,558.1c-4.5-0.4-7.2-4-10.4-6.4c-13.5-10.4-26.8-21.1-40.2-31.7c-1-0.8-2.4-1.3-2.4-2.9
		c1.3-1.9,2.5-3.9,4-5.7c5.9-7.3,10-15.9,16.6-22.6c0.9,0.2,1.9,0.3,2.4,1.2c0.8,2.2,1.3,4.4,2.3,6.5c7.1,15.9,14.1,31.7,21.4,47.5
		c1.8,3.8,2.8,8.2,6.4,11c0,0,0,0,0,0C544,556,544,557.1,544,558.1z"/>
	<path class="st0" d="M511.6,488.7c-6.6,6.8-10.7,15.3-16.6,22.6c-1.4,1.8-2.7,3.8-4,5.7c-1,0-2.1,0-3.1,0c-3.7-1.7-7.3-3.3-11-5
		c7-15.3,13.9-30.7,21.2-45.8c2.1-4.5,2.7-9.8,6.8-13.3c2.8,11.6,5.6,23.2,7.1,35C511.9,488.2,511.7,488.5,511.6,488.7z"/>
	<path class="st0" d="M476.9,512.1c3.7,1.7,7.3,3.3,11,5c-2.6,2.9-6.5,2.6-9.8,3.8c-6.3,2.3-13.4,2.1-19.1,6.1c-0.6,0-1.3,0-1.9-0.1
		c0.1-1.8-0.8-3.2-1.4-4.7c-3.1-7.5-7.3-14.5-9.7-22.3c1,0.1,2,0.3,2.9,0.4C458,504.8,467.4,508.6,476.9,512.1z"/>
	<path class="st0" d="M511.6,488.7c0.1-0.3,0.3-0.5,0.5-0.7c1.1-1.8,2.8-1.1,4.4-1c13.5,1.5,27,3.5,40.6,4c-2.6,4.4-7.5,6-11.2,9.1
		c-3.6,3-8.5,4.2-10.8,8.8c-0.6,0.1-1.3,0.1-1.9,0.2c-2.9-2-5.1-4.6-7.3-7.3c-3.5-4.3-7.3-8.4-11.8-11.7
		C513.5,489.1,512.5,488.9,511.6,488.7z"/>
	<path class="st0" d="M514,490c4.4,3.4,8.2,7.5,11.8,11.7c2.2,2.7,4.4,5.3,7.3,7.3c0.9,8.6,4,16.6,5.8,24.9
		c1.5,7.1,4.3,13.8,5.2,21.1c-3.6-2.8-4.7-7.2-6.4-11c-7.3-15.8-14.3-31.6-21.4-47.5C515.3,494.4,514.8,492.2,514,490z"/>
	<path class="st0" d="M544,558.1c0-1.1,0-2.1,0-3.2C545.2,556,545.5,557.1,544,558.1z"/>
	<path class="st0" d="M782.8,225.8c0.7,0.1,1.4,0.1,2.1,0.2c0.4,2.5-0.9,4.5-1.7,6.6c-4.8,14.3-9.5,28.6-14.2,42.9
		c-0.1,0.5,0,1,0,1.5c1.5,4.4,6.6,3.3,9,6.1c-0.9,4.6-3.3,8.7-5.2,12.9c-10.6,4.2-21.2,8.4-31.8,12.5c-7.7,3-14.8,7.3-23.1,8.6
		c0.2-0.3,0.2-0.7,0.5-0.9c13.1-10,26.2-20,39.3-30.1c2.6-2,5.5-3.8,8.3-7.4c-6.4,1.4-11.6,2.8-16.9,3.7c-7.8,1.4-15.3,4.3-23.3,4.6
		c6.2-6.9,12.3-13.9,18.6-20.7c12.2-13.1,24.4-26.2,36.7-39.2c0.8,0,1.5-0.3,1.8-1.1L782.8,225.8z"/>
	<path class="st0" d="M778.1,283.1c-2.5-2.9-7.6-1.8-9-6.1c0.3,0,0.5,0,0.8,0c1.6,1.8,3.7,0.9,5.6,1c1.5,0.1,3.3-1.9,4.4,0.3
		C780.6,280,779.3,281.7,778.1,283.1z"/>
	<path class="st0" d="M785,226c0-1.1-0.2-2.3,1-3C786,224.1,786.2,225.3,785,226z"/>
	<path class="st0" d="M773,274c-0.4,0.8-1.1,1-2,1C771.4,274.2,772.2,274,773,274z"/>
	<path class="st0" d="M717.1-1.1c2.4-0.3,4.5,1,6.8,1.4c0,0.3-0.1,0.6-0.1,0.8c-2.9,2.6-5.8,5.3-8.7,7.9
		C714.6,5.4,717.1,2.4,717.1-1.1z"/>
	<path class="st0" d="M715,9c2.9-2.6,5.8-5.3,8.7-7.9c0.7,3.5-2.4,5.8-2.7,8.9c-2.3,0-4.5,0-6.8,0C714.5,9.7,714.7,9.3,715,9z"/>
	<path class="st0" d="M422.7,528.2c0.9-0.1,1.8-0.1,2.3,0.8c-0.7,0-1.5,0-2.2,0c0,0-0.4-0.2-0.4-0.2
		C422.6,528.7,422.7,528.5,422.7,528.2z"/>
	<path class="st0" d="M553.9,458c-3.1-3.9-4.2-8.7-4.6-13.5c-0.2-1.8,0-3.8-0.2-5.7c-0.1-1.5-0.6-3.5,1.9-3.8
		c1.9,3.3,0.7,7,1.6,10.5C553.5,449.6,553.5,453.8,553.9,458z"/>
	<path class="st0" d="M721,189c0,0.3,0,0.7,0,1c-7.7,11.8-12.5,25.1-19.2,37.4c-12.3-1.3-24.5-2.7-36.8-4c-5.3-0.5-10.6-1.7-16-1.5
		c-3-1.6-6.4-0.4-9.4-1.6c-0.6-0.2-1.9,0.3-1.6-1c0.1-0.5,1.2-0.9,1.9-1.3c1-0.1,2-0.1,2.9-0.4c22.5-8.6,45.1-17.1,67.9-24.9
		c2.4-0.8,4.6-1.9,5.4-4.6c1,0.1,2,0.1,2.9,0.2c0.4,0.2,0.7,0.5,1.1,0.7C720.4,188.9,720.7,188.9,721,189z"/>
	<path class="st0" d="M716.1,188c-0.8,2.7-2.9,3.8-5.4,4.6c-22.8,7.8-45.4,16.3-67.9,24.9c-0.9,0.3-1.9,0.3-2.9,0.4
		c1.4-1.2,2.9-2.4,4.3-3.6c1.5-0.4,3-0.8,3.8-2.3c6.2-2.7,11.4-7.1,17.3-10.4c1-0.6,1.9-1.3,1.8-2.7c7.1,0,39.3-6.7,42.6-8.8
		c-5-1-9.8,1.5-14.7,0.8c1-2.2,2.6-4.2,2-6.8c0.8-0.1,1.5,0,2.1,0.6c0.2,0.8,0.5,0.9,1,0.1C705.5,185.5,710.9,186.1,716.1,188z"/>
	<path class="st0" d="M720.1,189c-0.4-0.2-0.7-0.5-1.1-0.7C719.4,188.5,719.7,188.7,720.1,189z"/>
	<path class="st0" d="M700,184.9c-0.4,0.8-0.7,0.7-1-0.1C699.4,184.8,699.7,184.9,700,184.9z"/>
	<path class="st0" d="M581.8,82c1-3.8,2-7.6,3-11.5c2-9.1,5.1-18,6.1-27.4c10.3-1,20.7-1.9,31.1-2.1c-3.1,5.7-8.3,9.8-12.5,14.6
		c-7.6,8.6-15.8,16.6-23.7,24.9c-0.9,1-1.9,1.9-1.9,3.3c0,0,0,0,0,0c-0.7,0-1.4,0.1-2.1,0.1c-0.2,0.1-0.4,0.2-0.6,0.3
		C581.4,83.6,581.6,82.8,581.8,82z"/>
	<path class="st0" d="M581.9,87c-0.3-0.7-0.6-1.3-0.9-2c0.2-0.1,0.4-0.1,0.6-0.2c0.9,0.1,1.8,0.1,2.3-0.9c0,0,0,0,0,0
		c9.1-5.3,18.3-10.5,27.4-15.9c8.7-5.1,17.3-10.4,26.5-15.1c-4.5,5.6-6.1,13.3-12.8,17.2c-10.7,6.1-22.7,9.1-33.5,14.9
		C588.5,86.6,584.9,85.2,581.9,87z"/>
	<path class="st0" d="M625.7,99.7c-5.6,2.1-11.1,4.2-16.9,6.3C609.9,96.6,611.4,96,625.7,99.7z"/>
	<path class="st0" d="M637.9,40.2c6.8-0.4,6.8-0.3,3.9,5.5c-0.7,1.4-0.9,2.8-0.8,4.3C637.1,47.6,639.7,43.2,637.9,40.2z"/>
	<path class="st0" d="M629,41c2.1-1.7,4.6-0.8,6.9-0.8C633.8,41.8,631.3,40.7,629,41z"/>
	<path class="st0" d="M643.9,47.9c0,0.4,0,0.7,0.1,1.1c-0.3,0-0.6,0-1,0.1c0,0-0.5,0-0.5,0s-0.5,0-0.5,0
		C642.4,48.2,643.1,47.9,643.9,47.9z"/>
	<path class="st0" d="M476.9,512.1c-9.5-3.5-18.9-7.3-28-11.7c2-5.6,6.6-9.4,10.2-13.7c12-14.3,24.5-28.2,36.9-42.1
		c1.9-2.2,2.7-5.4,5.7-6.6c1.6,4.9,2.3,10,3.2,15c-4.1,3.5-4.6,8.8-6.8,13.3C490.9,481.4,484,496.8,476.9,512.1z"/>
	<path class="st0" d="M505,453c-0.9-5-1.6-10.1-3.2-15c-0.6-3.7-1.3-7.4-1.9-11.1c1.7-0.4,2.3,0.9,3.2,1.4c0.3,0.2,0.6,0.5,0.9,0.7
		c0,0,0,0,0,0c0.1,1.3,0.8,2,2.1,1.9c0,0,0,0,0,0c-0.1,1.3,0.6,2.2,1.4,3.1c11.8,13.5,23.5,27,35.5,40.3c2.5,2.7,3.6,7,8,7.7
		c-0.2,2.9,1.6,4.7,3.9,5.7c1.7,0.7,2.3,1.7,2.1,3.3c-13.6-0.5-27.1-2.5-40.6-4c-1.6-0.2-3.2-0.8-4.4,1
		C510.5,476.2,507.7,464.6,505,453z"/>
	<path class="st0" d="M446,500c2.4,7.8,6.6,14.8,9.7,22.3c0.6,1.5,1.5,3,1.4,4.7c-9.6,0-19.2,0-28.8,0.1c-1.8,0-3.6-0.1-5.3-1
		c4.2-7.1,10.2-12.8,15.2-19.4c1.5-2,3.1-3.9,4.7-5.7C443.6,499.9,444.4,498.4,446,500z"/>
	<path class="st0" d="M551,482c-4.4-0.8-5.6-5-8-7.7c-12-13.3-23.7-26.9-35.5-40.3c-0.8-0.9-1.5-1.8-1.4-3.1
		c0.6,0.1,1.2,0.2,1.8,0.4c1.3,1.8,3.2,2.8,5.1,3.9c5.6,4.2,11.3,8.5,16.9,12.7c3.1,4.6,6.6,9,9.2,13.9
		C542.8,468.6,548.3,474.5,551,482L551,482z"/>
	<path class="st0" d="M512.9,435.1c-1.9-1-3.8-2.1-5.1-3.9c3.3-4.8,6.4-9.7,11.1-13.3c-0.5,4.2-2.5,7.8-4.3,11.5
		C513.9,431.3,512.8,433,512.9,435.1z"/>
	<path class="st0" d="M506.1,430.9c-1.3,0.1-2-0.6-2.1-1.9C504.9,429.4,505.7,429.9,506.1,430.9z"/>
	<path class="st0" d="M504,429c-0.3-0.2-0.6-0.5-0.9-0.7C503.4,428.6,503.7,428.8,504,429z"/>
	<path class="st0" d="M520,417c-0.3,0.3-0.7,0.7-1,1C519.3,417.7,519.7,417.3,520,417z"/>
	<path class="st0" d="M422.7,528.2c0,0.3-0.1,0.5-0.3,0.7c-0.2-0.3-0.3-0.6-0.3-0.9C422.2,528,422.5,528.1,422.7,528.2z"/>
	<path class="st0" d="M649,221.9c5.4-0.2,10.7,1,16,1.5c0.1,0.9,0.8,1.3,1.4,1.9c16.8,13.6,33.7,27.1,50.5,40.7
		c-7.3,7.7-14.6,15.3-22,23c-1.3-4.6-4.3-8.1-7-11.9c-12-17.1-24-34.1-36.1-51.2C651,224.5,650,223.2,649,221.9z"/>
	<path class="st0" d="M718,317.1c8.3-1.4,15.4-5.7,23.1-8.6c10.6-4.1,21.2-8.3,31.8-12.5c-4.3,8.9-7,18.5-11.8,27.1
		c-9.8-0.9-19.5-2.3-29.4-2.1c-5.2-1.1-10.4-1.4-15.6-1.5c-0.3-0.2-0.6-0.3-0.9-0.5C716,318.3,717,317.7,718,317.1z"/>
	<path class="st0" d="M718,317.1c-1,0.6-2,1.3-3,1.9c-1-0.1-1.2-1-1.6-1.7c1.3-0.5,2.1-1.4,2.6-2.8c2.9-8.8,6-17.7,9-26.5
		c0-0.3,0.1-0.7,0.1-1c0.3,0,0.6,0,0.9,0c8-0.3,15.5-3.1,23.3-4.6c5.3-1,10.5-2.3,16.9-3.7c-2.7,3.7-5.6,5.4-8.3,7.4
		c-13.1,10.1-26.2,20.1-39.3,30.1C718.3,316.4,718.2,316.8,718,317.1z"/>
	<path class="st0" d="M725,288c-3,8.8-6,17.6-9,26.5c-0.5,1.4-1.2,2.3-2.6,2.8c-7-7.7-12.4-16.6-18.8-24.7c-0.7-0.8-1-1.7,0-2.6
		C704.9,289.6,714.8,287.7,725,288z"/>
	<path class="st0" d="M725,288c-10.1-0.3-20.1,1.7-30.3,1.9c0.1-0.3,0.2-0.7,0.3-1c7.3-7.7,14.6-15.3,22-23c3.2-2.2,5.3-5.5,8.1-8.1
		c1.6,1.3,1,3,0.9,4.6c-0.2,8.2-0.6,16.3-0.9,24.5C725.1,287.3,725,287.7,725,288z"/>
	<path class="st0" d="M667.1,199c0.1,1.4-0.7,2.1-1.8,2.7c-5.9,3.3-11.1,7.6-17.3,10.4c0-1.4-0.8-2.4-1.9-3.3
		c-4.1-3.3-8.1-6.5-12.2-9.8c-0.4-0.7-0.7-1.4-1.1-2.1c0,0,0,0,0,0c0.7,0,1.4,0,2.1,0c9.1-0.8,18,1.3,27.1,1
		C663.8,198.3,665.5,198.7,667.1,199z"/>
	<path class="st0" d="M634,199c4.1,3.3,8.1,6.5,12.2,9.8c1.1,0.8,1.8,1.9,1.9,3.3c-0.8,1.5-2.3,2-3.8,2.3c-2.9-3.8-5.7-7.6-8.7-11.4
		C634.5,201.8,633.9,200.6,634,199z"/>
	<path class="st0" d="M690,410c0.9-0.3,0.8,0.4,1,0.9C690.4,410.8,689.9,410.7,690,410z"/>
	<path class="st0" d="M591,43.2c-1,9.4-4.2,18.2-6.1,27.4c-5.8-1.2-11.2-3.8-16.8-5.7c-1.3-2.1,0.6-2.9,1.7-4
		c4.2-4.6,8.5-9.2,12.8-13.8c0.8-0.9,1.5-1.8,1.5-3C586.2,42.7,588.6,43.1,591,43.2z"/>
	<path class="st0" d="M547.1,28c0-0.7,0-1.4,0-2.1C548,26.6,548,27.3,547.1,28z"/>
	<path class="st0" d="M547.1,23.1c0-0.4,0-0.8,0-1.1C547.7,22.3,547.7,22.7,547.1,23.1z"/>
	<path class="st0" d="M731.6,320.9c9.9-0.1,19.6,1.3,29.4,2.1c-0.6,2.2-1.3,4.3-2.9,6.1c-9.1,1.8-17.1,6.6-26,8.9
		c-0.1-3.5-0.2-7.1-0.3-10.6c-0.1-0.4-0.3-0.8-0.4-1.3c0-0.7-0.1-1.4-0.1-2.2c0.6-0.7,0.6-1.5,0.4-2.3
		C731.5,321.4,731.5,321.1,731.6,320.9z"/>
	<path class="st0" d="M667.1,199c-1.7-0.3-3.4-0.7-5.1-1c-2.1-1-4.2-1.9-6.3-2.9c13.1-1.4,26.1-2.7,39.2-4.1c5,0.6,9.8-1.8,14.7-0.8
		C706.4,192.3,674.2,199,667.1,199z"/>
	<path class="st0" d="M655.8,195.1c2.1,1,4.2,1.9,6.3,2.9c-9,0.3-18-1.7-27.1-1c-0.3-0.3-0.7-0.7-1-1c3.7-1.6,7.3-3.3,11-4.9
		C648.6,192.4,652.2,193.8,655.8,195.1z"/>
	<path class="st0" d="M551,482c-2.7-7.5-8.2-13.3-12-20.2c-2.7-4.9-6.1-9.3-9.2-13.9c0.6-2,1.3-4,0.6-6.1c0.2-1.9,0.4-3.9,0.6-5.8
		c4.4,5.3,5.9,12,9,18c2.9,5.5,6,11,8,17c0.3,0.8,1.3,1.4,1.9,2.1c0,2.1,1,3.7,2.2,5.3C552.9,479.4,554.9,481.9,551,482z"/>
	<path class="st0" d="M531,436c-0.2,1.9-0.4,3.9-0.6,5.8c-2.9-8.1-5.7-16.3-6.3-24.9c2.5,2.4,5.1,4.9,7.6,7.3
		C532.5,428.1,530.6,432,531,436z"/>
	<path class="st0" d="M581.7,84.8c-0.2,0.1-0.4,0.1-0.6,0.2c0-0.3,0.1-0.5,0.2-0.7c0.2-0.1,0.4-0.2,0.6-0.3
		C581.8,84.3,581.7,84.6,581.7,84.8z"/>
	<path class="st0" d="M731.7,321.6c0.2,0.8,0.3,1.6-0.4,2.3C731,323.1,731.1,322.3,731.7,321.6z"/>
	<path class="st0" d="M731.4,326.1c0.1,0.4,0.3,0.8,0.4,1.3C731.7,326.9,731.5,326.5,731.4,326.1z"/>
	<path class="st0" d="M634,196c0.3,0.3,0.7,0.7,1,1c-0.7,0-1.4,0-2.1,0C633.3,196.6,633.6,196.3,634,196z"/>
	<path class="st0" d="M701.8,227.4c6.7-12.3,11.5-25.6,19.2-37.4c3,8.3,6,16.7,9,25c-0.7,3-3.5,3.1-5.7,4c-6.5,2.7-13.3,4.4-19.4,8
		c-0.7,0.4-1.4,0.7-2.1,1.1C702.6,227.8,702.2,227.6,701.8,227.4z"/>
	<path class="st0" d="M701.8,227.4c0.4,0.2,0.7,0.5,1.1,0.7c7.1,9.5,15.3,18.1,23,27.1c-0.3,0.9-0.6,1.8-0.9,2.7
		c-2.8,2.6-4.8,5.9-8.1,8.1c-16.8-13.6-33.6-27.2-50.5-40.7c-0.7-0.5-1.3-1-1.4-1.9C677.3,224.7,689.6,226,701.8,227.4z"/>
	<path class="st0" d="M725,257.9c0.3-0.9,0.6-1.8,0.9-2.7c6.5-1.1,11.2-5.5,16.6-8.6c13.3-7.4,26.3-15.3,39.4-23
		c0.9,0.5,1,1.3,0.8,2.1c0,0,0.1,0.1,0.1,0.1c-0.8,0-1.4,0.3-1.8,1.1c-12.2,13.1-24.5,26.1-36.7,39.2c-6.3,6.8-12.4,13.8-18.6,20.7
		c-0.3,0-0.6,0-0.9,0c0.3-8.2,0.6-16.3,0.9-24.5C726,260.9,726.6,259.2,725,257.9z"/>
	<path class="st0" d="M781.2,227c0.3-0.8,1-1.1,1.8-1.1C782.6,226.7,781.9,226.9,781.2,227z"/>
	<path class="st0" d="M581.7,84.8c0-0.3,0.1-0.5,0.2-0.8c0.7,0,1.4-0.1,2.1-0.1C583.5,84.9,582.6,85,581.7,84.8z"/>
</g>
<path class="st1" d="M151-5"/>
<path class="st1" d="M907,255"/>
<polyline class="st0" points="387,566 419.8,565.5 406.9,548.1 340.1,522 "/>
</svg>
