<?xml version="1.0" encoding="utf-8"?>
<!-- Generator: Adobe Illustrator 19.0.1, SVG Export Plug-In . SVG Version: 6.00 Build 0)  -->
<svg version="1.1" id="Layer_1" xmlns="http://www.w3.org/2000/svg" xmlns:xlink="http://www.w3.org/1999/xlink" x="0px" y="0px"
	 viewBox="0 0 960 560" style="enable-background:new 0 0 960 560;" xml:space="preserve">
<style type="text/css">
	.st0{fill:none;stroke:#000000;stroke-miterlimit:10;}
</style>
<g fill="none" fill-rule="evenodd" stroke="currentColor" stroke-width="1" class="lines">
	<path class="st0" d="M400,571c-8.7,0-17.3,0-26,0c-13.4-12.8-26.8-25.6-40.2-38.3c-0.5-0.4-1.2-0.6-1.8-0.8
		c-0.3-0.3-0.6-0.6-0.9-0.8c-0.4-0.4-0.8-0.7-1.1-1.1c-1-1-2-1.9-2.9-2.9c-0.3-0.1-0.6-0.2-0.9-0.2c-1.8,0-3,1.2-4.3,2.2
		c-8,5.8-15.9,11.7-23.9,17.6c-9.6-2.1-19.1-4.3-28.7-6.2c-12.4-2.4-24.5-5.9-37.1-7.4c-0.7,0.3-1.5,0.6-2.2,0.9
		c-0.3,0-0.7,0.1-1,0.1c-1,0.2-2,0.2-2.9,0.5c-27.1,9.8-54.2,19.7-81.3,29.3c-3.8,1.4-5.8,3-3.8,7.1c-0.6-0.4-2.1,1-2-1
		c0.1-1.2,0-2.3,0-3.5c0-187,0-374-0.1-561c0-3.7,0.8-4.6,4.6-4.6C239,1,334.5,1,430,1c-8.4,16.6-16.9,33.2-25.3,49.9
		c-3.3,6.7-7.2,13.1-9.7,20.2c-0.8,0.4-1,1.1-1,1.9l0,0c-2.7,3.5-3.9,7.7-6.2,11.4c-2.7,4.3-0.8,5.6,3.4,5.7
		c1.3-0.1,2.7-0.1,3.9-0.3c20.6-4.4,41.2-8.8,61.8-13.2c3.3,2.5,6.5,5.1,10,7.3c6.2,4,11.4,9.4,18.3,12.4l0.4,0l0.4-0.1
		c1-1,2-2,2.9-2.9c0.4-0.4,0.8-0.7,1.1-1.1c0.3-0.3,0.6-0.6,0.9-0.8c3-2,5.7-4.5,8.3-7.1c11.6-11.4,23.3-22.6,35.5-33.3
		c1.5-0.1,2.9-0.2,4.4-0.3c7.1-0.4,14.2-0.9,21.2-0.4c-2.4,4.8-4.3,10-7.4,14.5c-1.1,1.5-3.1,3.6-0.2,5.4c0.1,0.3,0.1,0.7,0.2,1
		c2.6,17.3,5.3,34.6,7.9,51.9c-1.5,0.6-3,1.2-4.5,1.8c-6.9,2.8-14.4,4.4-21,8c-1.4,0.3-3,0.1-4.1,1.3c0.1,1.6,1.5,2.2,2.4,3
		c9.7,8.3,19.4,16.6,29.2,24.8c2.2,1.8,3.7,4.8,7,5.2c0.8,1.1,1.9,1.6,3.2,1.7c1.5,0.7,2.9,1.5,4.4,2.2c15.1,7,30.3,14,45.4,21
		c-1.1,3.4-4,6.1-4,10c0.3,9.2,2.9,17.9,4.5,26.9c4.3,24.4,9,48.8,13.3,73.2c0.6,3.5,2.1,5.6,5.3,7.1c18,8.2,35.8,16.7,53.9,24.7
		c7,3.1,13.5,7.2,20.9,9.3c0.6,0.4,1.2,0.7,1.7,1.1c0.9,2.5,3.1,1.8,4.6,1.4c5.9-1.4,12-1.5,17.9-2.4c-2.8,7.5-5.7,15-8.5,22.5
		c-6.6,3.1-13.3,6.1-19.8,9.3c-11.6,5.8-23.7,10.4-34.9,16.9l0,0c-1,0.1-2.2-0.1-2.8,1.1c-1.2,0.5-2.4,0.8-3.2,1.9
		c-2.4,2.1,0.1,3.9,0.6,5.7c1.2,4.8,4.7,9,4.5,14.3c-0.7-0.4-1.5-0.7-2-1.3c-21.1-21.5-42-43.1-63.1-64.6c-3.7-3.7-7-7.9-12.2-11.4
		c2.9,15.7,5.6,30.6,8.5,46.6c-1.5-1.3-2.2-1.8-2.7-2.4c-8.8-10.2-17.5-20.5-26.4-30.6c-7.6-8.6-14.3-17.9-22.8-25.6l0,0.1
		c0-1.5-0.7-2.5-2.2-2.9l0,0.1c-0.3-0.4-0.7-0.7-1-1.1l0.1,0.1c-0.3-0.4-0.7-0.8-1-1.2c-1.3-1.7-1.9-0.4-2.4,0.7
		c-6.9,14.1-14.3,27.9-20.3,42.4c-0.2,1-0.4,1.9-0.6,2.9c-2.7,17.6-5.3,35.3-8,52.9c-3.7-0.2-7.3-0.4-11-0.6
		c-0.8-0.1-1.4,0.1-1.8,0.9c-12.4,4.8-23.9,11.3-35.8,17.1c-20.3,9.9-40.6,19.8-60.8,29.7c-3.4,1.6-5,4-5.5,8.1
		c-1.5,11.7-3.7,23.2-5.5,34.8c-2.2,14.1-4.2,28.2-6.3,42.3c-0.1,0.3-0.1,0.7-0.2,1c-3.1,2.6-0.4,4.7,0.9,6.6
		C397,563.2,399,566.8,400,571z" stroke-dasharray="150" style="stroke-dashoffset: 150px;"/>
	<path class="st0" d="M790,413c0,4.3,0,8.7,0,13c-1.1,0.7-2.5,1.2-3.3,2.2c-2.7,3.2-7.7,4.2-8.6,9c-0.7,1.1-2.6,0.6-3,2.2
		c-0.3,0.2-0.7,0.4-1,0.6c-0.4,0.3-0.8,0.6-1.2,0.8c-1.6,0.4-3.3,0.6-4.8,1.1c-29.9,9.5-59.8,18.9-89.6,28.5
		c-7.5,2.4-15.4,4.1-22.5,7.7c-0.6,0.1-1.2,0.2-1.8,0.4c-1.5,0.2-3,0.1-4,1.6c-0.1,0.2-0.2,0.5-0.3,0.7c-2.3-0.1-3.8,1.2-5,3
		c-1.1,0.1-2.2,0.5-2.9-0.8c1.7-1.7,0.1-2.3-1-3c0-1-0.1-1.9-0.1-2.9c-1-2.8-1.9-5.6-2.9-8.4c-6.2-17.3-12.4-34.6-18.6-51.9
		c-3.7-10.4-7.4-20.7-11.4-32.1c3.2,1.9,5.6,3.3,7.9,4.7c20.8,13,41.3,26.5,62.8,38.2c2.8,1.5,3.4,0.5,4.3-1.5
		c10.6-0.7,21.2-0.9,31.7-2.3c6.4-0.9,13,0.2,19.2-1.7c0,0.9-0.4,1.5-1.2,2c-22.3,14.6-44.6,29.2-66.7,44c-2.3,1.5-5,2.7-5.9,6.2
		C703.4,453.9,746.7,433.4,790,413z M657.4,474.6c-0.3-0.1-0.6-0.3-0.8-0.2c-0.2,0.1-0.3,0.5-0.4,0.7c0.2,0.1,0.5,0.3,0.7,0.2
		C657.2,475.1,657.3,474.8,657.4,474.6z"/>
	<path class="st0" d="M639,571c-11.7,0-23.3,0-35,0c0.4-2.6-1.6-4.3-2.8-6.2c-8.7-13.3-17.4-26.6-26.3-39.9
		c-1.7-2.6-2.8-4.1,1.2-5.8c7.8-3.5,15.3-7.7,22.9-11.6c6.9-3.5,14-6.8,20.8-10.7c6.4-3.7,13.7-5.8,19.3-10.9c1.7-0.3,3.3-0.6,5-0.9
		c-0.8,2.6-1,5.1-1,7.8c-0.1,6.1-0.4,12.2-0.7,18.3C641.4,531.1,640.1,551.1,639,571z"/>
	<path class="st0" d="M672,395c0.8-1.1,2-1.4,3.2-1.9c1-0.1,2.2,0.1,2.8-1.1c0,0,0,0,0,0c2.1-0.1,4.2,0,6.4-0.5
		c18.7-4.3,37.5-8.3,56.1-12.9c5.5-1.3,11.6-1.2,16.6-4.6c1.7,0.1,2.7-0.4,3-2.4c1.2-10.1,2.6-20.3,4-30.4
		c1.9-13.9,4.1-27.7,5.8-41.6c1-8.6,3.3-17.2,2.9-26c0-0.3,0.1-0.5,0.2-0.7c1.4-0.7,1.1-1.9,1-3.1c0.1-1,0.2-1.9,0.2-2.9
		c0.3-0.3,0.7-0.7,1-1c4.4,4,7.6,9,11.1,13.7c1,1.4,1.5,3.4,3.9,3.3c0,26.7,0,53.3,0,80c-3.6,0.1-6.7,1.8-9.7,3.2
		c-5.8,2.6-12.4,3.3-17.4,7.7c-1.2,0.2-2,0.8-1.9,2.1c-0.1,0.3-0.1,0.6-0.1,0.9c-1.2,1.1-1.2,2.1,0.1,3.1
		c-0.1,6.2,0.7,12.2,2.2,18.2c-0.6,0.4-1.3,0.7-1.9,1.1c-1.8-1.5-4-1.3-6.2-1.3c-6.3,0-12.7,0.3-19-0.1c-21.4-1.5-42.7-2.2-64.1-2.8
		L672,395z"/>
	<path class="st0" d="M654.2,478.5c0.6-0.1,1.2-0.2,1.8-0.4c4.2,2.3,8.4,0.2,12.6-0.2c11.1-0.9,22.1-1.9,33.1-3.1
		c13.8-1.5,27.6-3.2,41.4-4.8c15.6-1.7,31.2-3.4,46.9-5c0,5.3,0,10.7,0,16c-5.6,5.1-12.9,7.8-19,13.6c7-0.3,12.9-2.2,19-1.6
		c0,6,0,12,0,18c-8.3,8.1-16.6,16.3-24.9,24.4c-9.4,9.2-18.7,18.4-28.1,27.6c0.1-0.8,0-1.7,0.4-2.4c9.2-18.5,18.4-37,27.6-55.5
		c5.6-11.3,5.4-11.2-7.5-12.1c-12.8-1-25.6-2.6-38.4-4.1c-16.2-1.9-32.5-3.7-48.7-5.9c-5.8-0.8-11.8-0.7-17.4-2.9
		C653.4,479.5,653.8,479,654.2,478.5z"/>
	<path class="st0" d="M639,486c-5.6,5.1-12.9,7.2-19.3,10.9c-6.7,3.9-13.8,7.1-20.8,10.7c-7.6,3.9-15.1,8.1-22.9,11.6
		c-4,1.8-2.9,3.3-1.2,5.8c8.8,13.2,17.6,26.5,26.3,39.9c1.2,1.9,3.2,3.5,2.8,6.2c-7.3,0-14.7,0-22,0c-0.4-0.5-0.7-1.2-1.1-1.6
		c-11.1-10-22-20.2-33.4-29.9c-3.8-3.2-6.6-7.6-11.5-9.5c-3.6-5.2-9.2-8.2-13.5-12.6c-0.9-0.9-1.9-1.5-0.3-2.5
		c16.3,2,32.6,4.1,50.2,6.3c-9.6-8.6-18.1-16.2-26.6-23.9c0.4-0.3,0.7-0.8,1.1-0.9c11.1-1.4,22.2-2.9,33.4-4.2
		c16.2-2,32.4-4,48.6-5.7C632.3,486,635.6,484.7,639,486z"/>
	<path class="st0" d="M790,126c0,13.3,0,26.7,0,40c-6.5,1.4-12.9,2.8-19.4,4.2c-8.4,1.9-16.8,3.9-25.2,5.6c-3,0.6-5.5,0.2-5.9-3.8
		c-0.5-4.1-1.7-8.1-2.4-12.2c-3.2-18.4-6.9-36.7-11.1-55c0-0.7,0.1-1.3,0.1-2C747.4,110.7,768.7,118.3,790,126z"/>
	<path class="st0" d="M726,105c4.2,18.2,7.8,36.6,11.1,55c0.7,4.1,1.9,8.1,2.4,12.2c0.5,4,3,4.4,5.9,3.8c8.4-1.8,16.8-3.8,25.2-5.6
		c6.5-1.4,12.9-2.8,19.4-4.2c0,6.7,0,13.3,0,20c-0.8,0.2-1.6,0.3-2.4,0.7c-21.9,10.9-43.8,21.9-65.7,32.9c-0.7,0.4-1.3,1-1.9,1.5
		c-0.4,0-0.7,0-1.1,0c-0.1-0.5-0.1-0.9-0.2-1.4c7.1-13.9,14.3-27.8,22-42.8c-11.5,5.9-21.6,11-31.7,16.1c-2.7-3.5,0.4-6.6,1-9.8
		c3.6-18.9,7.2-37.9,11.1-56.7C722.7,119.3,722.7,111.8,726,105z"/>
	<path class="st0" d="M790,65c0,14,0,28,0,42c-3-0.9-5.8-2.4-8.3-4.2c-9.6-7-20.2-12.5-30.2-18.9c-13.7-8.7-27.6-17.1-41.5-25.4
		c-6.6-4-12.6-9.1-20.1-11.4c-0.3-0.3-0.6-0.7-1-1c0.3-0.3,0.6-0.5,0.9-0.8c3.1,0.4,6.1,0.8,9.2,1.2c2.2,0.5,4.5,1.3,6.7,1.4
		c4.5,0.2,9.5,1.7,12.3-3.8c1.4,0,2.5-0.4,3.7-1.1c6.9-4.5,14-8.8,20.9-13.3c2.5-1.7,3.1-1.4,3.5,1.7c0.7,6.5,1.8,13,2.7,19.5
		c0.2,1.7,0.6,3,2.9,3.2c5.7,0.5,11.5,1.1,17.2,2C776.6,57.3,785.3,56.5,790,65z"/>
	<path class="st0" d="M555,1c21,0,42,0,63,0c6,7.5,12.1,14.8,17.8,22.4c4.3,5.8,9.2,11.2,13.7,16.8c1,1.2,1.3,1.3,1.5-0.3
		c0.4,0.4,0.7,0.8,1.1,1.1c-0.1,0.6-0.2,1.3-0.3,1.9c-2.3,0.4-4.7-0.6-6.8,0.7c-1,0-1.9,0-2.9,0c-3.1-3.2-7.3-2.3-11-3
		c-20.1-3.7-40.3-7.1-60.5-10.6c-10.9-1.9-21.7-4-32.6-6c-0.3-1-0.7-2-1-3C543,14.3,549,7.7,555,1z"/>
	<path class="st0" d="M639,571c1.1-19.9,2.4-39.9,3.3-59.8c0.3-6.1,0.6-12.2,0.7-18.3c0.1-2.7,0.3-5.3,1-7.8
		c0.3-0.4,0.6-0.8,0.9-1.2c1.2-1.8,2.7-3.1,5-3c0,2.1,1.6,3.2,2.9,4.5c13,12.7,26,25.3,39,38c1.8,1.7,3.5,3.6,5.3,5.2
		c13.4,11.5,24.9,24.9,38,36.6c0,1.6-0.1,3.3-0.1,4.9c0,0.3,0,0.7,0,1c-12.7,0-25.3,0-38,0c-0.1-1.1,0.1-2.5-0.4-3.4
		c-6.2-11.1-12.4-22.1-18.6-33.1c-5.8-10.2-11.2-20.6-17.3-30.7c-3.7-6.3-6.2-13.4-11.7-19.6c-0.4,16.5,1.6,32,2.3,47.5
		c0.3,6.3-0.3,12.7,0.8,18.8c1.2,7,1.2,13.8-1.2,20.5C647,571,643,571,639,571z"/>
	<path class="st0" d="M457,76.5c-20.6,4.4-41.2,8.8-61.8,13.2c-1.3,0.3-2.6,0.2-3.9,0.3c0.3-0.6,0.6-1.2,0.9-1.8
		c0.3-0.3,0.7-0.7,1-1c0.7-0.5,1.1-1.1,1.1-2c0,0,0.1,0,0.1,0c0.6-0.5,1.4-0.9,1.9-1.5c16.1-19.9,32.2-39.8,48.2-59.8
		c6-7.5,12.5-14.6,17.6-22.8c8,0,16,0,24,0c-3.2,4.3-7.5,7.4-11.4,11c-14.3,13.4-28.2,27.2-42.7,40.4c-7.2,6.6-13.8,13.8-21.6,19.9
		c-3.5,2.7-6.4,6.2-9.7,9.6c1.8,1,2.3,0.5,2.8,0.2c12.2-8.5,24.5-17,36.6-25.6c11.6-8.2,23.2-16.5,34.8-24.7
		c0.8-0.6,1.5-0.6,2.1,0.3C470.3,46.8,463.7,61.6,457,76.5z"/>
	<path class="st0" d="M689.8,47c7.5,2.4,13.5,7.5,20.1,11.4c13.9,8.3,27.8,16.7,41.5,25.4c10,6.4,20.6,11.9,30.2,18.9
		c2.5,1.8,5.3,3.3,8.3,4.2c0,6.3,0,12.7,0,19c-21.3-7.7-42.6-15.3-63.9-23c-0.2,0-0.5,0-0.7,0c-0.7-1.3-1.2-2.7-2-4
		c-7.1-10.9-14.2-21.7-21.3-32.6C697.9,60,693.9,53.5,689.8,47z"/>
	<path class="st0" d="M790,465c-15.6,1.7-31.2,3.3-46.9,5c-13.8,1.5-27.6,3.3-41.4,4.8c-11,1.2-22.1,2.2-33.1,3.1
		c-4.2,0.3-8.4,2.5-12.6,0.2c7.1-3.6,15-5.2,22.5-7.7c29.8-9.7,59.7-19.1,89.6-28.5c1.6-0.5,3.2-0.7,4.8-1.1
		c0.4-0.3,0.8-0.6,1.2-0.8c0.3-0.2,0.7-0.4,1-0.6c0.1,0.3,0.3,0.5,0.6,0.6c0.1,1.4,0.3,2.6,1.9,3.2c4.2,1.6,7.8,4.5,12.4,4.8
		C790,453.7,790,459.3,790,465z"/>
	<path class="st0" d="M651,571c2.4-6.7,2.4-13.5,1.2-20.5c-1.1-6.2-0.5-12.6-0.8-18.8c-0.7-15.5-2.7-31-2.3-47.5
		c5.5,6.2,7.9,13.3,11.7,19.6c6,10.1,11.5,20.5,17.3,30.7c6.2,11,12.5,22.1,18.6,33.1c0.5,0.9,0.3,2.3,0.4,3.4
		C681.7,571,666.3,571,651,571z"/>
	<path class="st0" d="M790,65c-4.7-8.5-13.4-7.7-21.2-8.9c-5.7-0.9-11.4-1.5-17.2-2c-2.3-0.2-2.6-1.5-2.9-3.2
		c-0.9-6.5-2-13-2.7-19.5c-0.3-3.1-0.9-3.3-3.5-1.7c-6.9,4.5-14,8.8-20.9,13.3c-1.2,0.8-2.3,1.2-3.7,1.1c0-14.3,0-28.7,0-43
		c1,0,2,0,3,0c5.8,6.2,11.4,12.5,17.4,18.5c2.6,2.6,4.5,6.3,8.5,7.3c3,0,5.9,0.2,8.9,0c11.4-0.9,22.8-1.9,34.3-2.8
		C790,37.7,790,51.3,790,65z"/>
	<path class="st0" d="M471,571c-8.7,0-17.3,0-26,0c-3.1-3.9-6.2-7.7-9.7-11.3c-7.3-7.5-14.5-15.1-21.7-22.7c-0.8-0.9-1.6-1.7-1.6-3
		c0.5,0.1,1.1,0,1.5,0.3c15.3,9.2,30.6,18.4,45.9,27.6c1.6,1,3,2.7,5.7,1.3c-2.9-4.5-6-8.8-8.6-13.3c-3.4-6-8.2-11.1-10.4-17.8
		c18.5,7.2,37.1,14.3,55.5,21.8c8.9,3.6,18.1,6.3,26.6,11c-0.5,3.1-3,2.1-4.8,2.1c-16.3,0.1-32.6,0.1-48.9,0
		C471.2,566.9,469.5,567.4,471,571z"/>
	<path class="st0" d="M737,563c9.4-9.2,18.7-18.4,28.1-27.6c8.3-8.1,16.6-16.3,24.9-24.4c0,17.3,0,34.7,0,52c-17,0.7-34,1.5-51,2.2
		c-1-0.1-2-0.2-3.1-0.3C736.3,564.2,736.6,563.6,737,563z"/>
	<path class="st0" d="M232.2,533c12.6,1.5,24.7,5,37.1,7.4c9.6,1.9,19.1,4.1,28.7,6.2c3.7,8.2,7.3,16.3,11,24.5c-7.3,0-14.7,0-22,0
		c-14.7-10.3-29.3-20.7-44.5-31.3c-0.3,2.4,0.6,3,1.3,3.7c8.1,7.6,16.2,15.2,24.2,22.9c1.5,1.4,3.9,2.2,3.9,4.8c-3,0-6,0-9,0
		c-3.4-4.1-6.6-8.4-10.1-12.4c-6-6.8-10.8-14.7-17.6-20.8c0,0-0.1,0-0.1,0c-0.4-0.7-0.7-1.3-1.1-2c-0.3-0.3-0.7-0.7-1-1
		C232.8,534.2,232.5,533.6,232.2,533z"/>
	<path class="st0" d="M720,221.1c0.6-0.5,1.2-1.2,1.9-1.5c21.9-11,43.8-22,65.7-32.9c0.7-0.4,1.6-0.5,2.4-0.7c0,8.7,0,17.3,0,26
		c-5.3,4.4-10.6,8.9-15.9,13.3c-1.7-0.1-3.4-0.1-5.1-0.2c-0.7,0-1.3,0-2-0.1c-0.7,0-1.3,0-2-0.1c-9.1-0.9-18.2-1.6-27.3-2.2
		C731.8,222.4,725.8,222.8,720,221.1z"/>
	<path class="st0" d="M790,413c-43.3,20.4-86.6,40.9-129.9,61.3c0.9-3.5,3.6-4.7,5.9-6.2c22.2-14.8,44.5-29.4,66.7-44
		c0.8-0.5,1.2-1.1,1.2-2c0,0,0.1-0.2,0.1-0.2c0.7,0,1.3,0,2,0c11.7-3.5,23.4-7.3,35.3-10.4c6.2-1.6,12.1-4.9,18.7-4.6
		C790,409,790,411,790,413z"/>
	<path class="st0" d="M462,1c-5.1,8.2-11.7,15.3-17.6,22.8c-15.9,20.1-32.1,39.9-48.2,59.8c-0.5,0.6-1.2,1-1.9,1.5
		c-0.5-1.4,0.4-2.6,0.9-3.7c4.5-9.4,9.1-18.7,13.6-28.1C417.2,35.9,425.6,18.5,434,1C443.3,1,452.7,1,462,1z"/>
	<path class="st0" d="M141,571c-2-4.1-0.1-5.7,3.8-7.1c27.1-9.7,54.2-19.6,81.3-29.3c0.9-0.3,1.9-0.4,2.9-0.5c0,0.3,0,0.7,0,1l0,0
		c-5.4,3.8-9.5,9.1-14.5,13.5c-8.2,7.1-15.7,15-23.5,22.6C174.3,571,157.7,571,141,571z"/>
	<path class="st0" d="M528,564.9c-8.4-4.7-17.7-7.4-26.6-11c-18.4-7.5-37-14.6-55.5-21.8c0,0,0,0,0,0c5.8-4,12.8-3.8,19.1-6.1
		c3.3-1.2,7.2-0.9,9.8-3.8c1,0,2.1,0,3.1,0c0,1.6,1.4,2.1,2.4,2.9c13.4,10.6,26.7,21.3,40.2,31.7c3.2,2.4,5.8,6.1,10.4,6.4
		c1.4-1,1.1-2.1,0-3.2c0,0,0,0,0,0c-0.8-7.2-3.6-14-5.2-21.1c-1.8-8.3-5-16.3-5.8-24.9c0.6-0.1,1.3-0.1,1.9-0.2
		c0.1,0.3,0.1,0.6,0.2,0.9c-1.5,1.1-0.6,1.6,0.3,2.6c4.3,4.4,9.9,7.5,13.5,12.6c-3.5,1-6.2,0.6-6.8-3.6c-3.6,2.1-4.6,5.4-2.7,8
		c2.2,3,2.6,5.9,2.5,9.2c0,1.9,0.8,3.6,2.1,4.9c1.6,1.5,1.8,3.3,1.9,5.4c0.3,9.4,4.5,13.8,14.1,15.5c0.4,0.1,0.6,1,0.9,1.6
		c-2.3,0-4.7,0-7,0C537.2,567.8,532.7,566.3,528,564.9z"/>
	<path class="st0" d="M477,32c-0.6-0.9-1.3-0.9-2.1-0.3c-11.6,8.2-23.2,16.5-34.8,24.7C427.9,65,415.7,73.5,403.4,82
		c-0.5,0.4-1,0.8-2.8-0.2c3.3-3.3,6.2-6.8,9.7-9.6c7.7-6.1,14.3-13.4,21.6-19.9c14.5-13.2,28.4-27,42.7-40.4
		c3.9-3.6,8.2-6.7,11.4-11c4.3,0,8.7,0,13,0c0,2-1.5,3.3-2.5,4.7c-5.8,7.8-11.7,15.6-17.5,23.3c-1.1,0.7-1,1.9-1.2,2.9
		C477.5,32,477.3,32,477,32z"/>
	<path class="st0" d="M548,571c-0.3-0.6-0.5-1.5-0.9-1.6c-9.6-1.7-13.8-6.1-14.1-15.5c-0.1-2.1-0.3-3.9-1.9-5.4
		c-1.3-1.3-2.1-3-2.1-4.9c0.1-3.3-0.3-6.2-2.5-9.2c-2-2.7-0.9-5.9,2.7-8c0.6,4.3,3.4,4.6,6.8,3.6c4.8,1.9,7.7,6.3,11.5,9.5
		c11.4,9.7,22.3,19.9,33.4,29.9c0.5,0.4,0.8,1.1,1.1,1.6C570.7,571,559.3,571,548,571z"/>
	<path class="st0" d="M746.8,26.9c-4-1-5.9-4.7-8.5-7.3c-5.9-6-11.6-12.3-17.4-18.5c22,0,44,0,66-0.1c2.5,0,3.5,0.6,3,3.1
		c-2.7-0.1-4.9-3.4-7.9-1.4C770.3,10.7,758.6,18.8,746.8,26.9z"/>
	<path class="st0" d="M774.1,225.3c5.3-4.4,10.6-8.9,15.9-13.3c0,9,0,18,0,27c-8.1,10.2-16.2,20.3-24.2,30.5
		c-2.3,2.9-5.6,5.3-5.8,9.5c0,0,0,0,0,0c-0.8,0-1.6,0.2-2,1c-0.1,0.6-0.1,1.1-0.2,1.7c-0.3,0.1-0.7,0.1-1,0.2c-0.3,0-0.5,0-0.8,0
		c0-0.5-0.1-1,0-1.5c4.7-14.3,9.4-28.6,14.2-42.9c0.7-2.2,2.1-4.2,1.7-6.6l0,0c1.2-0.7,1-1.9,1-3
		C773.4,227.1,773.7,226.2,774.1,225.3z"/>
	<path class="st0" d="M309,571c-3.7-8.2-7.3-16.3-11-24.5c8-5.9,15.9-11.8,23.9-17.6c1.3-0.9,2.5-2.2,4.3-2.2
		c-0.4,3.9-0.7,7.9-1.2,11.8c-1.3,10.8-2.7,21.6-4,32.4C317,571,313,571,309,571z"/>
	<path class="st0" d="M651.1,39.9c-0.2,1.6-0.5,1.6-1.5,0.3c-4.5-5.6-9.4-11-13.7-16.8C630.1,15.8,624,8.5,618,1c10.3,0,20.7,0,31,0
		c0,9.8,1,19.6,2.3,29.3C651.2,33.5,651.1,36.7,651.1,39.9z"/>
	<path class="st0" d="M232.2,533c0.3,0.6,0.6,1.2,0.9,1.8c0,2.3,0.2,4.5,0.6,6.8c1.7,9.8,4.9,19.4,5.4,29.4c-9.7,0-19.3,0-29,0
		c2.3-6.7,7-12.3,10-18.6c2.8-5.9,7.4-10.9,9-17.4c0,0,0,0,0,0c0.3-0.4,0.7-0.7,1-1.1C230.7,533.6,231.5,533.3,232.2,533z"/>
	<path class="st0" d="M718,1c0,14.3,0,28.7,0,43c-2.8,5.5-7.8,4-12.3,3.8c-2.3-0.1-4.5-0.9-6.7-1.4c1.3-4,3.1-7.9,3.3-12.2
		c2.4-6.3,4.5-12.6,5.7-19.2c0.3-3.1,3.4-5.4,2.7-8.9c0-0.3,0.1-0.6,0.1-0.8c1.3-1.1,1.7-2.7,2.2-4.3C714.7,1,716.3,1,718,1z"/>
	<path class="st0" d="M746.8,26.9c11.7-8.1,23.5-16.2,35.2-24.2c3-2.1,5.2,1.2,7.9,1.4c0,6.7,0,13.3,0,20c-11.4,1-22.8,1.9-34.3,2.8
		C752.8,27,749.8,26.9,746.8,26.9z"/>
	<path class="st0" d="M790,407c-6.7-0.3-12.5,2.9-18.7,4.6c-11.9,3.1-23.5,6.9-35.3,10.4c5-5,10.5-9.5,16-14
		c3.3-2.7,6.7-5.3,9.3-8.7c0.6-0.4,1.3-0.7,1.9-1.1c8.9-0.4,17.9,0.1,26.8-1.3C790,400.3,790,403.7,790,407z"/>
	<path class="st0" d="M412,534c0,1.3,0.8,2.1,1.6,3c7.2,7.6,14.4,15.2,21.7,22.7c3.5,3.6,6.7,7.4,9.7,11.3c-9,0-18,0-27,0
		c-0.8-8.1-3.3-15.8-5.3-23.7c-0.5-3.9-1.4-7.7-2.9-11.4c0-0.7,0-1.3,0-2C410.5,534,411.2,534,412,534C412,534,412,534,412,534z"/>
	<path class="st0" d="M790,397c-8.9,1.4-17.9,0.9-26.8,1.3c-1.5-6-2.3-12.1-2.2-18.2c0-1,0-2.1-0.1-3.1c0-0.3,0-0.6,0.1-0.9
		c1.5-0.2,2.9,0.1,4.4,0.5c8.2,2.5,16.4,5,24.6,7.5C790,388.3,790,392.7,790,397z"/>
	<path class="st0" d="M321,571c1.3-10.8,2.7-21.6,4-32.4c0.5-3.9,0.8-7.9,1.2-11.8c0.3,0,0.6,0,0.9,0.2c1.7,6.1,3.5,12.1,5.1,18.2
		c2.2,8.7,6.3,16.8,6.9,25.9C333,571,327,571,321,571z"/>
	<path class="st0" d="M434,1c-8.4,17.5-16.8,34.9-25.2,52.4c-4.5,9.4-9.1,18.7-13.6,28.1c-0.6,1.2-1.4,2.3-0.9,3.7c0,0-0.1,0-0.1,0
		c-1.1,0.3-1.2,1.1-1.1,2c-0.3,0.3-0.7,0.7-1,1c-0.5-5.2,2.3-10,1.9-15.2c0,0,0,0,0,0c0.8-0.4,1-1.1,1-1.9
		c2.5-7.1,6.4-13.5,9.7-20.2C413.1,34.2,421.6,17.6,430,1C431.3,1,432.7,1,434,1z"/>
	<path class="st0" d="M678,1c6.3,0,12.7,0,19,0c2.1,1.6,5.1,1,7.1,2.9c0.1,3.5-2.5,6.6-2.1,10.2c-0.2,0.3-0.5,0.7-0.7,1
		c-0.4,0-0.8,0.1-1.2,0.1c-10-0.5-20.1-0.9-30.1-1.4C670.9,8.5,675.8,5.6,678,1z"/>
	<path class="st0" d="M339,571c-0.5-9.1-4.7-17.2-6.9-25.9c-1.5-6.1-3.4-12.1-5.1-18.2c1,1,2,1.9,2.9,2.9c0.4,0.4,0.8,0.7,1.1,1.1
		c0.3,0.3,0.6,0.6,0.9,0.8c0,1.2,0,2.3,0.7,3.3c4.9,7.2,9.8,14.4,14.5,21.7c3,4.6,5.8,9.4,8.8,14.2C350.3,571,344.7,571,339,571z"/>
	<path class="st0" d="M356,571c-2.9-4.7-5.7-9.5-8.8-14.2c-4.8-7.3-9.7-14.5-14.5-21.7c-0.7-1-0.7-2.2-0.7-3.3
		c0.6,0.3,1.3,0.4,1.8,0.8c13.4,12.8,26.8,25.6,40.2,38.3C368,571,362,571,356,571z"/>
	<path class="st0" d="M479,29.1c5.9-7.8,11.8-15.5,17.5-23.3c1-1.4,2.5-2.7,2.5-4.7c5.3,0,10.7,0,16,0c-1.4,3.9-2.8,7.9-4.2,11.8
		c-0.4,0.3-0.7,0.6-1.1,0.9c-1.5,0.2-2.7,1.1-4,1.7C496.7,19.8,488.4,25.6,479,29.1z"/>
	<path class="st0" d="M510.8,12.8c1.4-3.9,2.8-7.9,4.2-11.8c6.3,0,12.7,0,19,0c0,7.3,0.1,14.6,0.1,21.9
		C526,20.4,518.6,16.1,510.8,12.8z"/>
	<path class="st0" d="M229,535c-1.6,6.5-6.2,11.5-9,17.4c-3,6.3-7.7,11.9-10,18.6c-6.3,0-12.7,0-19,0c7.8-7.6,15.3-15.5,23.5-22.6
		C219.5,544.1,223.6,538.8,229,535z"/>
	<path class="st0" d="M651.3,30.3C650,20.6,649,10.8,649,1c3.7,0,7.3,0,11,0c1.3,5,6.3,8,7.1,13.3C662.7,20.5,657.3,25.6,651.3,30.3
		z"/>
	<path class="st0" d="M412.7,547.3c2.1,7.8,4.6,15.6,5.3,23.7c-2.7,0-5.3,0-8,0c-3.7-5-7.9-9.6-12.4-13.9c-1.1-1-3-1.9-1.6-4
		C401.6,551.2,407.1,549.2,412.7,547.3z"/>
	<path class="st0" d="M528,564.9c4.6,1.4,9.2,2.9,13,6.1c-23.3,0-46.7,0-70,0c-1.5-3.6,0.2-4.1,3.4-4.1c16.3,0.1,32.6,0.1,48.9,0
		C525,566.9,527.5,567.9,528,564.9z"/>
	<path class="st0" d="M760,279c0.2-4.2,3.5-6.6,5.8-9.5c8-10.3,16.1-20.4,24.2-30.5c0,5.3,0,10.7,0,16c-4.7,2.7-8.9,5.8-12.2,10.2
		c-1,0-2.1-0.5-2.8,0.8c-0.3,0.3-0.7,0.7-1,1C769.4,271,764.7,275,760,279z"/>
	<path class="st0" d="M739,565.2c17-0.7,34-1.5,51-2.2c0,2.3,0,4.7,0,7c-10,0-20,0-30-0.1C753.1,568.2,745.7,567.9,739,565.2z"/>
	<path class="st0" d="M272,571c-0.1-2.6-2.5-3.4-3.9-4.8c-8-7.7-16.2-15.2-24.2-22.9c-0.7-0.7-1.6-1.3-1.3-3.7
		c15.1,10.7,29.8,21,44.5,31.3C282,571,277,571,272,571z"/>
	<path class="st0" d="M235.4,537.8c6.8,6.1,11.6,14,17.6,20.8c3.5,4,6.7,8.2,10.1,12.4c-4.3,0-8.7,0-13,0
		c-3.8-9.9-8.6-19.3-13.4-28.7C235.8,540.9,234.6,539.6,235.4,537.8z"/>
	<path class="st0" d="M762.9,373.9c5-4.3,11.6-5,17.4-7.7c3-1.4,6.2-3.2,9.7-3.2c0,4.7,0,9.3,0,14c-2.6-0.3-5.3-0.4-7.9-1
		C775.8,374.4,769.2,376.1,762.9,373.9z"/>
	<path class="st0" d="M235.4,537.8c-0.7,1.8,0.5,3.1,1.2,4.5c4.8,9.4,9.6,18.8,13.4,28.7c-3.7,0-7.3,0-11,0
		c-0.4-10-3.7-19.6-5.4-29.4c-0.4-2.3-0.6-4.5-0.6-6.8c0.3,0.3,0.7,0.7,1,1c-0.1,0.9,0,1.7,1.1,2L235.4,537.8z"/>
	<path class="st0" d="M555,1c-6,6.7-12,13.3-18,20c-0.4,0-0.8-0.1-1.2-0.1c1.4-6.6,2.8-13.2,4.2-19.9C545,1,550,1,555,1z"/>
	<path class="st0" d="M667.1,14.3C666.3,9,661.3,6,660,1c6,0,12,0,18,0c-2.2,4.6-7.1,7.5-8.1,12.8C669,14,668,14.1,667.1,14.3z"/>
	<path class="st0" d="M762.9,373.9c6.2,2.2,12.9,0.5,19.2,2.1c2.5,0.7,5.2,0.7,7.9,1c0,2.3,0,4.7,0,7c-8.2-2.5-16.4-4.9-24.6-7.5
		c-1.5-0.5-2.9-0.7-4.4-0.5C760.9,374.6,761.7,374,762.9,373.9z"/>
	<path class="st0" d="M790,493c-6.1-0.7-12,1.3-19,1.6c6.1-5.7,13.5-8.4,19-13.6C790,485,790,489,790,493z"/>
	<path class="st0" d="M396,553.1c-1.4,2.1,0.5,2.9,1.6,4c4.5,4.3,8.7,8.9,12.4,13.9c-3.3,0-6.7,0-10,0c-1-4.2-3-7.8-5.3-11.3
		c-1.2-1.9-4-4-0.9-6.6C394.6,553.1,395.3,553.1,396,553.1z"/>
	<path class="st0" d="M775,265.9c0.6-1.3,1.8-0.8,2.8-0.8c3.8,2.2,7.6,4,12.2,3.8c0,4.7,0,9.3,0,14c-2.3,0.1-2.8-2-3.9-3.3
		C782.6,274.9,779.4,270,775,265.9z"/>
	<path class="st0" d="M790,269c-4.5,0.2-8.4-1.6-12.2-3.8c3.2-4.4,7.5-7.5,12.2-10.2C790,259.7,790,264.3,790,269z"/>
	<path class="st0" d="M540,1c-1.4,6.6-2.8,13.2-4.2,19.9c-0.6,0.7-1.1,1.4-1.7,2.1c0-7.3-0.1-14.6-0.1-21.9C536,1,538,1,540,1z"/>
	<path class="st0" d="M778.1,437.2c0.9-4.8,5.9-5.8,8.6-9c0.8-1,2.2-1.5,3.3-2.2c0,2.3,0,4.7,0,7
		C786.2,434.8,782.5,436.9,778.1,437.2z"/>
	<path class="st0" d="M790,438c0,2,0,4,0,6c-4.3-0.4-8.9,0.1-12.1-3.9C781.8,438.7,785.9,438.1,790,438z"/>
	<path class="st0" d="M790,438c-4.1,0.1-8.2,0.7-12.1,2.1c-0.7,0-1.5-0.1-2.2-0.1c-0.3-0.1-0.5-0.3-0.6-0.6c0.4-1.6,2.3-1,3-2.2
		c4.3-0.3,8.1-2.4,11.9-4.2C790,434.7,790,436.3,790,438z"/>
	<path class="st0" d="M775.7,440c0.7,0,1.5,0.1,2.2,0.1c3.1,4,7.8,3.5,12.1,3.9c0,1.3,0,2.7,0,4c-4.6-0.3-8.3-3.3-12.4-4.8
		C776.1,442.6,775.8,441.4,775.7,440z"/>
	<path class="st0" d="M704.1,3.9c-2-1.9-5-1.3-7.1-2.9c5.3,0,10.7,0,16,0c-0.5,1.6-0.8,3.2-2.2,4.3C708.6,4.8,706.5,3.5,704.1,3.9z"
		/>
	<path class="st0" d="M760,569.9c10,0,20,0,30,0.1c-0.1,2.2-1.8,0.9-2.5,0.9c-12.2,0.1-24.3,0.1-36.5,0.1c0-0.3,0-0.6,0-1
		C754,570,757,570,760,569.9z"/>
	<path class="st0" d="M751,570c0,0.3,0,0.6,0,1c-5.3,0-10.7,0-16,0c0-0.3,0-0.7,0-1C740.4,570,745.7,570,751,570z"/>
	<path class="st0" d="M644.9,483.8c-0.3,0.4-0.6,0.8-0.9,1.2c-1.7,0.3-3.3,0.6-5,0.9c-3.4-1.2-6.8,0-10,0.4
		c-16.2,1.7-32.4,3.8-48.6,5.7c-11.1,1.4-22.2,2.8-33.4,4.2c-0.4,0.1-0.8,0.6-1.1,0.9c-1.4-3.2-1.4-6.7-1.9-10c-1-7.4-2-14.7-3-22.1
		c0-0.7-0.1-1.4-0.1-2c-0.4-4.2-0.4-8.4-1.3-12.4c-0.8-3.5,0.4-7.3-1.6-10.5c0-1.8,0.1-3.7-0.1-5.5c-2.5-16.5-3.9-33.2-6-49.8
		c-0.8-6-0.8-12.2-2.9-18c0.2-1,0.4-1.9,0.6-2.9c19.4,20.5,39,40.8,58.2,61.5c6.6,7.1,13.4,13.8,19.9,20.9
		c10.9,11.9,21.6,23.9,33.4,34.9c0.4,0.6,0.7,1.2,1.1,1.7C642.7,484.4,643.8,484,644.9,483.8z"/>
	<path class="st0" d="M725.4,103c0.2,0,0.5,0,0.7,0c0,0.7-0.1,1.3-0.1,2c-3.2,6.8-3.3,14.4-4.8,21.6c-4,18.9-7.6,37.8-11.1,56.7
		c-0.6,3.2-3.7,6.2-1,9.8c-0.4,0.3-0.7,0.6-1.1,1c-0.3,0-0.6-0.1-0.9,0c-0.4-0.2-0.7-0.5-1.1-0.7c-1-0.1-2-0.1-2.9-0.2
		c-5.2-1.9-10.6-2.5-16.1-3.1c-0.3-0.1-0.6-0.1-1-0.1c-0.5-0.7-1.3-0.7-2.1-0.6c-2.9-0.7-5.8-1.4-8.7-2
		c-27.7-5.3-55.5-10.8-83.3-15.8c-6.2-1.1-12.3-3.4-18.8-2.6c-1.3-0.2-2.4-0.6-3.2-1.7c3.3-2.6,7.4-3.6,11.2-5.1
		c32.9-13.4,65.8-26.6,98.7-40c14.4-5.9,29-11.3,43.1-17.9C723.8,103.6,724.6,103.3,725.4,103z"/>
	<path class="st0" d="M689.8,45.3c-0.3,0.3-0.6,0.5-0.9,0.8c-0.3,0.1-0.8,0.1-0.9,0.3c-11.6,13-26.5,21.9-39.9,32.7
		c-10.5,8.5-22.1,15.5-33.3,25.1c2.7,0,4.3,0,5.9,0c30.3,0.5,60.5-0.6,90.7-1c1.9,0,4-0.8,5.7,1c-1.9,1.4-4.3,1.6-6.5,1.9
		c-16.6,2.6-33.3,5.1-49.9,7.7c-13.2,2.1-26.4,4.3-39.6,6.3c-16.6,2.6-33.3,5-49.9,7.5c-11.9,1.7-23.7,4.3-35.7,5.3
		c6.7-3.6,14.1-5.1,21-8c1.5-0.6,3-1.2,4.5-1.8c7.9-2,15.3-5.4,23-7.9c2.2-0.7,2.4-1.8,0.9-3.1c-6-5.7-8.7-15.3-19.8-14.9
		c1.8-2,4.7-2.2,3.7-5c3-1.9,6.6-0.4,9.6-2c10.8-5.8,22.8-8.8,33.5-14.9c6.8-3.9,8.4-11.5,12.8-17.2c-9.2,4.7-17.8,10-26.5,15.1
		c-9.1,5.4-18.3,10.6-27.4,15.9c0-1.5,1-2.4,1.9-3.3c7.9-8.3,16.1-16.3,23.7-24.9c4.2-4.8,9.4-8.9,12.5-14.6c2.3,0,4.6-0.1,6.9-0.1
		c2.3-0.3,4.8,0.8,6.9-0.8c0.7,0,1.3,0,2,0c1.8,3-0.8,7.4,3.1,9.8c0.3-0.3,0.7-0.6,1-0.9c0,0,0.5,0,0.5,0l0.5,0
		c0.2,1.4,1.1,1.8,2.4,1.9c17.5,1.2,34.4-0.4,49.5-10.7C684.1,43.9,687.2,42.7,689.8,45.3z M612.7,104.7
		c-14.3-3.7-15.7-3.1-16.9,6.3C601.5,108.9,607.1,106.8,612.7,104.7z"/>
	<path class="st0" d="M640.9,481.3c-11.7-11.1-22.5-23-33.4-34.9c-6.5-7.1-13.4-13.9-19.9-20.9c-19.2-20.7-38.8-41.1-58.2-61.5
		c5.9-14.5,13.3-28.4,20.2-42.4c0.5-1,1-2.4,2.4-0.7c0.3,0.4,0.7,0.8,1,1.2c0,0-0.1-0.1-0.1-0.1c0.3,0.4,0.7,0.7,1,1.1
		c0,0,0-0.1,0-0.1c0,1.5,0.5,2.7,2.2,2.9c0,0,0-0.1,0-0.1c-0.3,1.2-0.2,2.2,0.4,3.3c5.7,10.1,11.3,20.2,17,30.3
		c19.6,35.1,39,70.2,58.7,105.2c2.4,4.3,3.7,9.7,8.5,12.5c0,1,0.1,1.9,0.1,2.9C641,480.4,641,480.8,640.9,481.3z"/>
	<path class="st0" d="M409.8,534c0,0.7,0,1.3,0,2c-2.4,0.4-3.3,2.4-4.8,3.9c-3.8,3.9-6.3,9-11,12.1c2.1-14.1,4.1-28.2,6.3-42.3
		c1.8-11.6,4-23.2,5.5-34.8c0.5-4,2.1-6.4,5.5-8.1c20.3-9.9,40.6-19.8,60.8-29.7c11.9-5.8,23.5-12.3,35.8-17.1c0,0.8-0.2,1.6-1,2
		c-0.3,0.3-0.7,0.7-1,1l0,0c-4.8,3.5-7.9,8.5-11.1,13.3c-0.6-0.1-1.2-0.2-1.8-0.4l0,0c-0.4-1-1.1-1.6-2.1-1.9l0,0
		c-0.3-0.2-0.6-0.5-0.9-0.7c-1-0.5-1.5-1.8-3.2-1.4c0.6,3.7,1.3,7.4,1.9,11.1c-3.1,1.2-3.8,4.4-5.7,6.6
		c-12.4,13.9-24.9,27.8-36.9,42.1c-3.6,4.3-8.2,8.2-10.2,13.7c-1-0.1-2-0.3-2.9-0.4c-1.6-1.6-2.3,0-3.1,0.9
		c-1.6,1.9-3.2,3.8-4.7,5.7c-5,6.5-11,12.3-15.2,19.4c-0.3,0.7-0.6,1.3-0.9,2c0,0.3,0.1,0.6,0.3,0.9L409.8,534z"/>
	<path class="st0" d="M535.4,132.7c12-1,23.8-3.5,35.7-5.3c16.6-2.4,33.3-4.9,49.9-7.5c13.2-2,26.4-4.3,39.6-6.3
		c16.6-2.6,33.3-5.1,49.9-7.7c2.2-0.4,4.6-0.5,6.5-1.9c2,0,4,0,6-0.1c-14.1,6.6-28.7,12.1-43.1,17.9c-32.9,13.4-65.8,26.7-98.7,40
		c-3.8,1.5-7.9,2.5-11.2,5.1c-3.3-0.4-4.8-3.3-7-5.2c-9.8-8.1-19.5-16.5-29.2-24.8c-0.9-0.8-2.3-1.4-2.4-3
		C532.5,132.8,534,133,535.4,132.7z"/>
	<path class="st0" d="M716.9,343.1c-7.4-2-13.9-6.2-20.9-9.3c-18.1-8-35.9-16.6-53.9-24.7c-3.2-1.5-4.7-3.6-5.3-7.1
		c-4.3-24.4-9-48.8-13.3-73.2c-1.6-8.9-4.1-17.7-4.5-26.9c0,0,0.4,0,0.4,0s0.4,0,0.4,0c0.4,0.7,0.7,1.4,1.1,2.1
		c-0.1,1.6,0.5,2.8,1.5,4.1c3,3.7,5.8,7.6,8.8,11.4c-1.4,1.2-2.9,2.4-4.3,3.6c-0.7,0.4-1.8,0.8-1.9,1.3c-0.3,1.2,1,0.7,1.6,1
		c3,1.2,6.5,0,9.4,1.6c1,1.3,2,2.7,2.9,4c12,17.1,24,34.1,36.1,51.2c2.7,3.8,5.7,7.3,7,11.9c-0.1,0.3-0.2,0.7-0.3,1
		c-1,0.8-0.7,1.7,0,2.6c6.4,8.1,11.8,17,18.8,24.7c0.4,0.7,0.6,1.6,1.6,1.7c0.3,0.2,0.6,0.3,0.9,0.5
		C709.3,329.4,713.3,336.1,716.9,343.1z"/>
	<path class="st0" d="M640.9,477.1c-4.8-2.8-6.1-8.1-8.5-12.5c-19.7-35-39.2-70.1-58.7-105.2c-5.6-10.1-11.3-20.2-17-30.3
		c-0.6-1.1-0.7-2.2-0.4-3.3c8.5,7.7,15.2,17,22.8,25.6c8.9,10.1,17.6,20.4,26.4,30.6c0.5,0.6,1.2,1.1,2.7,2.4
		c-2.9-16-5.6-30.9-8.5-46.6c5.2,3.6,8.5,7.7,12.2,11.4c21.1,21.5,42.1,43,63.1,64.6c0.5,0.6,1.3,0.9,2,1.3c0,0,0-0.1,0-0.1
		c-0.1,0.7,0.4,0.9,1,0.9c2.7,2.9,2.3,7.3,5.1,10.2c-0.9,2-1.5,3-4.3,1.5c-21.5-11.8-42-25.2-62.8-38.2c-2.3-1.5-4.7-2.8-7.9-4.7
		c4,11.4,7.7,21.8,11.4,32.1c6.2,17.3,12.4,34.6,18.6,51.9C639,471.5,640,474.3,640.9,477.1z"/>
	<path class="st0" d="M616,46c-2.3,0-4.6,0.1-6.9,0.1c-10.4,0.2-20.7,1-31.1,2.1c-2.4-0.1-4.8-0.4-7,0.8c-3.5,0.3-7.2-0.9-10.5,1
		c-7.1-0.5-14.2,0-21.2,0.4c-1.5,0.1-2.9,0.2-4.4,0.3c-1.7-5.8-0.4-11.8-0.8-17.7c0.9-0.7,0.9-1.4,0-2.1c0-1,0-1.9,0-2.9
		c0.6-0.4,0.6-0.8,0-1.1c0-0.6,0-1.3,0-1.9c1.2-0.8,2.5-1.1,3.9-1c10.9,2,21.7,4.1,32.6,6c20.2,3.6,40.3,7,60.5,10.6
		c3.7,0.7,8-0.2,11,3c-5.7,0.8-8.6,4.8-11.2,9.3l0,0c-0.9,0-1.5,0.3-1.9,1.1c-0.3,0.3-0.7,0.6-1,0.9c-0.2-1.5,0.1-2.9,0.8-4.3
		c3-5.9,2.9-5.9-3.9-5.5c-0.7,0-1.3,0-2,0C620.6,45.2,618.2,44.3,616,46z"/>
	<path class="st0" d="M756.8,281.9c0.3-0.1,0.7-0.1,1-0.2c5.5-1.7,11.1-3.2,14.8-8c0.4,8.8-1.8,17.3-2.9,26
		c-1.7,13.9-3.9,27.7-5.8,41.6c-1.4,10.1-2.7,20.2-4,30.4c-0.2,2-1.3,2.5-3,2.4c-8.1-2.7-16.3-5.5-24.4-8.2c2.8-7.5,5.7-15,8.5-22.5
		c2.2-2.7,3.3-5.9,4-9.2c1.5-1.7,2.3-3.9,2.9-6.1c4.9-8.6,7.5-18.2,11.8-27.1c1.9-4.2,4.3-8.2,5.2-12.9c1.2-1.4,2.5-3,1.6-4.8
		c-1-2.2-2.9-0.2-4.4-0.3C760.5,282.8,758.4,283.7,756.8,281.9z"/>
	<path class="st0" d="M573.2,168.7c6.5-0.8,12.6,1.5,18.8,2.6c27.8,5,55.5,10.5,83.3,15.8c2.9,0.6,5.8,1.3,8.7,2
		c0.6,2.6-1,4.7-2,6.8c-13.1,1.4-26.1,2.7-39.2,4.1c-3.6-1.3-7.2-2.7-10.8-4c-2.6-2.3-5.5-3.8-8.9-4.1c-15.1-7-30.3-14-45.4-21
		C576.1,170.2,574.7,169.5,573.2,168.7z"/>
	<path class="st0" d="M540.9,463c0,0.7,0.1,1.4,0.1,2c-1.9,4.2-1,8.5,0.2,13c-1.6,0-2.9,0-4.3,0c-0.7-0.7-1.7-1.3-1.9-2.1
		c-2-6-5.1-11.4-8-17c-3.1-6-4.6-12.7-9-18c-0.4-4,1.5-7.8,0.7-11.9c2-2.8,1.7-6.2,2.2-9.4c2.7-17.6,5.3-35.3,8-52.9
		c2.1,5.8,2.2,12,2.9,18c2.1,16.6,3.6,33.3,6,49.8c0.3,1.8,0.1,3.7,0.1,5.5c-2.5,0.3-2,2.3-1.9,3.8c0.2,1.9,0,3.9,0.2,5.7
		C536.7,454.3,537.7,459,540.9,463z"/>
	<path class="st0" d="M538,24c-1.4-0.1-2.7,0.2-3.9,1c-0.5,0.4-1.2,0.7-1.6,1.2c-13.6,20.5-27.2,41.1-40.8,61.7
		c-0.7,1.1-0.7,2.2-0.7,3.3c-0.3,0.3-0.6,0.6-0.9,0.8c-0.4,0.4-0.8,0.7-1.1,1.1c-1,1-2,2-2.9,2.9c4.5-15.4,9-30.8,13.5-46.1
		c3.5-12,6.8-24.1,10.2-36.2c0.4-0.3,0.7-0.6,1.1-0.9c7.8,3.3,15.1,7.6,23.3,10.1c0.6-0.7,1.1-1.4,1.7-2.1c0.4,0,0.8,0.1,1.2,0.1
		C537.3,22,537.7,23,538,24z"/>
	<path class="st0" d="M509.8,13.7c-3.4,12.1-6.8,24.1-10.2,36.2c-4.4,15.4-9,30.8-13.5,46.1c0,0-0.4,0.1-0.4,0.1s-0.4,0-0.4,0
		c-1.5-13.9-2.6-27.8-4.5-41.6c-1-7.5-0.8-15.3-2.9-22.7c0.2-1,0.1-2.2,1.2-2.9c9.5-3.4,17.7-9.3,26.8-13.6
		C507.1,14.8,508.3,13.9,509.8,13.7z"/>
	<path class="st0" d="M477.8,32c2.1,7.4,1.9,15.1,2.9,22.7c1.8,13.8,3,27.7,4.5,41.6c-6.9-3-12.1-8.4-18.3-12.4
		c-3.4-2.3-6.6-4.9-10-7.3c6.7-14.8,13.3-29.6,20-44.5C477.3,32,477.5,32,477.8,32z"/>
	<path class="st0" d="M683,426.1c-2.8-2.8-2.3-7.3-5.1-10.2c-0.1-0.5-0.1-1.2-1-0.9c0,0,0,0.1,0,0.1c0.2-5.3-3.2-9.5-4.5-14.3
		c-0.5-1.8-2.9-3.6-0.6-5.7c0,0,0,0.2,0,0.2c11.3,5.7,23.2,9.9,34.7,14.9c9.1,4,18.6,7.1,27.3,11.9c0,0-0.1,0.2-0.1,0.2
		c-6.3,1.9-12.8,0.8-19.2,1.7C704.2,425.2,693.6,425.4,683,426.1z"/>
	<path class="st0" d="M568.9,92c0.9,2.8-1.9,3-3.7,5c11-0.4,13.8,9.2,19.8,14.9c1.4,1.4,1.2,2.4-0.9,3.1c-7.7,2.5-15.1,5.9-23,7.9
		c-2.6-17.3-5.3-34.6-7.9-51.9c1.4,0,1.8,1.1,2.6,2c4.4,4.7,7.7,10.4,13.2,14.1c-0.2,0.8-0.4,1.6-0.5,2.3c-0.2,0.2-0.3,0.4-0.2,0.7
		C568.3,90.7,568.6,91.4,568.9,92z"/>
	<path class="st0" d="M491,91.2c0-1.2,0-2.3,0.7-3.3c13.6-20.6,27.2-41.1,40.8-61.7c0.3-0.5,1-0.8,1.6-1.2c0,0.6,0,1.3,0,1.9
		c0,0.4,0,0.8,0,1.1c0,1,0,1.9,0,2.9c0,0.7,0,1.4,0,2.1c0.4,5.9-0.9,11.9,0.8,17.7c-12.2,10.7-24,21.9-35.5,33.3
		C496.7,86.6,494.1,89.1,491,91.2z"/>
	<path class="st0" d="M732.7,365.8c8.1,2.7,16.3,5.5,24.4,8.2c-5,3.5-11,3.3-16.6,4.6c-18.6,4.5-37.4,8.5-56.1,12.9
		c-2.2,0.5-4.3,0.5-6.4,0.5c11.2-6.5,23.3-11.1,34.9-16.9C719.4,371.8,726,368.9,732.7,365.8z"/>
	<path class="st0" d="M507,422c0.8-0.4,1-1.2,1-2c0.4-0.8,1-1,1.8-0.9c0.4,0.9,0.8,1.8,1.3,2.7c0.6,8.7,3.5,16.8,6.3,24.9
		c0.7,2.1,0.1,4.1-0.6,6.1c-5.6-4.2-11.3-8.5-16.9-12.7c-0.2-2.1,1-3.8,1.8-5.6c1.7-3.7,3.8-7.3,4.3-11.5l0,0
		C506.3,422.7,506.7,422.3,507,422z"/>
	<path class="st0" d="M745.2,334.1c-0.7,3.3-1.8,6.5-4,9.2c-6,0.9-12,1-17.9,2.4c-1.5,0.4-3.7,1.1-4.6-1.4c0.1-0.4,0.3-0.8,0.4-1.2
		C728,340.7,736.1,335.9,745.2,334.1z"/>
	<path class="st0" d="M560.5,50.1c3.3-2,7-0.8,10.5-1c0,1.3-0.7,2.1-1.5,3c-4.3,4.6-8.6,9.2-12.8,13.8c-1,1.1-3,1.9-1.7,4
		c-0.7,0-1.4,0-2.1,0c-3-1.9-0.9-4,0.2-5.4C556.2,60,558.1,54.9,560.5,50.1z"/>
	<path class="st0" d="M719.1,343c-0.1,0.4-0.3,0.8-0.4,1.2c-0.6-0.4-1.2-0.7-1.7-1.1c-3.6-7-7.6-13.7-13.9-18.7
		c5.3,0,10.5,0.3,15.6,1.5c-0.1,0.2-0.1,0.5,0,0.7c-0.6,0.7-0.7,1.5-0.4,2.3c0,0.7,0.1,1.4,0.1,2.2c0.1,0.4,0.3,0.8,0.4,1.3
		C718.9,335.9,719,339.4,719.1,343z"/>
	<path class="st0" d="M394,552c4.7-3.1,7.2-8.2,11-12.1c1.5-1.5,2.4-3.5,4.8-3.9c1.4,3.7,2.4,7.5,2.9,11.4
		c-5.6,1.9-11.1,3.8-16.6,5.7c-0.7,0-1.4,0-2.2,0C393.9,552.7,394,552.4,394,552z"/>
	<path class="st0" d="M552.9,69.9c0.7,0,1.4,0,2.1,0c5.6,1.9,11,4.4,16.8,5.7c-1,3.8-2,7.6-3,11.5c-5.5-3.7-8.8-9.4-13.2-14.1
		c-0.8-0.8-1.2-2-2.6-2C553,70.6,552.9,70.3,552.9,69.9z"/>
	<path class="st0" d="M511.1,421.8c-0.4-0.9-0.8-1.8-1.3-2.7c3.7,0.2,7.3,0.4,11,0.6c-0.5,3.2-0.2,6.6-2.2,9.4
		C516.1,426.7,513.6,424.2,511.1,421.8z"/>
	<path class="st0" d="M623.1,192c3.4,0.4,6.4,1.9,8.9,4.1c-3.7,1.6-7.3,3.3-11,4.9c-0.3,0.3-0.7,0.6-1,0.9l0,0l-0.4,0
		c0,0-0.4,0-0.4,0C619.1,198.1,622,195.4,623.1,192z"/>
	<path class="st0" d="M394,73c0.4,5.2-2.5,10-1.9,15.2c-0.3,0.6-0.6,1.2-0.9,1.8c-4.2,0-6-1.4-3.4-5.7C390.1,80.7,391.3,76.4,394,73
		z"/>
	<path class="st0" d="M556.2,325.8c-1.7-0.3-2.2-1.4-2.2-2.9C555.6,323.3,556.2,324.3,556.2,325.8z"/>
	<path class="st0" d="M678,392c-0.6,1.2-1.8,1-2.8,1.1C675.8,391.9,677,392.1,678,392z"/>
	<path class="st0" d="M395,71.1c0,0.8-0.2,1.5-1,1.9C394,72.2,394.2,71.5,395,71.1z"/>
	<path class="st0" d="M553.1,322c-0.3-0.4-0.7-0.8-1-1.2C552.4,321.1,552.8,321.5,553.1,322z"/>
	<path class="st0" d="M554.1,323c-0.3-0.4-0.7-0.7-1-1.1C553.4,322.3,553.7,322.6,554.1,323z"/>
	<path class="st0" d="M331.2,531c-0.4-0.4-0.8-0.7-1.1-1.1C330.4,530.2,330.8,530.6,331.2,531z"/>
	<path class="st0" d="M230,533.9c-0.3,0.4-0.7,0.7-1,1.1c0-0.3,0-0.7,0-1C229.3,534,229.7,533.9,230,533.9z"/>
	<path class="st0" d="M489,93.1c0.4-0.4,0.8-0.7,1.1-1.1C489.8,92.4,489.4,92.8,489,93.1z"/>
	<path class="st0" d="M737,563c-0.4,0.6-0.7,1.2-1.1,1.9c-0.2,0.1-0.5,0.2-0.7,0.2c-13.2-11.7-24.6-25.2-38-36.6
		c-1.9-1.6-3.6-3.4-5.3-5.2c-13-12.7-26-25.3-39-38c-1.3-1.3-2.9-2.4-2.9-4.5c0-0.3,0.1-0.5,0.3-0.7c0.9,0,1.9,0,2.8-0.1
		c5.6,2.2,11.6,2.1,17.4,2.9c16.2,2.2,32.4,4,48.7,5.9c12.8,1.5,25.6,3.1,38.4,4.1c12.9,1,13.1,0.9,7.5,12.1
		c-9.2,18.5-18.4,37-27.6,55.5C737,561.3,737.1,562.2,737,563z"/>
	<path class="st0" d="M653,480c-0.9,0-1.9,0-2.8,0.1c1-1.5,2.6-1.4,4-1.6C653.8,479,653.4,479.5,653,480z"/>
	<path class="st0" d="M640.9,481.3c0-0.4,0.1-0.8,0.1-1.3c1.1,0.7,2.7,1.3,1,3C641.7,482.4,641.3,481.8,640.9,481.3z"/>
	<path class="st0" d="M657.4,474.6c-0.1,0.2-0.2,0.6-0.5,0.7c-0.1,0.1-0.5-0.1-0.7-0.2c0.1-0.2,0.2-0.6,0.4-0.7
		C656.8,474.3,657.2,474.5,657.4,474.6z"/>
	<path class="st0" d="M774.1,440c-0.4,0.3-0.8,0.6-1.2,0.8C773.3,440.5,773.7,440.3,774.1,440z"/>
	<path class="st0" d="M734,421.9c-8.8-4.8-18.2-7.9-27.3-11.9c-11.5-5.1-23.4-9.3-34.7-14.9c21.4,0.6,42.8,1.3,64.1,2.8
		c6.3,0.4,12.7,0.1,19,0.1c2.2,0,4.4-0.2,6.2,1.3c-2.7,3.3-6.1,6-9.3,8.7c-5.5,4.5-10.9,9-16,14C735.3,422,734.7,421.9,734,421.9z"
		/>
	<path class="st0" d="M772.7,273.7c-3.8,4.9-9.3,6.4-14.8,8c0.1-0.6,0.1-1.1,0.2-1.7c0.8,0,1.6-0.2,2-1c0,0,0,0,0,0
		c4.7-4,9.4-8,14.1-12c-0.1,1-0.2,1.9-0.2,2.9c-0.9,0.8-1,2-1,3.1C772.8,273.2,772.7,273.4,772.7,273.7z"/>
	<path class="st0" d="M772.8,272.9c0-1.1,0-2.3,1-3.1C774,271,774.2,272.2,772.8,272.9z"/>
	<path class="st0" d="M760.9,376.9c0,1,0,2.1,0.1,3.1C759.7,379,759.8,377.9,760.9,376.9z"/>
	<path class="st0" d="M537,478c1.3,0,2.6,0,4.3,0c-1.3-4.5-2.2-8.8-0.2-13c1,7.4,2,14.7,3,22.1c0.5,3.4,0.5,6.8,1.9,10
		c8.5,7.6,17,15.3,26.6,23.9c-17.6-2.2-33.9-4.2-50.2-6.3c-0.1-0.3-0.2-0.6-0.2-0.9c2.3-4.5,7.2-5.8,10.8-8.8
		c3.7-3.1,8.6-4.7,11.2-9.1c0.1-1.7-0.4-2.6-2.1-3.3c-2.3-1-4.1-2.8-3.9-5.7l0,0c3.9-0.1,1.9-2.6,1.1-3.6
		C537.9,481.7,536.9,480.1,537,478z"/>
	<path class="st0" d="M708,194c0.4-0.3,0.7-0.6,1.1-1c10.1-5.1,20.2-10.3,31.7-16.1c-7.7,15-14.9,28.9-22,42.8
		c-0.3,0.1-0.5,0.2-0.8,0.3c-0.3,0-0.6,0-0.9,0c-3-8.3-6-16.7-9-25C708,194.6,708,194.3,708,194z"/>
	<path class="st0" d="M717.1,220c0.3,0,0.6,0,0.9,0c0.3,0.4,0.7,0.8,1,1.1c0.4,0,0.7,0,1.1,0c5.8,1.7,11.8,1.3,17.7,1.7
		c9.1,0.6,18.2,1.2,27.3,2.2c-0.5,2.8-2.7,2-4.4,2c-7.1,0-14.1,1.2-21.1,1.6c-15.9,0.9-31.6,3.6-47.5,3.5c6.1-3.6,13-5.3,19.4-8
		C713.6,223.1,716.4,223,717.1,220z"/>
	<path class="st0" d="M718.9,221.1c-0.3-0.4-0.7-0.8-1-1.1c0.3-0.1,0.5-0.2,0.8-0.3C718.8,220.2,718.9,220.6,718.9,221.1z"/>
	<path class="st0" d="M723,103.9c-2,0-4,0-6,0.1c-1.7-1.7-3.8-1-5.7-1c-30.2,0.4-60.5,1.4-90.7,1c-1.6,0-3.2,0-5.9,0
		c11.2-9.6,22.8-16.6,33.3-25.1c13.4-10.8,28.3-19.6,39.9-32.7c0.2-0.2,0.6-0.2,0.9-0.3c0.3,0.3,0.6,0.7,1,1c4.1,6.5,8,13,12.2,19.4
		c7.1,10.9,14.2,21.7,21.3,32.6c0.8,1.2,1.4,2.6,2,4C724.6,103.3,723.8,103.6,723,103.9z"/>
	<path class="st0" d="M689.8,45.3c-2.6-2.5-5.7-1.4-7.8,0.1c-15.1,10.3-32,11.9-49.5,10.7c-1.3-0.1-2.2-0.5-2.4-1.9
		c0.3-0.1,0.6-0.1,1-0.1c1.6-0.2,3.4-0.1,4.9-0.5c20.8-6.5,41.6-13.1,62.4-19.7c1.5-0.5,2.8-1.2,4,0.5c-0.2,4.3-2,8.2-3.3,12.2
		C695.9,46,692.8,45.7,689.8,45.3z"/>
	<path class="st0" d="M702.3,34.2c-1.2-1.6-2.5-0.9-4-0.5c-20.8,6.6-41.6,13.2-62.4,19.7c-1.5,0.5-3.3,0.4-4.9,0.5
		c0-0.4,0-0.7-0.1-1.1c0,0,0,0,0,0c6-2.5,11.6-5.6,17.1-8.9c1.3-0.3,2.9,0.6,3.8-1.1c0.1-0.6,0.2-1.3,0.3-1.9c2.1,0.1,3.9-0.9,5.6-2
		c6.7-4,13.6-7.4,20.4-11.3c7.3-4.2,15.2-7.4,21.9-12.6c0.4,0,0.8-0.1,1.2-0.1c2.2,0,4.5,0,6.8,0C706.8,21.6,704.7,28,702.3,34.2z"
		/>
	<path class="st0" d="M700,15.2c-6.7,5.3-14.6,8.4-21.9,12.6c-6.7,3.9-13.7,7.3-20.4,11.3c-1.7,1-3.4,2.1-5.6,2
		c-0.4-0.4-0.7-0.8-1.1-1.1c0.1-3.2,0.2-6.4,0.3-9.6c6-4.7,11.4-9.8,15.7-16c1-0.1,1.9-0.3,2.9-0.5C679.9,14.3,690,14.7,700,15.2z"
		/>
	<path class="st0" d="M648,44c-5.5,3.3-11.1,6.4-17.1,8.9c2.5-4.5,5.5-8.6,11.2-9.3c1,0,1.9,0,2.9,0C646,43.8,647,43.9,648,44z"/>
	<path class="st0" d="M648,44c-1-0.1-2-0.3-3-0.4c2.2-1.3,4.6-0.3,6.8-0.7C651,44.6,649.3,43.7,648,44z"/>
	<path class="st0" d="M735.2,565.1c0.3,0,0.5-0.1,0.7-0.2c1,0.1,2,0.2,3.1,0.3c6.8,2.7,14.1,3,21.1,4.8c-3,0-6,0.1-9,0.1
		c-5.3,0-10.7,0-16-0.1C735.1,568.3,735.1,566.7,735.2,565.1z"/>
	<path class="st0" d="M393.1,87.2c-0.1-0.9,0-1.7,1.1-2C394.2,86.1,393.8,86.7,393.1,87.2z"/>
	<path class="st0" d="M409,533c0.3-0.7,0.6-1.3,0.9-2c1.6,1,3.4,1.1,5.3,1c9.6,0,19.2,0,28.8-0.1c0.6,0,1.3,0,1.9,0.1c0,0,0,0,0,0
		c2.2,6.7,7,11.8,10.4,17.8c2.6,4.5,5.7,8.8,8.6,13.3c-2.7,1.5-4.1-0.3-5.7-1.3c-15.3-9.2-30.6-18.4-45.9-27.6
		c-0.4-0.2-1-0.2-1.5-0.3c0,0,0,0,0,0c-0.5-0.9-1.4-1-2.3-0.8C409.5,533.1,409.2,533,409,533z"/>
	<path class="st0" d="M235.2,537.8c-1.1-0.2-1.2-1.1-1.1-2C234.5,536.5,234.8,537.1,235.2,537.8z"/>
	<path class="st0" d="M692,232c15.9,0.1,31.7-2.6,47.5-3.5c7.1-0.4,14-1.6,21.1-1.6c1.7,0,3.9,0.8,4.4-2c0.7,0,1.3,0,2,0.1
		c0.4,0.8,1.2,0.9,2,1c0,0.9,0,1.7,0,2.6c-13.1,7.7-26.2,15.5-39.4,23c-5.4,3-10.2,7.5-16.6,8.6c-7.7-9-15.9-17.6-23-27.1
		C690.6,232.7,691.3,232.4,692,232z"/>
	<path class="st0" d="M769,228.6c0-0.9,0-1.7,0-2.6c0-0.3,0-0.6,0-0.9c1.7,0.1,3.4,0.1,5.1,0.2c-0.4,0.9-0.7,1.8-1.1,2.6
		c-1.2,0.7-1,1.9-1,3c0,0,0,0,0,0c-0.7-0.1-1.4-0.1-2.1-0.2C770,229.9,769.9,229.1,769,228.6z"/>
	<path class="st0" d="M769,225.1c0,0.3,0,0.6,0,0.9c-0.8,0-1.6-0.2-2-1C767.7,225.1,768.3,225.1,769,225.1z"/>
	<path class="st0" d="M531,563.1c-4.5-0.4-7.2-4-10.4-6.4c-13.5-10.4-26.8-21.1-40.2-31.7c-1-0.8-2.4-1.3-2.4-2.9
		c1.3-1.9,2.5-3.9,4-5.7c5.9-7.3,10-15.9,16.6-22.6c0.9,0.2,1.9,0.3,2.4,1.2c0.8,2.2,1.3,4.4,2.3,6.5c7.1,15.9,14.1,31.7,21.4,47.5
		c1.8,3.8,2.8,8.2,6.4,11c0,0,0,0,0,0C531,561,531,562.1,531,563.1z"/>
	<path class="st0" d="M498.6,493.7c-6.6,6.8-10.7,15.3-16.6,22.6c-1.4,1.8-2.7,3.8-4,5.7c-1,0-2.1,0-3.1,0c-3.7-1.7-7.3-3.3-11-5
		c7-15.3,13.9-30.7,21.2-45.8c2.1-4.5,2.7-9.8,6.8-13.3c2.8,11.6,5.6,23.2,7.1,35C498.9,493.2,498.7,493.5,498.6,493.7z"/>
	<path class="st0" d="M463.9,517.1c3.7,1.7,7.3,3.3,11,5c-2.6,2.9-6.5,2.6-9.8,3.8c-6.3,2.3-13.4,2.1-19.1,6.1c-0.6,0-1.3,0-1.9-0.1
		c0.1-1.8-0.8-3.2-1.4-4.7c-3.1-7.5-7.3-14.5-9.7-22.3c1,0.1,2,0.3,2.9,0.4C445,509.8,454.4,513.6,463.9,517.1z"/>
	<path class="st0" d="M498.6,493.7c0.1-0.3,0.3-0.5,0.5-0.7c1.1-1.8,2.8-1.1,4.4-1c13.5,1.5,27,3.5,40.6,4c-2.6,4.4-7.5,6-11.2,9.1
		c-3.6,3-8.5,4.2-10.8,8.8c-0.6,0.1-1.3,0.1-1.9,0.2c-2.9-2-5.1-4.6-7.3-7.3c-3.5-4.3-7.3-8.4-11.8-11.7
		C500.5,494.1,499.5,493.9,498.6,493.7z"/>
	<path class="st0" d="M501,495c4.4,3.4,8.2,7.5,11.8,11.7c2.2,2.7,4.4,5.3,7.3,7.3c0.9,8.6,4,16.6,5.8,24.9
		c1.5,7.1,4.3,13.8,5.2,21.1c-3.6-2.8-4.7-7.2-6.4-11c-7.3-15.8-14.3-31.6-21.4-47.5C502.3,499.4,501.8,497.2,501,495z"/>
	<path class="st0" d="M531,563.1c0-1.1,0-2.1,0-3.2C532.2,561,532.5,562.1,531,563.1z"/>
	<path class="st0" d="M769.8,230.8c0.7,0.1,1.4,0.1,2.1,0.2c0.4,2.5-0.9,4.5-1.7,6.6c-4.8,14.3-9.5,28.6-14.2,42.9
		c-0.1,0.5,0,1,0,1.5c1.5,4.4,6.6,3.3,9,6.1c-0.9,4.6-3.3,8.7-5.2,12.9c-10.6,4.2-21.2,8.4-31.8,12.5c-7.7,3-14.8,7.3-23.1,8.6
		c0.2-0.3,0.2-0.7,0.5-0.9c13.1-10,26.2-20,39.3-30.1c2.6-2,5.5-3.8,8.3-7.4c-6.4,1.4-11.6,2.8-16.9,3.7c-7.8,1.4-15.3,4.3-23.3,4.6
		c6.2-6.9,12.3-13.9,18.6-20.7c12.2-13.1,24.4-26.2,36.7-39.2c0.8,0,1.5-0.3,1.8-1.1L769.8,230.8z"/>
	<path class="st0" d="M765.1,288.1c-2.5-2.9-7.6-1.8-9-6.1c0.3,0,0.5,0,0.8,0c1.6,1.8,3.7,0.9,5.6,1c1.5,0.1,3.3-1.9,4.4,0.3
		C767.6,285,766.3,286.7,765.1,288.1z"/>
	<path class="st0" d="M772,231c0-1.1-0.2-2.3,1-3C773,229.1,773.2,230.3,772,231z"/>
	<path class="st0" d="M760,279c-0.4,0.8-1.1,1-2,1C758.4,279.2,759.2,279,760,279z"/>
	<path class="st0" d="M704.1,3.9c2.4-0.3,4.5,1,6.8,1.4c0,0.3-0.1,0.6-0.1,0.8c-2.9,2.6-5.8,5.3-8.7,7.9
		C701.6,10.4,704.1,7.4,704.1,3.9z"/>
	<path class="st0" d="M702,14c2.9-2.6,5.8-5.3,8.7-7.9c0.7,3.5-2.4,5.8-2.7,8.9c-2.3,0-4.5,0-6.8,0C701.5,14.7,701.7,14.3,702,14z"
		/>
	<path class="st0" d="M409.7,533.2c0.9-0.1,1.8-0.1,2.3,0.8c-0.7,0-1.5,0-2.2,0c0,0-0.4-0.2-0.4-0.2
		C409.6,533.7,409.7,533.5,409.7,533.2z"/>
	<path class="st0" d="M540.9,463c-3.1-3.9-4.2-8.7-4.6-13.5c-0.2-1.8,0-3.8-0.2-5.7c-0.1-1.5-0.6-3.5,1.9-3.8
		c1.9,3.3,0.7,7,1.6,10.5C540.5,454.6,540.5,458.8,540.9,463z"/>
	<path class="st0" d="M708,194c0,0.3,0,0.7,0,1c-7.7,11.8-12.5,25.1-19.2,37.4c-12.3-1.3-24.5-2.7-36.8-4c-5.3-0.5-10.6-1.7-16-1.5
		c-3-1.6-6.4-0.4-9.4-1.6c-0.6-0.2-1.9,0.3-1.6-1c0.1-0.5,1.2-0.9,1.9-1.3c1-0.1,2-0.1,2.9-0.4c22.5-8.6,45.1-17.1,67.9-24.9
		c2.4-0.8,4.6-1.9,5.4-4.6c1,0.1,2,0.1,2.9,0.2c0.4,0.2,0.7,0.5,1.1,0.7C707.4,193.9,707.7,193.9,708,194z"/>
	<path class="st0" d="M703.1,193c-0.8,2.7-2.9,3.8-5.4,4.6c-22.8,7.8-45.4,16.3-67.9,24.9c-0.9,0.3-1.9,0.3-2.9,0.4
		c1.4-1.2,2.9-2.4,4.3-3.6c1.5-0.4,3-0.8,3.8-2.3c6.2-2.7,11.4-7.1,17.3-10.4c1-0.6,1.9-1.3,1.8-2.7c7.1,0,39.3-6.7,42.6-8.8
		c-5-1-9.8,1.5-14.7,0.8c1-2.2,2.6-4.2,2-6.8c0.8-0.1,1.5,0,2.1,0.6c0.2,0.8,0.5,0.9,1,0.1C692.5,190.5,697.9,191.1,703.1,193z"/>
	<path class="st0" d="M707.1,194c-0.4-0.2-0.7-0.5-1.1-0.7C706.4,193.5,706.7,193.7,707.1,194z"/>
	<path class="st0" d="M687,189.9c-0.4,0.8-0.7,0.7-1-0.1C686.4,189.8,686.7,189.9,687,189.9z"/>
	<path class="st0" d="M568.8,87c1-3.8,2-7.6,3-11.5c2-9.1,5.1-18,6.1-27.4c10.3-1,20.7-1.9,31.1-2.1c-3.1,5.7-8.3,9.8-12.5,14.6
		c-7.6,8.6-15.8,16.6-23.7,24.9c-0.9,1-1.9,1.9-1.9,3.3c0,0,0,0,0,0c-0.7,0-1.4,0.1-2.1,0.1c-0.2,0.1-0.4,0.2-0.6,0.3
		C568.4,88.6,568.6,87.8,568.8,87z"/>
	<path class="st0" d="M568.9,92c-0.3-0.7-0.6-1.3-0.9-2c0.2-0.1,0.4-0.1,0.6-0.2c0.9,0.1,1.8,0.1,2.3-0.9c0,0,0,0,0,0
		c9.1-5.3,18.3-10.5,27.4-15.9c8.7-5.1,17.3-10.4,26.5-15.1c-4.5,5.6-6.1,13.3-12.8,17.2c-10.7,6.1-22.7,9.1-33.5,14.9
		C575.5,91.6,571.9,90.2,568.9,92z"/>
	<path class="st0" d="M612.7,104.7c-5.6,2.1-11.1,4.2-16.9,6.3C596.9,101.6,598.4,101,612.7,104.7z"/>
	<path class="st0" d="M624.9,45.2c6.8-0.4,6.8-0.3,3.9,5.5c-0.7,1.4-0.9,2.8-0.8,4.3C624.1,52.6,626.7,48.2,624.9,45.2z"/>
	<path class="st0" d="M616,46c2.1-1.7,4.6-0.8,6.9-0.8C620.8,46.8,618.3,45.7,616,46z"/>
	<path class="st0" d="M630.9,52.9c0,0.4,0,0.7,0.1,1.1c-0.3,0-0.6,0-1,0.1c0,0-0.5,0-0.5,0s-0.5,0-0.5,0
		C629.4,53.2,630.1,52.9,630.9,52.9z"/>
	<path class="st0" d="M463.9,517.1c-9.5-3.5-18.9-7.3-28-11.7c2-5.6,6.6-9.4,10.2-13.7c12-14.3,24.5-28.2,36.9-42.1
		c1.9-2.2,2.7-5.4,5.7-6.6c1.6,4.9,2.3,10,3.2,15c-4.1,3.5-4.6,8.8-6.8,13.3C477.9,486.4,471,501.8,463.9,517.1z"/>
	<path class="st0" d="M492,458c-0.9-5-1.6-10.1-3.2-15c-0.6-3.7-1.3-7.4-1.9-11.1c1.7-0.4,2.3,0.9,3.2,1.4c0.3,0.2,0.6,0.5,0.9,0.7
		c0,0,0,0,0,0c0.1,1.3,0.8,2,2.1,1.9c0,0,0,0,0,0c-0.1,1.3,0.6,2.2,1.4,3.1c11.8,13.5,23.5,27,35.5,40.3c2.5,2.7,3.6,7,8,7.7
		c-0.2,2.9,1.6,4.7,3.9,5.7c1.7,0.7,2.3,1.7,2.1,3.3c-13.6-0.5-27.1-2.5-40.6-4c-1.6-0.2-3.2-0.8-4.4,1
		C497.5,481.2,494.7,469.6,492,458z"/>
	<path class="st0" d="M433,505c2.4,7.8,6.6,14.8,9.7,22.3c0.6,1.5,1.5,3,1.4,4.7c-9.6,0-19.2,0-28.8,0.1c-1.8,0-3.6-0.1-5.3-1
		c4.2-7.1,10.2-12.8,15.2-19.4c1.5-2,3.1-3.9,4.7-5.7C430.6,504.9,431.4,503.4,433,505z"/>
	<path class="st0" d="M538,487c-4.4-0.8-5.6-5-8-7.7c-12-13.3-23.7-26.9-35.5-40.3c-0.8-0.9-1.5-1.8-1.4-3.1
		c0.6,0.1,1.2,0.2,1.8,0.4c1.3,1.8,3.2,2.8,5.1,3.9c5.6,4.2,11.3,8.5,16.9,12.7c3.1,4.6,6.6,9,9.2,13.9
		C529.8,473.6,535.3,479.5,538,487L538,487z"/>
	<path class="st0" d="M499.9,440.1c-1.9-1-3.8-2.1-5.1-3.9c3.3-4.8,6.4-9.7,11.1-13.3c-0.5,4.2-2.5,7.8-4.3,11.5
		C500.9,436.3,499.8,438,499.9,440.1z"/>
	<path class="st0" d="M493.1,435.9c-1.3,0.1-2-0.6-2.1-1.9C491.9,434.4,492.7,434.9,493.1,435.9z"/>
	<path class="st0" d="M491,434c-0.3-0.2-0.6-0.5-0.9-0.7C490.4,433.6,490.7,433.8,491,434z"/>
	<path class="st0" d="M507,422c-0.3,0.3-0.7,0.7-1,1C506.3,422.7,506.7,422.3,507,422z"/>
	<path class="st0" d="M409.7,533.2c0,0.3-0.1,0.5-0.3,0.7c-0.2-0.3-0.3-0.6-0.3-0.9C409.2,533,409.5,533.1,409.7,533.2z"/>
	<path class="st0" d="M636,226.9c5.4-0.2,10.7,1,16,1.5c0.1,0.9,0.8,1.3,1.4,1.9c16.8,13.6,33.7,27.1,50.5,40.7
		c-7.3,7.7-14.6,15.3-22,23c-1.3-4.6-4.3-8.1-7-11.9c-12-17.1-24-34.1-36.1-51.2C638,229.5,637,228.2,636,226.9z"/>
	<path class="st0" d="M705,322.1c8.3-1.4,15.4-5.7,23.1-8.6c10.6-4.1,21.2-8.3,31.8-12.5c-4.3,8.9-7,18.5-11.8,27.1
		c-9.8-0.9-19.5-2.3-29.4-2.1c-5.2-1.1-10.4-1.4-15.6-1.5c-0.3-0.2-0.6-0.3-0.9-0.5C703,323.3,704,322.7,705,322.1z"/>
	<path class="st0" d="M705,322.1c-1,0.6-2,1.3-3,1.9c-1-0.1-1.2-1-1.6-1.7c1.3-0.5,2.1-1.4,2.6-2.8c2.9-8.8,6-17.7,9-26.5
		c0-0.3,0.1-0.7,0.1-1c0.3,0,0.6,0,0.9,0c8-0.3,15.5-3.1,23.3-4.6c5.3-1,10.5-2.3,16.9-3.7c-2.7,3.7-5.6,5.4-8.3,7.4
		c-13.1,10.1-26.2,20.1-39.3,30.1C705.3,321.4,705.2,321.8,705,322.1z"/>
	<path class="st0" d="M712,293c-3,8.8-6,17.6-9,26.5c-0.5,1.4-1.2,2.3-2.6,2.8c-7-7.7-12.4-16.6-18.8-24.7c-0.7-0.8-1-1.7,0-2.6
		C691.9,294.6,701.8,292.7,712,293z"/>
	<path class="st0" d="M712,293c-10.1-0.3-20.1,1.7-30.3,1.9c0.1-0.3,0.2-0.7,0.3-1c7.3-7.7,14.6-15.3,22-23c3.2-2.2,5.3-5.5,8.1-8.1
		c1.6,1.3,1,3,0.9,4.6c-0.2,8.2-0.6,16.3-0.9,24.5C712.1,292.3,712,292.7,712,293z"/>
	<path class="st0" d="M654.1,204c0.1,1.4-0.7,2.1-1.8,2.7c-5.9,3.3-11.1,7.6-17.3,10.4c0-1.4-0.8-2.4-1.9-3.3
		c-4.1-3.3-8.1-6.5-12.2-9.8c-0.4-0.7-0.7-1.4-1.1-2.1c0,0,0,0,0,0c0.7,0,1.4,0,2.1,0c9.1-0.8,18,1.3,27.1,1
		C650.8,203.3,652.5,203.7,654.1,204z"/>
	<path class="st0" d="M621,204c4.1,3.3,8.1,6.5,12.2,9.8c1.1,0.8,1.8,1.9,1.9,3.3c-0.8,1.5-2.3,2-3.8,2.3c-2.9-3.8-5.7-7.6-8.7-11.4
		C621.5,206.8,620.9,205.6,621,204z"/>
	<path class="st0" d="M677,415c0.9-0.3,0.8,0.4,1,0.9C677.4,415.8,676.9,415.7,677,415z"/>
	<path class="st0" d="M578,48.2c-1,9.4-4.2,18.2-6.1,27.4c-5.8-1.2-11.2-3.8-16.8-5.7c-1.3-2.1,0.6-2.9,1.7-4
		c4.2-4.6,8.5-9.2,12.8-13.8c0.8-0.9,1.5-1.8,1.5-3C573.2,47.7,575.6,48.1,578,48.2z"/>
	<path class="st0" d="M534.1,33c0-0.7,0-1.4,0-2.1C535,31.6,535,32.3,534.1,33z"/>
	<path class="st0" d="M534.1,28.1c0-0.4,0-0.8,0-1.1C534.7,27.3,534.7,27.7,534.1,28.1z"/>
	<path class="st0" d="M718.6,325.9c9.9-0.1,19.6,1.3,29.4,2.1c-0.6,2.2-1.3,4.3-2.9,6.1c-9.1,1.8-17.1,6.6-26,8.9
		c-0.1-3.5-0.2-7.1-0.3-10.6c-0.1-0.4-0.3-0.8-0.4-1.3c0-0.7-0.1-1.4-0.1-2.2c0.6-0.7,0.6-1.5,0.4-2.3
		C718.5,326.4,718.5,326.1,718.6,325.9z"/>
	<path class="st0" d="M654.1,204c-1.7-0.3-3.4-0.7-5.1-1c-2.1-1-4.2-1.9-6.3-2.9c13.1-1.4,26.1-2.7,39.2-4.1c5,0.6,9.8-1.8,14.7-0.8
		C693.4,197.3,661.2,204,654.1,204z"/>
	<path class="st0" d="M642.8,200.1c2.1,1,4.2,1.9,6.3,2.9c-9,0.3-18-1.7-27.1-1c-0.3-0.3-0.7-0.7-1-1c3.7-1.6,7.3-3.3,11-4.9
		C635.6,197.4,639.2,198.8,642.8,200.1z"/>
	<path class="st0" d="M538,487c-2.7-7.5-8.2-13.3-12-20.2c-2.7-4.9-6.1-9.3-9.2-13.9c0.6-2,1.3-4,0.6-6.1c0.2-1.9,0.4-3.9,0.6-5.8
		c4.4,5.3,5.9,12,9,18c2.9,5.5,6,11,8,17c0.3,0.8,1.3,1.4,1.9,2.1c0,2.1,1,3.7,2.2,5.3C539.9,484.4,541.9,486.9,538,487z"/>
	<path class="st0" d="M518,441c-0.2,1.9-0.4,3.9-0.6,5.8c-2.9-8.1-5.7-16.3-6.3-24.9c2.5,2.4,5.1,4.9,7.6,7.3
		C519.5,433.1,517.6,437,518,441z"/>
	<path class="st0" d="M568.7,89.8c-0.2,0.1-0.4,0.1-0.6,0.2c0-0.3,0.1-0.5,0.2-0.7c0.2-0.1,0.4-0.2,0.6-0.3
		C568.8,89.3,568.7,89.6,568.7,89.8z"/>
	<path class="st0" d="M718.7,326.6c0.2,0.8,0.3,1.6-0.4,2.3C718,328.1,718.1,327.3,718.7,326.6z"/>
	<path class="st0" d="M718.4,331.1c0.1,0.4,0.3,0.8,0.4,1.3C718.7,331.9,718.5,331.5,718.4,331.1z"/>
	<path class="st0" d="M621,201c0.3,0.3,0.7,0.7,1,1c-0.7,0-1.4,0-2.1,0C620.3,201.6,620.6,201.3,621,201z"/>
	<path class="st0" d="M688.8,232.4c6.7-12.3,11.5-25.6,19.2-37.4c3,8.3,6,16.7,9,25c-0.7,3-3.5,3.1-5.7,4c-6.5,2.7-13.3,4.4-19.4,8
		c-0.7,0.4-1.4,0.7-2.1,1.1C689.6,232.8,689.2,232.6,688.8,232.4z"/>
	<path class="st0" d="M688.8,232.4c0.4,0.2,0.7,0.5,1.1,0.7c7.1,9.5,15.3,18.1,23,27.1c-0.3,0.9-0.6,1.8-0.9,2.7
		c-2.8,2.6-4.8,5.9-8.1,8.1c-16.8-13.6-33.6-27.2-50.5-40.7c-0.7-0.5-1.3-1-1.4-1.9C664.3,229.7,676.6,231,688.8,232.4z"/>
	<path class="st0" d="M712,262.9c0.3-0.9,0.6-1.8,0.9-2.7c6.5-1.1,11.2-5.5,16.6-8.6c13.3-7.4,26.3-15.3,39.4-23
		c0.9,0.5,1,1.3,0.8,2.1c0,0,0.1,0.1,0.1,0.1c-0.8,0-1.4,0.3-1.8,1.1c-12.2,13.1-24.5,26.1-36.7,39.2c-6.3,6.8-12.4,13.8-18.6,20.7
		c-0.3,0-0.6,0-0.9,0c0.3-8.2,0.6-16.3,0.9-24.5C713,265.9,713.6,264.2,712,262.9z"/>
	<path class="st0" d="M768.2,232c0.3-0.8,1-1.1,1.8-1.1C769.6,231.7,768.9,231.9,768.2,232z"/>
	<path class="st0" d="M568.7,89.8c0-0.3,0.1-0.5,0.2-0.8c0.7,0,1.4-0.1,2.1-0.1C570.5,89.9,569.6,90,568.7,89.8z"/>
</g>
</svg>
