<?xml version="1.0" encoding="utf-8"?>
<!-- Generator: Adobe Illustrator 19.0.1, SVG Export Plug-In . SVG Version: 6.00 Build 0)  -->
<svg version="1.1" id="Layer_1" xmlns="http://www.w3.org/2000/svg" xmlns:xlink="http://www.w3.org/1999/xlink" x="0px" y="0px"
	 viewBox="0 0 32 32" style="enable-background:new 0 0 32 32;" xml:space="preserve">
<style type="text/css">
	.st0{fill:none;stroke:#A73561;stroke-width:0.5;stroke-miterlimit:10;}
	.st1{fill:none;stroke:#FFFFFF;stroke-width:0.25;stroke-miterlimit:10;}
	.st2{fill:none;stroke:#A73651;stroke-width:0.25;stroke-miterlimit:10;}
</style>
<g>
	<path class="st0" d="M73.7,34H-41.2c-6.6,0-12-5.4-12-12V9.8c0-6.6,5.4-12,12-12H73.7c6.6,0,12,5.4,12,12V22
		C85.7,28.6,80.3,34,73.7,34z"/>
	<g>
		<path class="st1" d="M10.2,17.5l0,0.1L10.2,17.5l1.5-4.1h0.4L10.4,18H10l-1.7-4.7h0.4L10.2,17.5z"/>
		<path class="st1" d="M13.3,18h-0.4v-4.6h0.4V18z"/>
		<path class="st1" d="M17.1,15.8h-2.2v1.9h2.5V18h-2.9v-4.6h2.9v0.3H15v1.7h2.2L17.1,15.8L17.1,15.8z"/>
		<path class="st1" d="M19.1,16.8l0.1,0.7l0.2-0.7l1-3.4h0.4l1,3.4l0.2,0.7l0.2-0.7l0.8-3.4h0.4L22.2,18h-0.4l-1.1-3.6L20.6,14
			l-0.1,0.5L19.4,18h-0.4l-1.2-4.7h0.4L19.1,16.8z"/>
	</g>
	<path class="st2" d="M24.4,19.3H7.3c-2,0-3.6-1.6-3.6-3.6v0c0-2,1.6-3.6,3.6-3.6h17.1c2,0,3.6,1.6,3.6,3.6v0
		C28,17.7,26.3,19.3,24.4,19.3z"/>
</g>
</svg>
