<?xml version="1.0" encoding="utf-8"?>
<!-- Generator: Adobe Illustrator 19.0.1, SVG Export Plug-In . SVG Version: 6.00 Build 0)  -->
<svg version="1.1" id="Layer_1" xmlns="http://www.w3.org/2000/svg" xmlns:xlink="http://www.w3.org/1999/xlink" x="0px" y="0px"
	 viewBox="0 0 300 250" style="enable-background:new 0 0 300 250;" xml:space="preserve">
<style type="text/css">
	.st0{fill:none;stroke:#f22993;stroke-miterlimit:10;}
</style>
<g fill="none" fill-rule="evenodd" stroke="currentColor" stroke-width="1" class="lines">
	<path class="st0" d="M21.5,99.5h-5.3v11.8H9.6V79.1h11.9c3.8,0,6.7,0.8,8.8,2.5c2.1,1.7,3.1,4.1,3.1,7.2c0,2.2-0.5,4-1.4,5.5
		c-0.9,1.5-2.4,2.6-4.3,3.5l7,13.1v0.3h-7.1L21.5,99.5z M16.2,94.1h5.3c1.7,0,3-0.4,3.9-1.3c0.9-0.8,1.4-2,1.4-3.5
		c0-1.5-0.4-2.7-1.3-3.6c-0.9-0.9-2.2-1.3-4-1.3h-5.3V94.1z"/>
	<path class="st0" d="M56.6,104.6H45l-2.2,6.6h-7l12-32.1h6.1l12,32.1h-7L56.6,104.6z M46.8,99.3h8l-4-12L46.8,99.3z" stroke-dasharray="316.85528564453125" style="stroke-dashoffset: 316.855px;"/>
	<path class="st0" d="M88.2,98.1H75.5v13.1h-6.6V79.1h20.9v5.4H75.5v8.3h12.7V98.1z" stroke-dasharray="150" style="stroke-dashoffset: 150px;"/>
	<path class="st0" d="M107.5,104.6H95.9l-2.2,6.6h-7l12-32.1h6.1l12,32.1h-7L107.5,104.6z M97.7,99.3h8l-4-12L97.7,99.3z"/>
	<path class="st0" d="M139.1,97.3h-12.7v8.6h14.9v5.3h-21.5V79.1h21.5v5.4h-14.9v7.7h12.7V97.3z"/>
	<path class="st0" d="M151.8,105.9h14.1v5.3h-20.7V79.1h6.6V105.9z"/>
	<path class="st0" d="M192.8,99.5h-5.3v11.8H181V79.1h11.9c3.8,0,6.7,0.8,8.8,2.5c2.1,1.7,3.1,4.1,3.1,7.2c0,2.2-0.5,4-1.4,5.5
		c-0.9,1.5-2.4,2.6-4.3,3.5l7,13.1v0.3h-7.1L192.8,99.5z M187.6,94.1h5.3c1.7,0,3-0.4,3.9-1.3c0.9-0.8,1.4-2,1.4-3.5
		c0-1.5-0.4-2.7-1.3-3.6c-0.9-0.9-2.2-1.3-4-1.3h-5.3V94.1z"/>
	<path class="st0" d="M229.1,97.3h-12.7v8.6h14.9v5.3h-21.5V79.1h21.5v5.4h-14.9v7.7h12.7V97.3z"/>
	<path class="st0" d="M253.4,104.6h-11.6l-2.2,6.6h-7l12-32.1h6.1l12,32.1h-7L253.4,104.6z M243.5,99.3h8l-4-12L243.5,99.3z"/>
	<path class="st0" d="M272.2,105.9h14.1v5.3h-20.7V79.1h6.6V105.9z" stroke-dasharray="47.128875732421875" style="stroke-dashoffset: 47.1289px;"/>
</g>
</svg>
